<?xml version="1.0" encoding="utf-8"?>
<!-- Generator: Adobe Illustrator 24.0.0, SVG Export Plug-In . SVG Version: 6.00 Build 0)  -->
<svg version="1.1" id="Layer_1" xmlns="http://www.w3.org/2000/svg" xmlns:xlink="http://www.w3.org/1999/xlink" x="0px" y="0px"
	 viewBox="0 0 28 28" style="enable-background:new 0 0 28 28;" xml:space="preserve">
<style type="text/css">
	.st0{fill:#060707;}
</style>
<path class="st0" d="M20.8,10.4c0,0.1,0,0.3,0,0.5c0,4.7-3.5,10-10,10.1c-2,0-3.8-0.6-5.4-1.5c0.3,0,0.6,0,0.8,0
	c1.7,0,3.2-0.6,4.4-1.5c-1.5,0-2.9-1-3.3-2.4c0.2,0,0.4,0.1,0.7,0.1c0.3,0,0.6,0,0.9-0.1c-1.6-0.3-2.8-1.7-2.8-3.4l0,0
	c0.4,0.3,1,0.4,1.6,0.4C6.8,12,6.1,10.9,6.1,9.7c0-0.6,0.2-1.3,0.5-1.8c1.8,2.1,4.4,3.5,7.3,3.6c-0.1-0.3-0.1-0.5-0.1-0.8
	c0-1.9,1.6-3.5,3.5-3.5c1,0,1.9,0.4,2.6,1.1c0.8-0.2,1.6-0.5,2.2-0.9c-0.3,0.8-0.8,1.5-1.5,2c0.7-0.1,1.4-0.3,2-0.6
	C22.1,9.3,21.5,9.9,20.8,10.4z"/>
</svg>
