<?xml version="1.0" encoding="utf-8"?>
<!-- Generator: Adobe Illustrator 24.0.0, SVG Export Plug-In . SVG Version: 6.00 Build 0)  -->
<svg version="1.1" id="Capa_1" xmlns="http://www.w3.org/2000/svg" xmlns:xlink="http://www.w3.org/1999/xlink" x="0px" y="0px"
	 viewBox="0 0 476.3 382.7" style="enable-background:new 0 0 476.3 382.7;" xml:space="preserve">
<style type="text/css">
	.st0{fill-rule:evenodd;clip-rule:evenodd;fill:#060707;}
</style>
<path class="st0" d="M236.4,193.3c0-1.6,0.2-3.1,0.8-4.6c0.5-1.5,1.3-2.7,2.4-3.6c1.1-0.9,2.5-1.4,4.3-1.5c2,0,3.5,0.5,4.7,1.5
	c1.2,0.9,2,2.2,2.5,3.6c0.5,1.5,0.8,3,0.8,4.6c0,1.6-0.2,3.1-0.8,4.6c-0.5,1.5-1.4,2.7-2.5,3.6c-1.2,0.9-2.7,1.4-4.7,1.5
	c-1.8,0-3.2-0.5-4.3-1.5c-1.1-0.9-1.9-2.2-2.4-3.6C236.7,196.5,236.4,194.9,236.4,193.3 M254.6,173.2h-2.8v13h-0.1
	c-0.6-1.6-1.7-2.9-3.1-3.7c-1.4-0.8-3-1.3-4.8-1.3c-2.3,0-4.2,0.6-5.7,1.7c-1.5,1.1-2.6,2.6-3.4,4.4c-0.7,1.8-1.1,3.8-1.1,6
	c0,2.2,0.4,4.2,1.1,6s1.9,3.3,3.4,4.4c1.5,1.1,3.4,1.7,5.7,1.7c1.7,0,3.3-0.5,4.9-1.4c1.5-0.9,2.6-2.1,3.3-3.6h0.1v4.3h2.6V173.2z"
	/>
<path class="st0" d="M284.2,181.3c-2.3,0-4.3,0.6-5.9,1.7c-1.6,1.1-2.8,2.5-3.6,4.3c-0.8,1.8-1.2,3.8-1.2,6c0,2.2,0.4,4.2,1.2,6
	c0.8,1.8,2,3.3,3.6,4.3c1.6,1.1,3.6,1.6,5.9,1.7c2.3,0,4.3-0.6,5.9-1.7c1.6-1.1,2.8-2.5,3.6-4.3c0.8-1.8,1.2-3.8,1.2-6
	c0-2.2-0.4-4.2-1.2-6c-0.8-1.8-2-3.3-3.6-4.3C288.5,181.9,286.5,181.3,284.2,181.3 M284.2,183.6c1.8,0,3.3,0.5,4.4,1.4
	c1.2,0.9,2.1,2.1,2.7,3.6c0.6,1.5,0.9,3,0.9,4.7c0,1.6-0.3,3.2-0.9,4.7c-0.6,1.5-1.5,2.7-2.7,3.6c-1.2,0.9-2.7,1.4-4.4,1.4
	c-1.8,0-3.3-0.5-4.4-1.4c-1.2-0.9-2.1-2.1-2.7-3.6c-0.6-1.5-0.9-3-0.9-4.7c0-1.6,0.3-3.2,0.9-4.7s1.5-2.7,2.7-3.6
	C280.9,184.1,282.4,183.7,284.2,183.6"/>
<path class="st0" d="M313.7,204.7h2.8v-13.3c0.1-2.3,0.7-4.1,2-5.6c1.2-1.4,3-2.2,5.2-2.2c2.2,0,3.7,0.7,4.6,2
	c0.8,1.3,1.2,2.9,1.2,4.9v14.2h2.8v-14.6c0.1-2.7-0.5-4.9-1.8-6.4c-1.2-1.5-3.4-2.3-6.6-2.4c-1.6,0-3.1,0.4-4.5,1.3
	c-1.3,0.8-2.3,1.9-2.8,3.3h-0.1V182h-2.8V204.7z"/>
<path class="st0" d="M366.7,195.9c0,2.2-0.8,4-2.4,5.2c-1.5,1.2-3.4,1.9-5.6,1.9c-1.3,0-2.5-0.4-3.5-1.2c-1-0.8-1.5-1.9-1.6-3.3
	c0-1.5,0.6-2.5,1.7-3.2c1.1-0.6,2.4-1.1,4-1.4c1.6-0.2,3.2-0.5,4.8-0.7c0.4-0.1,0.8-0.2,1.3-0.3c0.5-0.1,0.8-0.4,1-0.7h0.1V195.9z
	 M354.6,188.9c0.1-1.8,0.7-3.2,1.8-4c1.1-0.8,2.5-1.3,4.3-1.3c1.7,0,3.1,0.3,4.2,0.9c1.1,0.7,1.7,1.9,1.8,3.7c0,1.2-0.3,2-0.9,2.4
	c-0.6,0.4-1.5,0.6-2.6,0.7c-2,0.2-4,0.5-5.8,0.8c-1.9,0.3-3.4,1-4.5,1.9c-1.2,1-1.8,2.5-1.8,4.6c0.1,2.3,0.8,4,2.2,5
	c1.4,1.1,3.2,1.6,5.4,1.6c2.1,0,3.8-0.4,5.1-1.2c1.2-0.8,2.3-1.9,3.2-3.4h0.1c0,1.2,0.1,2.2,0.6,2.9s1.3,1.1,2.7,1.1
	c0.4,0,0.7,0,1,0s0.6-0.1,0.9-0.1v-2.3c-0.1,0-0.3,0.1-0.4,0.1c-0.2,0-0.3,0.1-0.5,0.1c-0.5,0-1-0.2-1.2-0.4
	c-0.3-0.3-0.4-0.7-0.4-1.2v-12.1c0-2-0.5-3.5-1.3-4.6c-0.8-1.1-1.9-1.8-3.1-2.2c-1.3-0.4-2.6-0.6-4-0.5c-2.6,0-4.8,0.6-6.5,1.8
	c-1.7,1.2-2.6,3.2-2.8,5.8L354.6,188.9z"/>
<path class="st0" d="M196.5,193.3c0,101.3,9.8,185.6,106.2,185.6c97.2,0,106.2-84.4,106.2-185.6S398.4,4.6,302.7,4.6
	C207.1,4.6,196.5,92,196.5,193.3 M130.5,192.9c0-105.8,76.6-191.8,172.4-191.8s173.4,85.8,173.4,191.5s-77.3,190-173.1,190
	C207.5,382.7,130.5,298.7,130.5,192.9"/>
<path class="st0" d="M121.7,0.1H1.2c-1.7,0.1-1.4,4,0,4c4.4,0.1,25,0.1,25,0.1s4.7-0.1,7.2,5.4c2.8,6.2,99.2,213.5,99.2,213.5
	L83.8,351.4l-4.5,15.2c13.2-14.2,53.1-137.6,134.3-351c1.4-3,3.5-10.9,10.1-10.9h27.1C252,3.6,252,1.3,251,0h-69.8
	c-1.1,1.2-1.3,3.1-0.2,4.7h26.3c1.5,0,5.6-1.1,3.5,5.3c-2.8,8.4-55.3,150.5-55.3,150.5L90.6,4.7h30.9C123.2,4.1,122.9,0.7,121.7,0.1
	"/>
<path class="st0" d="M23.6,350.8c0-16.8,13.6-30.3,30.3-30.3s30.3,13.6,30.3,30.3c0,16.8-13.6,30.3-30.3,30.3S23.6,367.6,23.6,350.8
	"/>
</svg>
