<?xml version="1.0" encoding="utf-8"?>
<!-- Generator: Adobe Illustrator 24.0.0, SVG Export Plug-In . SVG Version: 6.00 Build 0)  -->
<svg version="1.1" id="Capa_1" xmlns="http://www.w3.org/2000/svg" xmlns:xlink="http://www.w3.org/1999/xlink" x="0px" y="0px"
	 viewBox="0 0 527.2 67.5" style="enable-background:new 0 0 527.2 67.5;" xml:space="preserve">
<style type="text/css">
	.st0{fill:#060707;}
</style>
<g>
	<path class="st0" d="M0,63h4.6c2.6,0,4.2-1.8,4.2-4.4v-0.3l-0.1-1.2v-48c0-1.8-0.2-2.8-1-3.4c-0.3-0.5-1-0.7-1.9-1
		c-0.6-0.2-1-0.3-1.1-0.3H0V1.1h55.9l1.3,19.6h-3.8c-0.2-1.3-0.2-2.4-0.5-3.1c-0.6-3.2-2.7-6.5-5.5-8.9C43.8,5.3,40,4.3,33.8,4.3
		h-7.3c-2.1,0-2.7,0.6-2.7,3.3v21.5h3.5c8.9,0,13.4-4.3,13.5-12.9h3.4V45h-3.4v-1.5c0-3.5-1.4-7.2-3.3-8.8
		c-1.7-1.4-6.3-2.5-10.2-2.5h-3.5v27.1c0,2.8,0.8,3.9,3.1,3.9h7.5c10.8,0,17.9-6.3,19.6-17.7h3.5l-1.7,20.9H0V63z"/>
	<path class="st0" d="M61,1.1h32.7v3.4H89h-0.1c-1,0.2-2.5,0.7-3.1,1.3c-0.6,0.5-1,1.6-1,3.4v50.1c0,2.7,0.9,3.8,3.1,3.8h5.2
		c4.9,0,8.9-2.4,12.2-7.2c1.9-2.8,3.5-6,4.6-9.3c0.6-2.1,0.8-3.4,1.4-6.3h3.7l-1.1,26.1H61V63h4.8h0.1c1.1-0.2,2.5-0.7,3-1.3
		c0.8-0.6,1-1.4,1-3.5V57V9.1c0-1.9-0.2-2.8-1-3.4c-0.4-0.5-1-0.7-1.9-1c-0.6-0.1-1-0.3-1.3-0.3H61V1.1z"/>
	<path class="st0" d="M151.8,49.1h-27.5c-2.5-5.3-3.6-9.2-3.9-13.9h31.4V49.1z M151.8,31.6h-31.2c0.3-5.9,1.1-8.7,4-14.3h27.2V31.6z
		 M151.8,66.5c-11.5-1.3-18.8-5.3-25.5-13.8h25.5V66.5z M126.6,14.2c7.2-9.5,15-13.8,25.2-14v14H126.6z M155.8,0
		c11.6,1.5,19.5,5.9,25.1,14.2h-25.1V0z M155.8,17.4h27.4c2.8,5.9,3.7,9.6,3.9,14.3h-31.2L155.8,17.4L155.8,17.4z M155.8,35.3h31.4
		c-0.7,6.4-1.6,9.5-4.1,13.9h-27.2L155.8,35.3L155.8,35.3z M180.8,52.8c-6.3,8.3-13.5,12.2-24,13.6l-0.9,0.1V52.8H180.8z"/>
	<path class="st0" d="M188.4,63h4.5c2.5,0,4.4-1.9,4.4-4.6v-0.1l-0.1-1.4V9.2c0-1.7-0.2-2.8-1-3.4c-0.4-0.5-1-0.7-1.9-1
		c-0.5-0.2-1-0.3-1.1-0.3h-4.8V1.1h28.1l12.6,42.3l13-42.3h27.7v3.4h-4.6h-0.1c-1.5,0.3-2.7,0.7-3.4,1.3c-0.9,0.7-1,1.3-1,3.4v49.1
		c0,1.7,0.4,2.8,1,3.4c0.5,0.5,1.2,0.7,2,1c0.6,0.2,1.1,0.3,1.4,0.3h4.6v3.3h-33.1V63h4.6h0.2c0.4-0.1,0.7-0.2,1-0.3
		c2-0.5,3-1.6,3-3.2v-1.3V6l-18.3,60.4h-6.9L202,6.3v52c0,1.9,0.2,2.8,1,3.4c0.3,0.5,1,0.7,1.9,1c0.5,0.2,0.9,0.3,1.1,0.3h4.7v3.3
		h-22.4L188.4,63L188.4,63z"/>
	<path class="st0" d="M271.6,1.1h32.6v3.3h-4.7h-0.1c-1,0.2-2.4,0.7-3,1.3c-0.7,0.5-1,1.9-1,3.5v37.9c0,3.9,0.1,5.8,0.6,7
		c1.1,3.7,5.4,6,11.5,6c9.4,0,12.7-3.5,12.7-13.9V9c0-2.7-1.6-4.6-4.1-4.6h-4.6V1.1h22.6v3.3h-4.6c-2.7,0-4.6,1.9-4.6,4.6v36.9
		c0,3.3-0.3,6.3-0.9,8.9c-0.6,3.1-1.9,5.5-3.4,7.2c-3.2,3.3-10.6,5.6-17.9,5.6c-6.4,0-13.2-1.8-17.1-4.3c-4-2.7-5.5-6.6-5.5-14.5V9
		V7.7c0-0.7-0.4-1.6-1-2.1c-0.4-0.5-1-0.8-1.9-1c-0.4-0.2-1-0.3-1.1-0.3h-4.6V1.1H271.6z"/>
	<path class="st0" d="M335.9,63h4.6c2.6,0,4.4-1.9,4.4-4.6v-0.1V57V9.2c0-1.6-0.4-2.9-1-3.4c-0.5-0.5-1-0.7-2-1
		c-0.6-0.2-1-0.3-1.2-0.3H336V1.1h22.7l27.8,46V9.2c0-1.6-0.4-2.9-1-3.4c-0.4-0.5-1.1-0.7-2-1c-0.5-0.2-1.1-0.3-1.2-0.3h-4.7V1.1
		h22.2v3.4H395c-0.1,0-0.6,0.1-1.1,0.3C392,5.3,391,6.4,391.1,8l0.1,1.3v57.1h-11.4l-30.2-50.2v42.1c0,2,0.2,2.8,1.1,3.5
		c0.4,0.5,1.2,0.7,2.1,1c0.6,0.1,1.2,0.3,1.3,0.3h4.8v3.3h-23V63z"/>
	<path class="st0" d="M401.8,63.1h4.6h0.2c1.2-0.3,2.5-0.7,3-1.3c0.8-0.6,1-1.6,1-3.5v-4.9V9.2c0-2-0.2-2.9-1-3.4
		c-0.3-0.5-1-0.8-1.9-1c-0.6-0.2-1-0.3-1.2-0.3h-4.7V1.1h33.8c7,0,12.2,1.5,17.3,5.3c8.1,5.7,12.9,15.6,12.9,26.3
		c0,19.2-12.4,33.7-28.7,33.7h-35.4v-3.3H401.8z M429.1,63.3h7.1c6,0,10.1-3.8,11.7-10.9c1-4.3,1.8-11.3,1.8-17.5
		c0-1.6-0.1-2.7-0.3-7.2c-0.2-2.6-0.2-4.6-0.2-5.9c-0.1-2.1-0.3-4-0.6-5.9c-1.5-7.5-5.6-11.8-11.5-11.8h-7.8c-2.7,0-3.2,0.8-3.2,4.1
		V59C425.9,62.2,426.7,63.3,429.1,63.3"/>
	<path class="st0" d="M498.9,0.3c17,0,28.4,13.5,28.4,33.5s-11.4,33.4-28.4,33.4c-16.9,0-28.4-13.4-28.4-33.4S481.9,0.3,498.9,0.3
		 M486.9,33.8c0,11,0.1,14,0.8,18.2c1.2,7.1,5.1,10.8,11.2,10.8c6,0,10-3.7,11.2-10.8c0.7-4.2,0.9-7.2,0.9-18.2s-0.2-14.1-0.9-18.3
		c-1.2-7.1-5.2-10.8-11.2-10.8c-6.1,0-10,3.7-11.2,10.8C486.9,19.7,486.9,22.7,486.9,33.8"/>
</g>
</svg>
