<?xml version="1.0" encoding="utf-8"?>
<!-- Generator: Adobe Illustrator 24.0.0, SVG Export Plug-In . SVG Version: 6.00 Build 0)  -->
<svg version="1.1" id="Capa_1" xmlns="http://www.w3.org/2000/svg" xmlns:xlink="http://www.w3.org/1999/xlink" x="0px" y="0px"
	 viewBox="0 0 855.9 171" style="enable-background:new 0 0 855.9 171;" xml:space="preserve">
<style type="text/css">
	.st0{fill-rule:evenodd;clip-rule:evenodd;fill:#060707;}
</style>
<path class="st0" d="M72.9,21.6c0,5.7-4.2,10.8-10.1,10.8c-6.6,0-9.7-3.5-9.7-7.9c0-5.3,2.9-4.8,2.9-11c0-4.4-2.4-6.8-7-6.8
	c-6.2,0-12.3,5.9-12.3,26v41.8c0,0.7,0.4,0.9,1.3,0.9h18.3c0.4,0,0.4,0.9,0,0.9H37.9c-0.9,0-1.3,0.2-1.3,0.9v90.2
	c0,0.7,0.4,0.9,1.3,0.9H50c0.4,0,0.4,0.9,0,0.9H3.4c-0.4,0-0.4-0.9,0-0.9h12.1c0.9,0,1.3-0.2,1.3-0.9V77.1c0-0.7-0.4-0.9-1.3-0.9
	H0.3c-0.4,0-0.4-0.9,0-0.9h15.2c0.9,0,1.3-0.2,1.3-0.9V70c0-48.2,15-64.7,36.7-64.7C63.5,5.3,72.9,11.7,72.9,21.6L72.9,21.6z
	 M166.9,169h-32.8c-0.4,0-0.4-0.4-0.4-0.7v-14.7c-4.2,12.5-15,17.2-25.1,17.2c-22.2,0-36.1-11.7-36.1-35v-59c0-0.4-0.4-0.7-1.3-0.7
	H59.1c-0.4,0-0.4-0.9,0-0.9h32.6c0.4,0,0.7,0.2,0.7,0.7v71.7c0,15.4,8.8,22.2,16.3,22.2c14.3,0,21.8-8.1,25.1-18.3V76.8
	c0-0.4-0.7-0.7-1.5-0.7H120c-0.4,0-0.4-0.9,0-0.9h32.8c0.4,0,0.4,0.2,0.4,0.7v91.3c0,0.7,0.4,0.9,1.5,0.9h12.1
	C167.3,168.1,167.3,169,166.9,169L166.9,169z M250.3,116c0,0.4-0.2,0.7-0.7,0.7h-62.9v5.5c0,26.4,2.4,36.5,9.2,42.9
	c4.2,3.7,9.5,5.1,15.2,5.1c15.6,0,28.4-8.4,36.1-20.5c0.2-0.2,0.9,0,0.7,0.4c-8.1,12.5-21.3,20.9-36.7,20.9
	c-25.3,0-45.1-22-45.1-48.8s19.8-48.8,45.1-48.8C238.7,73.3,250.3,99.5,250.3,116L250.3,116z M231.2,115.8
	c-0.4-19.1-2.4-30.8-7.5-36.5c-3.5-3.7-7.7-5.1-12.5-5.1c-5.7,0-11,1.3-15.2,5.1c-6.2,5.7-8.6,17.4-9,36.5H231.2L231.2,115.8z
	 M321.5,88.1c0,5.5-4.8,10.1-10.3,10.1c-6.4,0-10.1-3.3-10.1-7.5c0-4.8,2.9-5.3,2.9-8.8c0-3.7-2.6-5.7-5.9-5.7
	c-3.5,0-9.7,1.3-14.3,16.9v74.1c0,0.7,0.4,0.9,1.3,0.9H297c0.4,0,0.4,0.9,0,0.9h-46.6c-0.4,0-0.4-0.9,0-0.9h12.1
	c0.9,0,1.3-0.2,1.3-0.9V76.8c0-0.4-0.4-0.7-1.3-0.7h-12.1c-0.4,0-0.4-0.9,0-0.9H283c0.4,0,0.7,0.2,0.7,0.7v14.5
	c4-12.5,10.8-17.2,20.2-17.2C314,73.3,321.5,78.6,321.5,88.1L321.5,88.1z M404.8,162.2c-1.3,4-7.3,8.6-15.4,8.6
	c-9.5,0-16.1-5.9-17.6-14.3c-2.9,9.5-12.8,14.3-24.4,14.3c-14.5,0-29.9-5.7-29.9-23.1c0-23.1,20.2-27,28.8-27.9
	c12.1-1.1,24.4-1.8,24.4-6.6V96.4c0-17.6-7.7-22.4-15.6-22.4c-5.5,0-10.1,3.3-10.1,10.8c0,3.5,1.8,4.8,1.8,8.4c0,4-2.9,7.7-9.9,7.7
	c-6.4,0-9-5.1-9-9.9c0-7.7,10.1-17.8,27.3-17.8c22.4,0,35.4,12.3,35.4,39.8v47.3c0,5.3,2.2,7.5,5.7,7.5c3.7,0,7-3.5,7.7-5.7
	C404.1,161.5,405,161.8,404.8,162.2L404.8,162.2z M370.7,153.6V116c-5.1,3.3-13.9,3.3-20.2,4.6c-7.3,1.3-13.6,6.8-13.6,27
	c0,18.9,7.7,21.3,14.5,21.3C362.1,169,370.7,161.8,370.7,153.6L370.7,153.6z"/>
<path class="st0" d="M553,139.5c0,17.8-10.8,31.5-31.7,31.5c-12.1,0-16.9-5.9-25.3-5.9c-4,0-7.3,2.6-7.7,4.2c-0.2,0.7-0.9,0.4-0.9,0
	l1.1-32.3c0-0.4,0.9-0.4,0.9,0c-0.7,16.1,13.2,33.2,31.9,33.2c12.1,0,20.5-5.9,20.5-18.9c0-11.7-9-17.6-25.3-22.7
	c-14.8-4.4-25.5-12.8-25.5-26.2c0-18.5,12.8-29,26.2-29c7.3,0,8.6,2.2,18,2.2c3.5,0,4.6-1.3,4.6-3.1c0-0.4,0.9-0.2,0.9,0v26.4
	c0,0.4-0.9,0.4-0.9,0c0-15.4-12.1-24.6-22.7-24.6c-10.3,0-16.7,4.8-16.7,15.2c0,11.2,8.6,17.2,25.1,22
	C540.9,116,553,124.8,553,139.5L553,139.5z M646.2,116c0,0.4-0.2,0.7-0.7,0.7h-62.9v5.5c0,26.4,2.4,36.5,9.2,42.9
	c4.2,3.7,9.5,5.1,15.2,5.1c15.6,0,28.4-8.4,36.1-20.5c0.2-0.2,0.9,0,0.7,0.4c-8.1,12.5-21.3,20.9-36.7,20.9
	c-25.3,0-45.1-22-45.1-48.8s19.8-48.8,45.1-48.8C634.5,73.3,646.2,99.5,646.2,116L646.2,116z M627,115.8
	c-0.4-19.1-2.4-30.8-7.5-36.5c-3.5-3.7-7.7-5.1-12.6-5.1c-5.7,0-11,1.3-15.2,5.1c-6.2,5.7-8.6,17.4-9,36.5H627L627,115.8z
	 M718.5,88.1c0,5.5-4.8,10.1-10.3,10.1c-6.4,0-10.1-3.3-10.1-7.5c0-4.8,2.9-5.3,2.9-8.8c0-3.7-2.6-5.7-5.9-5.7
	c-3.5,0-9.7,1.3-14.3,16.9v74.1c0,0.7,0.4,0.9,1.3,0.9H694c0.4,0,0.4,0.9,0,0.9h-46.6c-0.5,0-0.5-0.9,0-0.9h12.1
	c0.9,0,1.3-0.2,1.3-0.9V76.8c0-0.4-0.4-0.7-1.3-0.7h-12.1c-0.5,0-0.5-0.9,0-0.9H680c0.4,0,0.7,0.2,0.7,0.7v14.5
	c4-12.5,10.8-17.2,20.2-17.2C711,73.3,718.5,78.6,718.5,88.1L718.5,88.1z M767.7,169h-46.9c-0.4,0-0.4-0.9,0-0.9H733
	c0.9,0,1.3-0.2,1.3-0.9V77.1c0-0.7-0.4-0.9-1.3-0.9h-12.1c-0.4,0-0.4-0.9,0-0.9h32.8c0.4,0,0.4,0.2,0.4,0.7v91.3
	c0,0.7,0.4,0.9,1.5,0.9h12.1C768.2,168.1,768.2,169,767.7,169L767.7,169z M852,116c0,0.4-0.2,0.7-0.7,0.7h-62.9v5.5
	c0,26.4,2.4,36.5,9.2,42.9c4.2,3.7,9.5,5.1,15.2,5.1c15.6,0,28.4-8.4,36.1-20.5c0.2-0.2,0.9,0,0.7,0.4
	c-8.1,12.5-21.3,20.9-36.7,20.9c-25.3,0-45.1-22-45.1-48.8s19.8-48.8,45.1-48.8C840.3,73.3,852,99.5,852,116L852,116z M832.9,115.8
	c-0.4-19.1-2.4-30.8-7.5-36.5c-3.5-3.7-7.7-5.1-12.5-5.1c-5.7,0-11,1.3-15.2,5.1c-6.2,5.7-8.6,17.4-9,36.5H832.9L832.9,115.8z"/>
<path class="st0" d="M445.1,170.4h-10.8c-0.1,0-0.2-0.1-0.2-0.2V167c-0.6,1.6-2.8,4-6.8,4c-8.2,0-14.6-7.7-14.6-15.5
	c0-7.9,6.7-16,14.8-16c2.8,0,5,1.1,6.6,2.9v-23.3c0-0.2-0.1-0.3-0.4-0.3h-3.9c-0.1,0-0.1-0.6,0-0.6h10.8c0.1,0,0.1,0.1,0.1,0.2v51.1
	c0,0.2,0.2,0.3,0.5,0.3h3.9C445.2,169.8,445.2,170.4,445.1,170.4L445.1,170.4z M434.1,164.8v-21.4c-1.3-2.2-4-3.3-6.6-3.3
	c-1.8,0-3.5,0.4-4.9,1.6c-2.2,2-3.2,6.7-3.2,13.8s1,11.4,3.2,13.4c1.4,1.1,2.8,1.6,4.7,1.6C431.9,170.4,434.1,167.7,434.1,164.8
	L434.1,164.8z M473.9,153.3c0,0.1-0.1,0.2-0.2,0.2h-20.4v1.7c0,8.4,0.8,11.6,3,13.5c1.3,1.2,3,1.6,4.8,1.6c5.1,0,9.2-2.6,11.7-6.5
	c0.1-0.1,0.4,0.1,0.4,0.3c-2.7,4-7,6.7-12.1,6.7c-8.2,0-14.7-7.1-14.7-15.7s6.5-15.7,14.7-15.7C470.1,139.5,473.9,148.1,473.9,153.3
	L473.9,153.3z M467.6,153c-0.1-6.1-0.8-9.5-2.4-11.3c-1.1-1.2-2.5-1.6-4-1.6c-1.8,0-3.5,0.4-4.8,1.6c-2,1.8-2.8,5.2-2.9,11.3H467.6
	L467.6,153z"/>
</svg>
