<?xml version="1.0" standalone="no"?>
<!DOCTYPE svg PUBLIC "-//W3C//DTD SVG 1.1//EN" "http://www.w3.org/Graphics/SVG/1.1/DTD/svg11.dtd" >
<svg xmlns="http://www.w3.org/2000/svg" xmlns:xlink="http://www.w3.org/1999/xlink" version="1.1">
<metadata>
Created by FontForge 20170731 at Thu Nov 21 15:06:43 2019
 By Aleksey,,,
Copyright (c) 2019 Schick Toikka. All rights reserved. Saol Display is a trademark of Schick Toikka. Unauthorised copying or modification of any of its data is illegal.
</metadata>
<defs>
<font id="SaolDisplay-Light" horiz-adv-x="290" >
  <font-face 
    font-family="Saol Display Light"
    font-weight="300"
    font-stretch="normal"
    units-per-em="1000"
    panose-1="0 0 4 0 0 0 0 0 0 0"
    ascent="750"
    descent="-250"
    x-height="490"
    cap-height="681"
    bbox="-227 -250 1180 1053"
    underline-thickness="50"
    underline-position="-200"
    unicode-range="U+0020-FB02"
  />
<missing-glyph horiz-adv-x="590" 
d="M542 -226h-494v1002h494v-1002zM295 287l230 479h-460zM58 757v-964l231 482zM532 -207v964l-231 -482zM525 -216l-230 479l-230 -479h460z" />
    <glyph glyph-name="fi" unicode="fi" horiz-adv-x="556" 
d="M235 0h-23q-14 0 -41 1.5t-48 1.5q-17 0 -40 -1.5t-34 -1.5h-14v7h1q35 0 44.5 9t9.5 41v365q0 34 6 59h-74v9h75q16 66 52 112q74 97 194 97q40 0 68 -10t28 -30q0 -11 -8 -19t-19 -8q-20 0 -63.5 16.5t-74.5 16.5q-49 0 -83.5 -35t-34.5 -112v-28h158v-9h-158v-424
q0 -31 14 -40.5t51 -9.5h14v-7zM521 0h-14q-11 0 -34 1.5t-40 1.5t-40 -1.5t-34 -1.5h-14v7h1q35 0 44.5 9t9.5 41v342q0 32 -9.5 40.5t-44.5 8.5h-1v7h6q33 0 68 13t41 30h6v-441q0 -32 9.5 -41t44.5 -9h1v-7z" />
    <glyph glyph-name="fl" unicode="fl" horiz-adv-x="548" 
d="M314 481h-158v-424q0 -31 14 -40.5t51 -9.5h14v-7h-23q-14 0 -41 1.5t-48 1.5q-17 0 -40 -1.5t-34 -1.5h-14v7h1q35 0 44.5 9t9.5 41v360q0 35 3 64h-71v9h72q13 99 62.5 154t134.5 55q64 0 105 -43q51 35 56 68h6v-667q0 -32 9.5 -41t44.5 -9h1v-7h-14q-11 0 -34 1.5
t-40 1.5t-40 -1.5t-34 -1.5h-14v7h1q35 0 44.5 9t9.5 41v590q-38 43 -101 43q-135 0 -135 -167v-33h158v-9z" />
    <glyph glyph-name="fb" unicode="fb" horiz-adv-x="841" 
d="M235 0h-23q-14 0 -41 1.5t-48 1.5q-17 0 -40 -1.5t-34 -1.5h-14v7h1q35 0 44.5 9t9.5 41v360q0 35 3 64h-71v9h72q13 99 62.5 154t134.5 55q64 0 105 -43q51 35 56 68h6v-291q70 65 152 65q33 0 63.5 -13t58.5 -41t45 -79.5t17 -119.5t-17 -119.5t-45 -79.5t-58.5 -41
t-63.5 -13q-85 0 -154 67q-53 -36 -58 -69h-6v657q-38 43 -101 43q-135 0 -135 -167v-33h158v-9h-158v-424q0 -31 14 -40.5t51 -9.5h14v-7zM610 1q25 0 42.5 9t33.5 34t24 75t8 126t-8 126t-24 75t-33.5 34t-42.5 9q-80 0 -152 -67v-354q72 -67 152 -67z" />
    <glyph glyph-name="fj" unicode="fj" horiz-adv-x="543" 
d="M235 0h-23q-14 0 -41 1.5t-48 1.5q-17 0 -40 -1.5t-34 -1.5h-14v7h1q35 0 44.5 9t9.5 41v365q0 34 6 59h-74v9h75q16 66 52 112q74 97 194 97q40 0 68 -10t28 -30q0 -11 -8 -19t-19 -8q-20 0 -63.5 16.5t-74.5 16.5q-49 0 -83.5 -35t-34.5 -112v-28h158v-9h-158v-424
q0 -31 14 -40.5t51 -9.5h14v-7zM466 39q0 -106 -46 -184q-54 -91 -142 -91q-13 0 -22 7t-9 19q0 26 29 26q12 0 37 -5t33 -5q54 0 54 85v508q0 32 -9.5 40.5t-44.5 8.5h-1v7h6q33 0 68 13t41 30h6v-459z" />
    <glyph glyph-name="fh" unicode="fh" horiz-adv-x="841" 
d="M314 481h-158v-424q0 -31 14 -40.5t51 -9.5h14v-7h-23q-14 0 -41 1.5t-48 1.5q-17 0 -40 -1.5t-34 -1.5h-14v7h1q35 0 44.5 9t9.5 41v360q0 35 3 64h-71v9h72q13 99 62.5 154t134.5 55q64 0 105 -43q51 35 56 68h6v-302l106 41q89 35 127 35q62 0 62 -70v-371
q0 -32 9.5 -41t44.5 -9h1v-7h-14q-12 0 -34 1.5t-40 1.5t-40 -1.5t-34 -1.5h-14v7h1q35 0 44.5 9t9.5 41v374q0 48 -35 48q-20 0 -85 -24l-109 -42v-356q0 -32 9.5 -41t44.5 -9h1v-7h-14q-11 0 -34 1.5t-40 1.5t-40 -1.5t-34 -1.5h-14v7h1q35 0 44.5 9t9.5 41v590
q-38 43 -101 43q-135 0 -135 -167v-33h158v-9z" />
    <glyph glyph-name="fk" unicode="fk" horiz-adv-x="827" 
d="M314 481h-158v-424q0 -31 14 -40.5t51 -9.5h14v-7h-23q-14 0 -41 1.5t-48 1.5q-17 0 -40 -1.5t-34 -1.5h-14v7h1q35 0 44.5 9t9.5 41v360q0 35 3 64h-71v9h72q13 99 62.5 154t134.5 55q64 0 105 -43q51 35 56 68h6v-537l85 88l-26 43q1 0 33 -0.5t35 0.5l80 83
q30 31 30 51q0 31 -48 31h-1v7h13q11 0 32 -1.5t39 -1.5t39.5 1.5t32.5 1.5h14v-7h-1q-59 0 -143 -86l-77 -80l163 -265q17 -28 30 -36.5t38 -8.5h1v-7h-12q-5 0 -28 1.5t-42 1.5t-43 -1.5t-29 -1.5h-24v7h1q43 0 43 18q0 7 -6 17l-139 226l-90 -93v-118q0 -32 9.5 -41
t44.5 -9h1v-7h-14q-11 0 -34 1.5t-40 1.5t-40 -1.5t-34 -1.5h-14v7h1q35 0 44.5 9t9.5 41v590q-38 43 -101 43q-135 0 -135 -167v-33h158v-9z" />
    <glyph glyph-name=".notdef" horiz-adv-x="590" 
d="M542 -226h-494v1002h494v-1002zM295 287l230 479h-460zM58 757v-964l231 482zM532 -207v964l-231 -482zM525 -216l-230 479l-230 -479h460z" />
    <glyph glyph-name=".null" horiz-adv-x="0" 
 />
    <glyph glyph-name="nonmarkingreturn" horiz-adv-x="333" 
 />
    <glyph glyph-name="space" unicode=" " horiz-adv-x="190" 
 />
    <glyph glyph-name="exclam" unicode="!" horiz-adv-x="241" 
d="M126 206h-10v43q0 63 -16 204t-16 187q0 23 10 35.5t27 12.5q38 0 38 -48q0 -47 -16.5 -187.5t-16.5 -203.5v-43zM121 -8q-21 0 -36.5 15t-15.5 37t15.5 37t36.5 15t36.5 -15t15.5 -37t-15.5 -37t-36.5 -15z" />
    <glyph glyph-name="quotedbl" unicode="&#x22;" horiz-adv-x="300" 
d="M87 463h-8q-2 57 -11 95.5t-17 58t-8 32.5q0 20 11 31t28 11q18 0 29.5 -11t11.5 -31q0 -13 -8 -32.5t-17 -58t-11 -95.5zM221 463h-8q-2 57 -11 95.5t-17 58t-8 32.5q0 20 11 31t28 11q18 0 29.5 -11t11.5 -31q0 -13 -8 -32.5t-17 -58t-11 -95.5z" />
    <glyph glyph-name="numbersign" unicode="#" horiz-adv-x="593" 
d="M106 456v10h136l58 203l10 -3l-57 -200h157l58 203l10 -3l-57 -200h133v-10h-136l-68 -234h133v-10h-136l-58 -203l-10 3l57 200h-157l-58 -203l-10 3l57 200h-133v10h136l68 234h-133zM250 456l-68 -234h157l68 234h-157z" />
    <glyph glyph-name="dollar" unicode="$" horiz-adv-x="528" 
d="M277 -72h-10v72q-83 4 -150 43t-67 93q0 17 9 26.5t22 9.5q26 0 34 -24q2 -5 6 -19.5t7 -23.5q15 -46 48 -70t91 -26v309l-53 16q-63 19 -101 63t-38 109q0 75 51 125t141 50v72h10v-72q63 -2 122 -41t59 -91q0 -14 -9 -22t-20 -8q-23 0 -31 21q-2 6 -6 20t-6 20
q-14 47 -39 69t-70 23v-279l53 -15q72 -21 111.5 -66.5t39.5 -113.5q0 -92 -60 -145t-139 -53h-5v-72zM103 538q0 -51 32 -80.5t104 -52.5l28 -9v276q-79 0 -121.5 -38t-42.5 -96zM444 158q0 61 -37 96.5t-112 55.5l-18 5v-306h4q73 0 118 42.5t45 106.5z" />
    <glyph glyph-name="percent" unicode="%" horiz-adv-x="713" 
d="M198 346q-64 0 -102.5 48.5t-38.5 122.5q0 73 38.5 122t102.5 49q48 0 83 -33q48 -46 103 -46q39 0 85.5 20.5t80.5 58.5l8 -5l-388 -692l-9 5l374 665q-26 -26 -67.5 -43.5t-83.5 -17.5q-43 0 -80 25q26 -46 26 -108q0 -73 -34.5 -122t-97.5 -49zM198 355q58 0 90 46
t32 116q0 69 -32 115.5t-90 46.5q-47 0 -63.5 -42.5t-16.5 -119.5t16.5 -119.5t63.5 -42.5zM518 -8q-64 0 -102.5 48.5t-38.5 122.5q0 73 38.5 122t102.5 49q63 0 97.5 -49.5t34.5 -121.5q0 -73 -34.5 -122t-97.5 -49zM518 1q58 0 90 46t32 116q0 69 -32 115.5t-90 46.5
q-47 0 -63.5 -42.5t-16.5 -119.5t16.5 -119.5t63.5 -42.5z" />
    <glyph glyph-name="ampersand" unicode="&#x26;" horiz-adv-x="785" 
d="M277 -10q-86 0 -143 55.5t-57 144.5q0 86 53.5 139.5t128.5 70.5q-41 19 -65 56.5t-24 81.5q0 70 52.5 111.5t114.5 41.5q66 0 123.5 -33t57.5 -78q0 -29 -28 -29q-26 0 -37 33q-33 98 -116 98q-51 0 -89 -29.5t-38 -78.5q0 -45 34 -78t85 -53q86 -34 131 -76t60 -123
l49 78q53 85 132 85q15 0 26.5 -7.5t11.5 -19.5q0 -30 -40 -30q-14 0 -35 5t-30 5q-31 0 -59 -46l-51 -83q2 -9 5.5 -25t4.5 -22q20 -100 48 -135t73 -35q50 0 86 63l7 -4q-42 -80 -126 -80q-115 0 -150 147q-77 -150 -195 -150zM277 0q111 0 191 154q-9 58 -20 91
q-15 47 -43.5 76t-76.5 49q-40 16 -58 23q-58 -15 -88.5 -67.5t-30.5 -130.5q0 -195 126 -195z" />
    <glyph glyph-name="quotesingle" unicode="'" horiz-adv-x="166" 
d="M87 463h-8q-2 57 -11 95.5t-17 58t-8 32.5q0 20 11 31t28 11q18 0 29.5 -11t11.5 -31q0 -13 -8 -32.5t-17 -58t-11 -95.5z" />
    <glyph glyph-name="parenleft" unicode="(" 
d="M127 276q0 -137 35.5 -260t119.5 -184l-5 -7q-97 69 -157 194.5t-60 256.5t60 257.5t157 194.5l5 -7q-84 -61 -119.5 -184.5t-35.5 -260.5z" />
    <glyph glyph-name="parenright" unicode=")" 
d="M163 276q0 137 -35.5 260.5t-119.5 184.5l5 7q97 -68 157 -194.5t60 -257.5t-60 -256.5t-157 -194.5l-5 7q84 61 119.5 184t35.5 260z" />
    <glyph glyph-name="asterisk" unicode="*" horiz-adv-x="388" 
d="M194 400q-12 0 -20.5 8.5t-8.5 20.5q0 17 12.5 57.5t13.5 70.5q-25 -15 -53 -46t-44 -39q-8 -5 -17 -5q-12 0 -19.5 9.5t-7.5 20.5q0 15 14 24q14 8 56.5 17t68.5 24q-26 14 -68 23.5t-57 18.5q-14 9 -14 25q0 11 8 20t20 9q8 0 16 -5q15 -9 43.5 -40t53.5 -46
q-1 30 -13.5 70.5t-12.5 57.5q0 12 8.5 20.5t20.5 8.5t20.5 -8.5t8.5 -20.5q0 -17 -12.5 -57.5t-13.5 -70.5q25 15 53.5 46t43.5 40q8 5 16 5q12 0 20 -9t8 -20q0 -16 -14 -25q-15 -9 -57 -18.5t-68 -23.5q26 -15 68.5 -24t56.5 -17q14 -9 14 -24q0 -11 -7.5 -20.5
t-19.5 -9.5q-9 0 -17 5q-16 8 -44 39t-53 46q1 -30 13.5 -70.5t12.5 -57.5q0 -12 -8.5 -20.5t-20.5 -8.5z" />
    <glyph glyph-name="plus" unicode="+" horiz-adv-x="530" 
d="M270 103h-10v214h-215v10h215v216h10v-216h215v-10h-215v-214z" />
    <glyph glyph-name="comma" unicode="," horiz-adv-x="221" 
d="M105 -5q-22 0 -36 14.5t-14 35.5t15 36.5t38 15.5q24 0 41 -19t17 -48q0 -57 -30 -92t-66 -43l-2 7q34 8 60.5 39.5t26.5 76.5q0 4 -1 9q-14 -32 -49 -32z" />
    <glyph glyph-name="hyphen" unicode="-" horiz-adv-x="303" 
d="M238 262h-173v39h173v-39z" />
    <glyph glyph-name="period" unicode="." horiz-adv-x="214" 
d="M107 -8q-21 0 -36.5 15t-15.5 37t15.5 37t36.5 15t36.5 -15t15.5 -37t-15.5 -37t-36.5 -15z" />
    <glyph glyph-name="slash" unicode="/" horiz-adv-x="351" 
d="M330 721l-300 -893l-9 3l300 893z" />
    <glyph glyph-name="zero" unicode="0" horiz-adv-x="604" 
d="M302 -10q-117 0 -184 101.5t-67 249.5t67 249t184 101t184 -101t67 -249t-67 -249.5t-184 -101.5zM302 -1q46 0 78.5 19t50.5 47.5t28 76.5t12.5 91.5t2.5 107.5t-2.5 107t-12.5 91.5t-28 76.5t-50.5 47t-78.5 19t-78.5 -19t-50.5 -47t-28 -76.5t-12.5 -91.5t-2.5 -107
t2.5 -107.5t12.5 -91.5t28 -76.5t50.5 -47.5t78.5 -19z" />
    <glyph glyph-name="one" unicode="1" horiz-adv-x="314" 
d="M253 0h-16q-11 0 -32.5 1.5t-37.5 1.5q-17 0 -38 -1.5t-32 -1.5h-36v8h9q37 0 50 8t13 38v501q0 24 -18 24q-11 0 -37 -13l-22 -11l-4 8q51 24 93.5 62.5t49.5 62.5h6v-630q0 -32 9.5 -41t41.5 -9h1v-8z" />
    <glyph glyph-name="two" unicode="2" horiz-adv-x="486" 
d="M444 66l-26 -128l-6 1q2 36 -10 48.5t-44 12.5h-342v4l137 145q101 107 153 194t52 182q0 84 -26 120.5t-80 36.5q-95 0 -137 -126q-12 -35 -37 -35q-14 0 -22.5 8.5t-8.5 22.5q0 46 66.5 92.5t138.5 46.5q76 0 130.5 -43.5t54.5 -123.5q0 -34 -12 -69.5t-29.5 -63
t-48 -63t-55 -59.5t-65 -63.5t-64.5 -63.5l-74 -76h355z" />
    <glyph glyph-name="three" unicode="3" horiz-adv-x="525" 
d="M252 -10q-91 0 -159 54t-68 111q0 16 9.5 25.5t21.5 9.5q26 0 34 -34q38 -157 162 -157q72 0 112.5 52.5t40.5 151.5q0 91 -23 130.5t-71 39.5q-19 0 -49 -16l-73 -37l-5 9l91 47q86 44 86 161q0 69 -21.5 107t-82.5 38q-96 0 -133 -123q-10 -38 -39 -38q-12 0 -21 8.5
t-9 22.5q0 46 64.5 92.5t137.5 46.5q76 0 127 -40.5t51 -106.5q0 -50 -38 -93.5t-91 -67.5q25 2 53.5 -6.5t57.5 -27t48 -56t19 -87.5q0 -69 -38.5 -120t-90 -73.5t-103.5 -22.5z" />
    <glyph glyph-name="four" unicode="4" horiz-adv-x="515" 
d="M480 196h-116v-138q0 -32 9.5 -41t41.5 -9h1v-8h-16q-11 0 -32.5 1.5t-37.5 1.5t-38 -1.5t-32 -1.5h-36v8h9q37 0 50 8t13 38v142h-292v5l298 480l27 -1q3 0 15 0.5t20 0.5v-475h5q77 0 135 127l5 -1zM296 206v445l-276 -445h276z" />
    <glyph glyph-name="five" unicode="5" horiz-adv-x="527" 
d="M244 -10q-72 0 -135.5 47.5t-63.5 90.5q0 14 8.5 23t21.5 9q28 0 38 -34q6 -20 14.5 -38.5t23.5 -40.5t39 -35t54 -13q84 0 121 64t37 168q0 102 -29 155.5t-102 53.5q-51 0 -105.5 -29t-80.5 -77l-9 3q50 344 51 344h256q34 0 53 8t26 33l6 -1l-23 -106h-318l-38 -257
q28 40 80.5 66t101.5 26q97 0 153 -55.5t56 -158.5q0 -114 -67 -180t-169 -66z" />
    <glyph glyph-name="six" unicode="6" horiz-adv-x="551" 
d="M279 -10q-37 0 -72.5 12.5t-72.5 43t-60 94.5t-23 153q0 144 109.5 256.5t273.5 142.5l2 -10q-128 -26 -205.5 -104t-95.5 -207q31 37 74.5 58t85.5 21q34 0 66.5 -10t65 -32.5t52.5 -66t20 -102.5q0 -62 -22 -112t-56 -78.5t-71 -43.5t-71 -15zM279 -1q142 0 142 237
q0 204 -126 204q-41 0 -85 -22t-76 -62q-4 -38 -4 -63q0 -164 37.5 -229t111.5 -65z" />
    <glyph glyph-name="seven" unicode="7" horiz-adv-x="466" 
d="M226 33q0 -18 -11.5 -29t-27.5 -11q-18 0 -29.5 11t-11.5 30q0 69 23.5 148t66 158.5t81.5 141t91 133.5h-282q-36 0 -54 -14t-31 -52l-6 1l36 171l6 -1q-1 -24 12.5 -31.5t41.5 -7.5h330v-4q-65 -94 -102 -155.5t-71 -140.5t-48 -162t-14 -186z" />
    <glyph glyph-name="eight" unicode="8" horiz-adv-x="539" 
d="M275 -10q-103 0 -165.5 53.5t-62.5 139.5q0 54 37.5 101t105.5 76q-113 50 -113 154q0 73 54.5 125t139.5 52q78 0 134.5 -43t56.5 -114q0 -101 -108 -161q68 -29 103 -72t35 -112q0 -87 -61 -143t-156 -56zM403 533q0 69 -32.5 109t-100.5 40q-66 0 -105.5 -35
t-39.5 -94q0 -88 108 -132l110 -44q60 49 60 156zM275 -1q79 0 121.5 45t42.5 116q0 103 -128 153l-111 43q-42 -24 -63 -70.5t-21 -96.5q0 -79 40.5 -134.5t118.5 -55.5z" />
    <glyph glyph-name="nine" unicode="9" horiz-adv-x="551" 
d="M272 691q37 0 72.5 -12.5t72.5 -43t60 -94.5t23 -153q0 -144 -109.5 -256.5t-273.5 -142.5l-2 10q128 26 205.5 104t95.5 207q-31 -37 -74.5 -58t-85.5 -21q-34 0 -66.5 10t-65 32.5t-52.5 66t-20 102.5q0 62 22 112t56 78.5t71 43.5t71 15zM272 682q-142 0 -142 -237
q0 -204 126 -204q41 0 85 22t76 62q4 38 4 63q0 164 -37.5 229t-111.5 65z" />
    <glyph glyph-name="colon" unicode=":" horiz-adv-x="214" 
d="M107 360q-21 0 -36.5 15t-15.5 37t15.5 37t36.5 15t36.5 -15t15.5 -37t-15.5 -37t-36.5 -15zM107 -8q-21 0 -36.5 15t-15.5 37t15.5 37t36.5 15t36.5 -15t15.5 -37t-15.5 -37t-36.5 -15z" />
    <glyph glyph-name="semicolon" unicode=";" horiz-adv-x="221" 
d="M107 360q-21 0 -36.5 15t-15.5 37t15.5 37t36.5 15t36.5 -15t15.5 -37t-15.5 -37t-36.5 -15zM105 -5q-22 0 -36 14.5t-14 35.5t15 36.5t38 15.5q24 0 41 -19t17 -48q0 -57 -30 -92t-66 -43l-2 7q34 8 60.5 39.5t26.5 76.5q0 4 -1 9q-14 -32 -49 -32z" />
    <glyph glyph-name="less" unicode="&#x3c;" horiz-adv-x="469" 
d="M43 328l376 174l4 -9l-368 -170l368 -170l-4 -9l-376 174v10z" />
    <glyph glyph-name="equal" unicode="=" horiz-adv-x="490" 
d="M45 408v10h400v-10h-400zM45 229v10h400v-10h-400z" />
    <glyph glyph-name="greater" unicode="&#x3e;" horiz-adv-x="469" 
d="M50 502l376 -174v-10l-376 -174l-4 9l368 170l-368 170z" />
    <glyph glyph-name="question" unicode="?" horiz-adv-x="345" 
d="M143 206h-10v202q68 13 107.5 51.5t39.5 83.5q0 35 -25.5 60t-72.5 25q-23 0 -53.5 -7t-39.5 -7q-15 0 -23.5 10.5t-8.5 25.5q0 38 57 38q80 0 129 -48.5t49 -121.5q0 -142 -149 -186v-126zM137 -8q-21 0 -36.5 15t-15.5 37t15.5 37t36.5 15t36.5 -15t15.5 -37t-15.5 -37
t-36.5 -15z" />
    <glyph glyph-name="at" unicode="@" horiz-adv-x="833" 
d="M433 -145q-161 0 -272 113t-111 277q0 161 111.5 276.5t269.5 115.5q146 0 249 -92t103 -238q0 -105 -71.5 -200.5t-170.5 -95.5q-40 0 -64 22t-24 60q0 44 36 124l70 161l-177 -247q-85 -120 -138 -120q-55 0 -55 61q0 50 43 145.5t89 158.5q76 105 153 105
q55 0 100 -70q37 14 52.5 28t31.5 43l6 -2l-122 -294q-37 -86 -37 -119q0 -46 38 -46q62 0 116.5 45.5t84 111t29.5 129.5q0 141 -100.5 230.5t-241.5 89.5q-155 0 -263 -112.5t-108 -269.5q0 -161 107.5 -270.5t265.5 -109.5q108 0 201 56.5t131 153.5l9 -4
q-38 -100 -134 -158t-207 -58zM276 38q29 0 99 98l194 269q-39 65 -84 65q-29 0 -55 -23.5t-66 -88.5q-41 -66 -74 -159t-33 -132q0 -29 19 -29z" />
    <glyph glyph-name="A" unicode="A" horiz-adv-x="638" 
d="M653 0h-21q-6 0 -32 1.5t-41 1.5q-18 0 -45 -1.5t-32 -1.5h-21v8q52 0 52 31q0 10 -7 25l-52 124h-322l-27 -68q-14 -36 -14 -59q0 -53 71 -53v-8h-12q-11 0 -41 1.5t-43 1.5q-7 0 -34.5 -1.5t-35.5 -1.5h-21v8q41 2 68.5 27.5t51.5 86.5l187 478l-34 81q9 0 21 -0.5
t18 -0.5t17 0.5t18 0.5l260 -621q22 -52 71 -52v-8zM288 589l-152 -391h314z" />
    <glyph glyph-name="B" unicode="B" horiz-adv-x="608" 
d="M567 175q0 -83 -67 -129t-156 -46h-120q-15 0 -43.5 0.5t-50.5 0.5q-16 0 -38 -0.5t-32 -0.5h-16v8h1q32 0 41.5 8.5t9.5 40.5v567q0 32 -9.5 40.5t-41.5 8.5h-1v8h16q10 0 32 -0.5t38 -0.5q20 0 47 0.5t42 0.5h89q95 0 157.5 -46.5t62.5 -124.5q0 -65 -50 -110t-115 -54
q51 -1 95.5 -18t76.5 -57t32 -96zM453 510q0 82 -32 121.5t-118 39.5h-139v-322h143q85 0 115.5 39.5t30.5 121.5zM488 175q0 90 -37 127t-117 37h-170v-329h171q81 0 117 38.5t36 126.5z" />
    <glyph glyph-name="C" unicode="C" horiz-adv-x="612" 
d="M317 -8q-124 0 -203.5 99.5t-79.5 251.5q0 86 28.5 155.5t73 110t93 61.5t94.5 21q35 0 78 -9.5t52 -9.5q35 0 33 33l6 2l92 -227l-6 -3q-68 112 -128.5 158.5t-126.5 46.5q-93 0 -161.5 -75.5t-68.5 -199.5q0 -164 77.5 -265.5t192.5 -101.5q138 0 213 140l7 -3
q-38 -80 -109.5 -132.5t-156.5 -52.5z" />
    <glyph glyph-name="D" unicode="D" horiz-adv-x="634" 
d="M599 340q0 -160 -85 -250t-220 -90h-75q-15 0 -42 0.5t-47 0.5q-16 0 -38 -0.5t-32 -0.5h-16v8h1q32 0 41.5 8.5t9.5 40.5v567q0 32 -9.5 40.5t-41.5 8.5h-1v8h16q10 0 32 -0.5t38 -0.5q20 0 47 0.5t42 0.5h75q135 0 220 -90t85 -251zM520 340q0 185 -52 258t-190 73
h-114v-661h114q138 0 190 73t52 257z" />
    <glyph glyph-name="E" unicode="E" horiz-adv-x="615" 
d="M493 -31l-6 2q2 14 -5 21.5t-26 7.5h-237q-15 0 -42 0.5t-47 0.5q-16 0 -38 -0.5t-32 -0.5h-16v8h1q32 0 41.5 8.5t9.5 40.5v567q0 32 -9.5 40.5t-41.5 8.5h-1v8h16q10 0 32 -0.5t38 -0.5q20 0 47 0.5t42 0.5h224q19 0 27 7.5t6 22.5l6 2l92 -226l-6 -3q-81 114 -113 148
q-36 39 -96 39h-195v-320h128q55 0 73 30.5t25 101.5h7v-277h-7q-4 36 -8 55.5t-13.5 40.5t-28.5 30t-48 9h-128v-331h206q33 0 54.5 8.5t46.5 36.5q48 54 111 160l6 -3z" />
    <glyph glyph-name="F" unicode="F" horiz-adv-x="568" 
d="M400 196h-7q-4 36 -8 55.5t-13.5 40t-28.5 29.5t-48 9h-131v-272q0 -29 15.5 -39.5t54.5 -10.5h20v-8h-30q-14 0 -41.5 1.5t-47.5 1.5q-17 0 -40 -1.5t-35 -1.5h-16v8h1q32 0 41.5 8.5t9.5 40.5v567q0 32 -9.5 40.5t-41.5 8.5h-1v8h16q10 0 32 -0.5t38 -0.5t38 0.5
t32 0.5h231q19 0 27 7.5t6 22.5l6 2l92 -226l-6 -3q-81 114 -113 148q-36 39 -96 39h-183v-331h131q55 0 73 31t25 102h7v-277z" />
    <glyph glyph-name="G" unicode="G" horiz-adv-x="648" 
d="M572 244v-254h-6q-5 35 -57 75q-76 -73 -182 -73q-126 0 -209.5 100t-83.5 239q0 90 26.5 161.5t69.5 113.5t93 63.5t101 21.5q45 0 87.5 -9.5t49.5 -9.5q15 0 25 8t9 25l6 2l92 -227l-6 -3q-71 114 -130.5 159.5t-132.5 45.5q-94 0 -153 -82.5t-59 -254.5
q0 -165 60 -253t172 -88q49 0 92 22t68 48v170q0 32 -9.5 40.5t-41.5 8.5h-1v8h16q10 0 32 -1.5t38 -1.5t38 1.5t32 1.5h16v-8h-1q-32 0 -41.5 -8.5t-9.5 -40.5z" />
    <glyph glyph-name="H" unicode="H" horiz-adv-x="691" 
d="M595 57q0 -32 9.5 -40.5t41.5 -8.5h1v-8h-16q-11 0 -32 1.5t-38 1.5t-38 -1.5t-32 -1.5h-16v8h1q32 0 41.5 8.5t9.5 40.5v284h-363v-284q0 -32 9.5 -40.5t41.5 -8.5h1v-8h-16q-10 0 -32 1.5t-38 1.5t-38 -1.5t-32 -1.5h-16v8h1q32 0 41.5 8.5t9.5 40.5v567
q0 32 -9.5 40.5t-41.5 8.5h-1v8h16q10 0 32 -1.5t38 -1.5t38 1.5t32 1.5h16v-8h-1q-32 0 -41.5 -8.5t-9.5 -40.5v-273h363v273q0 32 -9.5 40.5t-41.5 8.5h-1v8h16q11 0 32 -1.5t38 -1.5t38 1.5t32 1.5h16v-8h-1q-32 0 -41.5 -8.5t-9.5 -40.5v-567z" />
    <glyph glyph-name="I" unicode="I" horiz-adv-x="260" 
d="M164 57q0 -32 9.5 -40.5t41.5 -8.5h1v-8h-16q-10 0 -32 1.5t-38 1.5t-38 -1.5t-32 -1.5h-16v8h1q32 0 41.5 8.5t9.5 40.5v567q0 32 -9.5 40.5t-41.5 8.5h-1v8h16q10 0 32 -1.5t38 -1.5t38 1.5t32 1.5h16v-8h-1q-32 0 -41.5 -8.5t-9.5 -40.5v-567z" />
    <glyph glyph-name="J" unicode="J" horiz-adv-x="296" 
d="M207 196q0 -151 -60 -222.5t-154 -71.5q-35 0 -35 30q0 14 8.5 22.5t22.5 8.5q11 0 44 -11t49 -11q31 0 44 27.5t13 84.5v571q0 32 -9.5 40.5t-41.5 8.5h-1v8h16q11 0 32 -1.5t38 -1.5t38 1.5t32 1.5h16v-8h-1q-32 0 -41.5 -8.5t-9.5 -40.5v-428z" />
    <glyph glyph-name="K" unicode="K" horiz-adv-x="652" 
d="M652 0h-39q-5 0 -28.5 1.5t-41.5 1.5q-17 0 -41.5 -1.5t-29.5 -1.5h-39v8h11q44 0 44 27q0 12 -12 29l-189 297l-123 -147v-157q0 -32 9.5 -40.5t41.5 -8.5h1v-8h-16q-10 0 -32 1.5t-38 1.5t-38 -1.5t-32 -1.5h-16v8h1q32 0 41.5 8.5t9.5 40.5v567q0 32 -9.5 40.5
t-41.5 8.5h-1v8h16q10 0 32 -1.5t38 -1.5t38 1.5t32 1.5h16v-8h-1q-32 0 -41.5 -8.5t-9.5 -40.5v-395l117 140l-34 53q36 -1 79 0l143 170q23 27 23 49q0 32 -61 32v8h17q11 0 35.5 -1.5t36.5 -1.5q17 0 42 1.5t32 1.5h21v-8q-65 0 -138 -86l-144 -172l227 -356
q33 -51 92 -51v-8z" />
    <glyph glyph-name="L" unicode="L" horiz-adv-x="561" 
d="M558 225l-100 -256l-6 2q2 15 -5 22t-26 7h-221q-10 0 -32 0.5t-38 0.5t-38 -0.5t-32 -0.5h-16v8h1q32 0 41.5 8.5t9.5 40.5v567q0 32 -9.5 40.5t-41.5 8.5h-1v8h16q10 0 32 -1.5t38 -1.5t38 1.5t32 1.5h16v-8h-1q-32 0 -41.5 -8.5t-9.5 -40.5v-614h171q33 0 54.5 8.5
t46.5 36.5q40 45 116 173z" />
    <glyph glyph-name="M" unicode="M" horiz-adv-x="856" 
d="M760 57q0 -32 9.5 -40.5t41.5 -8.5h1v-8h-16q-10 0 -32 1.5t-38 1.5t-38 -1.5t-32 -1.5h-16v8h1q32 0 41.5 8.5t9.5 40.5v597l-251 -577l36 -77q-10 0 -21.5 0.5t-16.5 0.5q-7 0 -17 -0.5t-20 -0.5l-286 614v-483q0 -56 18.5 -89t70.5 -34h1v-8h-25q-5 0 -28.5 1.5
t-40.5 1.5q-18 0 -41.5 -1.5t-28.5 -1.5h-24v8h1q51 0 69 33t18 90v494q-24 48 -66 48h-4v8h10q12 0 27.5 -0.5t25.5 -0.5q11 0 31 0.5t30 0.5l275 -591l257 591q3 0 21 -1t34 -1q5 0 20.5 1t28.5 1h16v-8h-1q-32 0 -41.5 -8.5t-9.5 -40.5v-567z" />
    <glyph glyph-name="N" unicode="N" horiz-adv-x="690" 
d="M638 0q-11 0 -22.5 0.5t-16.5 0.5q-7 0 -21 -0.5t-23 -0.5l-437 617v-486q0 -56 18.5 -89t70.5 -34h1v-8h-25q-5 0 -28.5 1.5t-40.5 1.5q-18 0 -41.5 -1.5t-28.5 -1.5h-24v8h1q51 0 69 33t18 90v496q-2 3 -6.5 9t-6.5 8.5t-5.5 7t-6 6.5t-6 5t-7.5 4.5t-8.5 3t-10 2
t-12.5 0.5h-1v8h7q14 0 29 -0.5t24 -0.5q11 0 30 0.5t29 0.5l418 -589v458q0 57 -18 89.5t-70 33.5h-1v8h25q5 0 28.5 -1.5t40.5 -1.5q18 0 41.5 1.5t28.5 1.5h24v-8h-1q-51 0 -69.5 -33.5t-18.5 -89.5v-472z" />
    <glyph glyph-name="O" unicode="O" horiz-adv-x="658" 
d="M329 -10q-129 0 -212 100t-83 251t83 250.5t212 99.5t212 -99.5t83 -250.5t-83 -251t-212 -100zM329 -1q215 0 215 342q0 341 -215 341t-215 -341q0 -342 215 -342z" />
    <glyph glyph-name="P" unicode="P" horiz-adv-x="566" 
d="M254 0h-30q-14 0 -41.5 1.5t-47.5 1.5q-17 0 -40 -1.5t-35 -1.5h-16v8h1q32 0 41.5 8.5t9.5 40.5v567q0 32 -9.5 40.5t-41.5 8.5h-1v8h16q10 0 32 -0.5t38 -0.5q20 0 47 0.5t42 0.5h108q96 0 159 -48.5t63 -134.5q0 -87 -63 -136t-159 -49h-163v-255q0 -31 11 -40.5
t49 -9.5h30v-8zM324 323q86 0 116.5 42t30.5 133q0 90 -30.5 131.5t-116.5 41.5h-160v-348h160z" />
    <glyph glyph-name="Q" unicode="Q" horiz-adv-x="658" 
d="M448 -235q-39 0 -79 38l-59 55q-38 36 -68 36q-28 0 -105 -36l-5 8l170 125q-119 10 -193.5 108.5t-74.5 241.5q0 151 83 250.5t212 99.5t212 -99.5t83 -250.5t-83 -251t-212 -100h-13l-141 -105q74 34 120 34q37 0 66 -27l47 -44q52 -50 81 -50q21 0 41.5 15t64.5 62
l6 -5q-57 -61 -86.5 -83t-66.5 -22zM544 341q0 341 -215 341t-215 -341q0 -342 215 -342t215 342z" />
    <glyph glyph-name="R" unicode="R" horiz-adv-x="633" 
d="M625 0q-24 0 -45.5 1.5t-41.5 1.5q-11 0 -26 -1.5t-22 -1.5l-179 320h-147v-263q0 -32 9.5 -40.5t41.5 -8.5h1v-8h-16q-10 0 -32 1.5t-38 1.5t-38 -1.5t-32 -1.5h-16v8h1q32 0 41.5 8.5t9.5 40.5v567q0 32 -9.5 40.5t-41.5 8.5h-1v8h16q10 0 32 -0.5t38 -0.5q20 0 47 0.5
t42 0.5h108q95 0 159.5 -49t64.5 -132q0 -75 -60.5 -127.5t-162.5 -52.5h-4q19 -30 39.5 -41.5t55.5 -11.5l92 -165q32 -58 54 -75t60 -19v-8zM474 500q0 87 -32.5 129t-117.5 42h-160v-341h160q84 0 117 39.5t33 130.5z" />
    <glyph glyph-name="S" unicode="S" horiz-adv-x="554" 
d="M516 188q0 -63 -32.5 -109.5t-78 -67.5t-94.5 -21q-45 0 -100.5 15.5t-62.5 15.5q-36 0 -33 -33l-6 -2l-81 230l6 3q32 -60 67 -103.5t63 -65.5t58.5 -34t48.5 -14.5t39 -2.5q68 0 114.5 41t46.5 99q0 110 -165 170l-81 30q-71 26 -118.5 72.5t-47.5 114.5q0 75 54 120
t135 45q28 0 72 -9.5t55 -9.5q36 0 33 33l6 2l87 -206l-6 -3q-65 108 -125 146t-122 38q-71 0 -110.5 -35t-39.5 -87q0 -53 36.5 -87.5t118.5 -64.5l83 -31q180 -66 180 -189z" />
    <glyph glyph-name="T" unicode="T" horiz-adv-x="640" 
d="M406 8v-8h-16q-10 0 -32 1.5t-38 1.5t-38 -1.5t-32 -1.5h-16v8h1q32 0 41.5 8.5t9.5 40.5v614h-88q-29 0 -43.5 -6t-33.5 -30q-38 -48 -106 -179l-6 3l76 253l6 -1q0 -30 36 -30h110q7 0 34.5 -0.5t48.5 -0.5t48.5 0.5t34.5 0.5h110q36 0 36 30l6 1l76 -253l-6 -3
q-68 131 -106 179q-19 24 -33.5 30t-43.5 6h-88v-614q0 -32 9.5 -40.5t41.5 -8.5h1z" />
    <glyph glyph-name="U" unicode="U" horiz-adv-x="620" 
d="M533 211q0 -100 -57 -159.5t-156 -59.5q-240 0 -240 220v412q0 32 -9.5 40.5t-41.5 8.5h-1v8h16q10 0 32 -1.5t38 -1.5t38 1.5t32 1.5h16v-8h-1q-32 0 -41.5 -8.5t-9.5 -40.5v-371q0 -132 42.5 -190.5t140.5 -58.5q86 0 139 56.5t53 150.5v339q0 57 -18 89.5t-70 33.5h-1
v8h25q5 0 28.5 -1.5t40.5 -1.5q18 0 41.5 1.5t28.5 1.5h24v-8h-1q-51 0 -69.5 -33.5t-18.5 -89.5v-339z" />
    <glyph glyph-name="V" unicode="V" horiz-adv-x="617" 
d="M519 559l-169 -479l31 -80q-9 0 -19.5 0.5t-17.5 0.5q-6 0 -15.5 -0.5t-20.5 -0.5l-250 622q-12 28 -27.5 39.5t-41.5 11.5h-1v8h21q6 0 32 -1.5t42 -1.5q18 0 44 1.5t31 1.5h21v-8h-1q-52 0 -52 -30q0 -9 6 -24l212 -527l165 469q14 42 14 59q0 53 -71 53v8h12
q11 0 41 -1.5t43 -1.5q7 0 34.5 1.5t35.5 1.5h21v-8q-42 -2 -70.5 -27.5t-49.5 -86.5z" />
    <glyph glyph-name="W" unicode="W" horiz-adv-x="976" 
d="M751 0q-9 0 -20 0.5t-17 0.5t-15 -0.5t-20 -0.5l-191 554l-151 -474l29 -80q-9 0 -19.5 0.5t-17.5 0.5q-6 0 -15.5 -0.5t-20.5 -0.5l-231 622q-20 51 -69 51v8h21q6 0 31 -1.5t41 -1.5q18 0 45 1.5t32 1.5h21v-8q-53 0 -53 -30q0 -11 5 -24l195 -524l151 476l-18 52
q-10 29 -26.5 39.5t-42.5 10.5v8h21q6 0 33 -1.5t43 -1.5q18 0 42.5 1.5t29.5 1.5h21v-8q-53 0 -53 -30q0 -11 5 -24l180 -519l146 461q14 44 14 59q0 53 -71 53v8h12q11 0 41 -1.5t43 -1.5q7 0 34.5 1.5t35.5 1.5h21v-8q-85 -3 -120 -114l-150 -476z" />
    <glyph glyph-name="X" unicode="X" horiz-adv-x="632" 
d="M627 0h-39q-4 0 -27 1.5t-40 1.5t-42 -1.5t-31 -1.5h-39v8q56 0 56 27q0 13 -11 30l-155 249l-142 -197q-29 -40 -29 -66q0 -43 60 -43h1v-8h-13q-11 0 -40 1.5t-41 1.5q-7 0 -34.5 -1.5t-36.5 -1.5h-19v8h1q29 0 56 18.5t41.5 36t45.5 60.5l144 200l-186 298
q-32 52 -90 52v8h39q4 0 27.5 -1.5t40.5 -1.5q18 0 43 1.5t30 1.5h39v-8q-56 0 -56 -27q0 -13 11 -30l149 -240l126 188q29 44 29 66q0 43 -60 43h-1v8h13q11 0 40 -1.5t41 -1.5q7 0 34.5 1.5t36.5 1.5h19v-8h-1q-42 -1 -73.5 -29t-69.5 -86l-128 -191l191 -307
q32 -52 90 -52v-8z" />
    <glyph glyph-name="Y" unicode="Y" horiz-adv-x="593" 
d="M339 57q0 -32 9.5 -40.5t41.5 -8.5h1v-8h-16q-11 0 -32 1.5t-38 1.5t-38 -1.5t-32 -1.5h-16v8h1q32 0 41.5 8.5t9.5 40.5v253l-202 313q-18 27 -36 38.5t-45 11.5v8h29q5 0 28 -1.5t41 -1.5q17 0 42 1.5t30 1.5h34v-8q-29 0 -40 -5.5t-11 -19.5q0 -12 10 -29l183 -282
l139 227q26 43 26 63q0 46 -64 46h-1v8h13q11 0 39.5 -1.5t41.5 -1.5q7 0 35 1.5t36 1.5h19v-8h-1q-42 -1 -71 -29t-66 -88l-141 -229v-270z" />
    <glyph glyph-name="Z" unicode="Z" horiz-adv-x="586" 
d="M567 212l-95 -243l-6 2q2 14 -5 21.5t-26 7.5h-411v4l445 667h-209q-61 0 -96 -39q-42 -46 -116 -156l-6 3l95 234l6 -2q-2 -14 5.5 -22t27.5 -8h376v-4l-445 -667h244q33 0 53.5 8.5t45.5 36.5q48 54 111 160z" />
    <glyph glyph-name="bracketleft" unicode="[" horiz-adv-x="275" 
d="M85 -174v901q60 -3 165 -3v-9l-150 -3q51 -196 51 -436q0 -239 -51 -435q75 -3 150 -3v-9q-105 0 -165 -3z" />
    <glyph glyph-name="backslash" unicode="\" horiz-adv-x="351" 
d="M321 -172l-300 893l9 3l300 -893z" />
    <glyph glyph-name="bracketright" unicode="]" horiz-adv-x="275" 
d="M190 727v-901q-60 3 -165 3v9l150 3q-51 196 -51 435q0 240 51 436q-75 3 -150 3v9q105 0 165 3z" />
    <glyph glyph-name="asciicircum" unicode="^" horiz-adv-x="450" 
d="M402 321l-9 -4l-168 374l-168 -374l-9 4l173 384h8z" />
    <glyph glyph-name="underscore" unicode="_" horiz-adv-x="442" 
d="M432 -88h-422v10h422v-10z" />
    <glyph glyph-name="grave" unicode="`" horiz-adv-x="233" 
d="M184 546l-6 -4q-27 37 -68.5 76.5t-53.5 57.5q-6 9 -6 20q0 12 8 20t21 8q15 0 26 -15q13 -20 35.5 -73t43.5 -90z" />
    <glyph glyph-name="a" unicode="a" horiz-adv-x="500" 
d="M403 -8q-30 0 -45.5 19t-15.5 47q-78 -66 -158 -66q-62 0 -98 34t-36 93q0 60 44 101t119 71l129 52v78q0 39 -10 54t-41 15q-51 0 -88.5 -26t-77.5 -75q-14 -17 -29 -17q-10 0 -18 7.5t-8 18.5q0 31 69.5 65.5t152.5 34.5q116 0 116 -91v-362q0 -35 24 -35q25 0 46 36
l5 -3q-27 -51 -80 -51zM193 3q33 0 75 19t74 46v18v248l-126 -52q-54 -23 -72 -61.5t-18 -99.5q0 -118 67 -118z" />
    <glyph glyph-name="b" unicode="b" horiz-adv-x="526" 
d="M479 245q0 -68 -17 -119.5t-45 -79.5t-58.5 -41t-63.5 -13q-82 0 -156 67q-51 -34 -56 -69h-6v635q0 32 -9.5 40.5t-44.5 8.5h-1v7h6q33 0 68 13t41 30h6v-290q74 64 152 64q33 0 63.5 -13t58.5 -41t45 -79.5t17 -119.5zM403 245q0 76 -8 126t-24 75t-33.5 34t-42.5 9
q-78 0 -152 -67v-354q74 -67 152 -67q25 0 42.5 9t33.5 34t24 75t8 126z" />
    <glyph glyph-name="c" unicode="c" horiz-adv-x="472" 
d="M252 -8q-84 0 -147 68t-63 177q0 119 64 190t151 71q69 0 120 -43t51 -88q0 -12 -7.5 -20t-19.5 -8q-20 0 -27 20q-1 3 -8 35q-20 96 -110 96q-67 0 -102.5 -59t-35.5 -155q0 -123 45.5 -192.5t113.5 -69.5q107 0 149 126l6 -2q-47 -146 -180 -146z" />
    <glyph glyph-name="d" unicode="d" horiz-adv-x="539" 
d="M231 -8q-33 0 -63.5 13t-58.5 41t-45 79.5t-17 119.5t17 119.5t45 79.5t58.5 41t63.5 13q78 0 152 -64v191q0 32 -9.5 40.5t-44.5 8.5h-1v7h6q33 0 68 13t41 30h6v-667q0 -32 9.5 -41t44.5 -9h1v-7h-14q-12 0 -34.5 1t-39.5 1q-9 0 -19.5 -1t-13.5 -1v56
q-74 -64 -152 -64zM231 1q78 0 152 67v354q-74 67 -152 67q-25 0 -42.5 -9t-33.5 -34t-24 -75t-8 -126t8 -126t24 -75t33.5 -34t42.5 -9z" />
    <glyph glyph-name="e" unicode="e" horiz-adv-x="478" 
d="M252 -8q-84 0 -147 67.5t-63 176.5q0 120 64 191t151 71q71 0 125.5 -49.5t50.5 -132.5h-314q-1 -15 -1 -45q0 -109 43.5 -183t115.5 -74q107 0 149 126l6 -2q-47 -146 -180 -146zM365 325q-3 165 -113 165q-56 0 -90 -46t-42 -119h245z" />
    <glyph glyph-name="f" unicode="f" horiz-adv-x="302" 
d="M329 646q-6 0 -33 2t-37 2q-59 0 -81 -32.5t-22 -115.5v-12h158v-9h-158v-424q0 -31 14 -40.5t51 -9.5h14v-7h-23q-14 0 -41 1.5t-48 1.5q-17 0 -40 -1.5t-34 -1.5h-14v7h1q35 0 44.5 9t9.5 41v350q0 44 5 74h-73v9h75q15 59 44 100q35 50 88 79.5t100 29.5q30 0 30 -26
q0 -27 -30 -27z" />
    <glyph glyph-name="g" unicode="g" horiz-adv-x="518" 
d="M245 -234q-106 0 -168 33t-62 76q0 75 154 111q-121 16 -121 76q0 18 10 32.5t29 26.5t35.5 19t41.5 16q-47 20 -75.5 62.5t-28.5 99.5q0 78 53 129t132 51q69 0 117 -37q53 69 106 69q38 0 38 -27q0 -12 -7.5 -19t-18.5 -7q-12 0 -29 7.5t-32 7.5q-23 0 -51 -36
q62 -52 62 -138q0 -78 -53 -128.5t-132 -50.5q-38 0 -71 12q-41 -13 -61.5 -27t-20.5 -35q0 -36 102 -47l123 -13q171 -18 171 -125q0 -66 -72.5 -102t-170.5 -36zM245 147q115 0 115 171q0 172 -115 172t-115 -172q0 -171 115 -171zM245 -226q89 0 143 29t54 80
q0 71 -138 87l-117 13q-115 -30 -115 -104q0 -44 46 -74.5t127 -30.5z" />
    <glyph glyph-name="h" unicode="h" horiz-adv-x="539" 
d="M451 428v-371q0 -32 9.5 -41t44.5 -9h1v-7h-14q-12 0 -34 1.5t-40 1.5t-40 -1.5t-34 -1.5h-14v7h1q35 0 44.5 9t9.5 41v374q0 48 -35 48q-20 0 -85 -24l-109 -42v-356q0 -32 9.5 -41t44.5 -9h1v-7h-14q-11 0 -34 1.5t-40 1.5t-40 -1.5t-34 -1.5h-14v7h1q35 0 44.5 9
t9.5 41v568q0 32 -9.5 40.5t-44.5 8.5h-1v7h6q33 0 68 13t41 30h6v-302l106 41q89 35 127 35q62 0 62 -70z" />
    <glyph glyph-name="i" unicode="i" horiz-adv-x="254" 
d="M131 592q-20 0 -34 13.5t-14 34.5t14 35t34 14t34.5 -14t14.5 -35t-14 -34.5t-35 -13.5zM219 0h-14q-11 0 -34 1.5t-40 1.5t-40 -1.5t-34 -1.5h-14v7h1q35 0 44.5 9t9.5 41v342q0 32 -9.5 40.5t-44.5 8.5h-1v7h6q33 0 68 13t41 30h6v-441q0 -32 9.5 -41t44.5 -9h1v-7z
" />
    <glyph glyph-name="j" unicode="j" horiz-adv-x="241" 
d="M131 592q-20 0 -34 13.5t-14 34.5t14 35t34 14t34.5 -14t14.5 -35t-14 -34.5t-35 -13.5zM-24 -236q-13 0 -22 7t-9 19q0 26 29 26q12 0 37 -5t33 -5q54 0 54 85v508q0 32 -9.5 40.5t-44.5 8.5h-1v7h6q33 0 68 13t41 30h6v-459q0 -106 -46 -184q-54 -91 -142 -91z" />
    <glyph glyph-name="k" unicode="k" horiz-adv-x="525" 
d="M370 397l-77 -80l163 -265q17 -27 30 -36t38 -9h1v-7h-12q-5 0 -29 1.5t-43 1.5t-42 -1.5t-28 -1.5h-24v7h1q43 0 43 18q0 7 -6 17l-139 226l-90 -93v-118q0 -32 9.5 -41t44.5 -9h1v-7h-14q-11 0 -34 1.5t-40 1.5t-40 -1.5t-34 -1.5h-14v7h1q35 0 44.5 9t9.5 41v568
q0 32 -9.5 40.5t-44.5 8.5h-1v7h6q33 0 68 13t41 30h6v-537l85 88l-26 43h68l80 83q30 31 30 51q0 31 -48 31h-1v7h13q11 0 32 -1.5t39 -1.5t39.5 1.5t32.5 1.5h14v-7h-1q-59 0 -143 -86z" />
    <glyph glyph-name="l" unicode="l" horiz-adv-x="246" 
d="M156 57q0 -32 9.5 -41t44.5 -9h1v-7h-14q-11 0 -34 1.5t-40 1.5t-40 -1.5t-34 -1.5h-14v7h1q35 0 44.5 9t9.5 41v568q0 32 -9.5 40.5t-44.5 8.5h-1v7h6q33 0 68 13t41 30h6v-667z" />
    <glyph glyph-name="m" unicode="m" horiz-adv-x="822" 
d="M789 0h-14q-11 0 -34 1.5t-40 1.5t-40 -1.5t-34 -1.5h-14v7h1q35 0 44.5 9t9.5 41v374q0 48 -35 48q-18 0 -83 -26l-101 -40v-356q0 -32 9.5 -41t44.5 -9h1v-7h-14q-12 0 -34 1.5t-40 1.5t-40 -1.5t-34 -1.5h-14v7h1q35 0 44.5 9t9.5 41v374q0 48 -35 48q-18 0 -83 -26
l-101 -40v-356q0 -32 9.5 -41t44.5 -9h1v-7h-14q-11 0 -34 1.5t-40 1.5t-40 -1.5t-34 -1.5h-14v7h1q35 0 44.5 9t9.5 41v342q0 32 -9.5 40.5t-44.5 8.5h-1v7h6q33 0 68 13t41 30h6v-76l98 39q91 37 125 37q27 0 44.5 -15t17.5 -61l98 39q91 37 125 37q62 0 62 -70v-371
q0 -32 9.5 -41t44.5 -9h1v-7z" />
    <glyph glyph-name="n" unicode="n" horiz-adv-x="547" 
d="M514 0h-14q-12 0 -34 1.5t-40 1.5t-40 -1.5t-34 -1.5h-14v7h1q35 0 44.5 9t9.5 41v374q0 48 -35 48q-20 0 -85 -24l-109 -42v-356q0 -32 9.5 -41t44.5 -9h1v-7h-14q-11 0 -34 1.5t-40 1.5t-40 -1.5t-34 -1.5h-14v7h1q35 0 44.5 9t9.5 41v342q0 32 -9.5 40.5t-44.5 8.5h-1
v7h6q33 0 68 13t41 30h6v-76l106 41q89 35 127 35q62 0 62 -70v-371q0 -32 9.5 -41t44.5 -9h1v-7z" />
    <glyph glyph-name="o" unicode="o" horiz-adv-x="512" 
d="M256 -8q-89 0 -151.5 73t-62.5 180t62.5 180t151.5 73t151.5 -73t62.5 -180t-62.5 -180t-151.5 -73zM256 0q33 0 56.5 10t43 36t29 75.5t9.5 123.5t-9.5 123.5t-29 75.5t-43 36t-56.5 10t-56.5 -10t-43 -36t-29 -75.5t-9.5 -123.5t9.5 -123.5t29 -75.5t43 -36t56.5 -10z
" />
    <glyph glyph-name="p" unicode="p" horiz-adv-x="539" 
d="M156 56v-225q0 -31 14 -40.5t51 -9.5h14v-7h-23q-14 0 -41 1.5t-48 1.5q-17 0 -40 -1.5t-34 -1.5h-14v7h1q35 0 44.5 9t9.5 41v568q0 32 -9.5 40.5t-44.5 8.5h-1v7h6q33 0 68 13t41 30h6v-64q74 64 152 64q33 0 63.5 -13t58.5 -41t45 -79.5t17 -119.5t-17 -119.5
t-45 -79.5t-58.5 -41t-63.5 -13q-78 0 -152 64zM308 1q25 0 42.5 9t33.5 34t24 75t8 126t-8 126t-24 75t-33.5 34t-42.5 9q-78 0 -152 -67v-354q74 -67 152 -67z" />
    <glyph glyph-name="q" unicode="q" horiz-adv-x="526" 
d="M47 245q0 68 17 119.5t45 79.5t58.5 41t63.5 13q82 0 156 -67q51 34 56 69h6v-669q0 -32 9.5 -41t44.5 -9h1v-7h-14q-12 0 -34.5 2t-39.5 2q-18 0 -40 -2t-34 -2h-28v7h14q35 0 45 9t10 41v225q-74 -64 -152 -64q-33 0 -63.5 13t-58.5 41t-45 79.5t-17 119.5zM123 245
q0 -76 8 -126t24 -75t33.5 -34t42.5 -9q78 0 152 67v354q-74 67 -152 67q-25 0 -42.5 -9t-33.5 -34t-24 -75t-8 -126z" />
    <glyph glyph-name="r" unicode="r" horiz-adv-x="354" 
d="M242 0h-23q-15 0 -42 1.5t-47 1.5q-18 0 -40 -1.5t-34 -1.5h-14v7h1q35 0 44.5 9t9.5 41v342q0 32 -9.5 40.5t-44.5 8.5h-1v7h6q33 0 68 13t41 30h6v-115q35 53 74 86q35 29 76 29q40 0 40 -26q0 -27 -39 -27q-9 0 -30.5 4.5t-32.5 4.5q-33 0 -88 -84v-313
q0 -31 14 -40.5t51 -9.5h14v-7z" />
    <glyph glyph-name="s" unicode="s" horiz-adv-x="451" 
d="M245 -8q-28 0 -67 10t-58 10q-11 0 -18 -5.5t-6 -14.5l-6 -2l-50 172l6 2q78 -164 200 -164q59 0 91 29t32 73q0 69 -112 112l-81 31q-107 41 -107 133q0 53 35 86.5t95 33.5q26 0 60.5 -8.5t48.5 -8.5q12 0 19 5t6 15l6 2l50 -168l-6 -2q-70 157 -184 157q-51 0 -76 -23
t-25 -54q0 -32 25 -57t83 -48l80 -31q59 -23 88 -55t29 -80q0 -70 -45 -110t-113 -40z" />
    <glyph glyph-name="t" unicode="t" horiz-adv-x="279" 
d="M164 -8q-76 0 -76 83v406h-68v9h68v79q27 0 43.5 17.5t16.5 42.5v1h6v-140h101v-9h-101v-417q0 -52 37 -52q16 0 33 14t28 35l6 -3q-13 -27 -38 -46.5t-56 -19.5z" />
    <glyph glyph-name="u" unicode="u" horiz-adv-x="534" 
d="M499 0h-14q-11 0 -34 1t-40 1q-9 0 -19.5 -1t-13.5 -1v68l-101 -41q-87 -35 -127 -35q-62 0 -62 70v337q0 32 -9.5 40.5t-44.5 8.5h-1v7h6q33 0 68 13t41 30h6v-439q0 -48 35 -48q25 0 85 24l104 42v322q0 32 -9.5 40.5t-44.5 8.5h-1v7h6q33 0 68 13t41 30h6v-441
q0 -32 9.5 -41t44.5 -9h1v-7z" />
    <glyph glyph-name="v" unicode="v" horiz-adv-x="465" 
d="M269 75l28 -75q-10 0 -20.5 0.5t-15.5 0.5q-6 0 -17 -0.5t-19 -0.5l-163 433q-11 30 -25.5 40t-42.5 10v7h23q6 0 27.5 -1.5t40.5 -1.5t40.5 1.5t26.5 1.5h24v-7q-50 0 -50 -24q0 -6 3 -15l135 -357l110 309q8 21 8 40q0 47 -66 47v7h10q12 0 35 -1.5t37 -1.5
q15 0 38 1.5t31 1.5h17v-7q-41 -1 -64 -24.5t-38 -66.5z" />
    <glyph glyph-name="w" unicode="w" horiz-adv-x="752" 
d="M585 0q-10 0 -20.5 0.5t-15.5 0.5q-6 0 -17 -0.5t-19 -0.5l-139 370l-105 -295l28 -75q-10 0 -20 0.5t-15 0.5q-6 0 -17.5 -0.5t-19.5 -0.5l-163 433q-11 30 -25.5 40t-42.5 10v7h23q6 0 27.5 -1.5t40.5 -1.5t40.5 1.5t26.5 1.5h24v-7q-50 0 -50 -24q0 -6 3 -15l135 -357
l105 295l-19 51q-11 30 -25.5 40t-42.5 10v7h23q6 0 27 -1.5t40 -1.5t41 1.5t27 1.5h24v-7q-50 0 -50 -24q0 -7 3 -15l135 -357l110 309q8 21 8 40q0 47 -66 47v7h10q12 0 35 -1.5t38 -1.5t37.5 1.5t30.5 1.5h17v-7q-41 -1 -64 -24.5t-38 -66.5l-113 -317z" />
    <glyph glyph-name="x" unicode="x" horiz-adv-x="485" 
d="M480 0h-26q-6 0 -28 1.5t-41 1.5t-40 -1.5t-26 -1.5h-24v7q47 0 47 22q0 8 -6 17l-114 175l-92 -135q-16 -24 -16 -42q0 -19 11 -28t44 -9h1v-7h-10q-12 0 -35 1.5t-37 1.5q-15 0 -36.5 -1.5t-29.5 -1.5h-17v7h1q60 0 116 83l94 138l-126 196q-38 59 -79 59v7h26
q6 0 28 -1.5t41 -1.5t40 1.5t26 1.5h24v-7q-47 0 -47 -22q0 -8 6 -17l107 -165l82 125q16 24 16 42q0 19 -11 28t-44 9h-1v7h10q12 0 35 -1.5t37 -1.5q15 0 36.5 1.5t29.5 1.5h17v-7h-1q-62 0 -116 -83l-84 -128l133 -206q38 -59 79 -59v-7z" />
    <glyph glyph-name="y" unicode="y" horiz-adv-x="465" 
d="M297 0q-9 0 -20 0.5t-16 0.5q-3 0 -12 -0.5t-14 -0.5l-20 -45q-26 -58 -39.5 -84.5t-35 -56t-45.5 -40t-57 -10.5q-41 0 -41 27q0 12 8 18.5t20 6.5q11 0 36.5 -6.5t35.5 -6.5q26 0 47.5 31.5t62.5 123.5l19 42l-164 434q-11 29 -25.5 39t-42.5 10v7h23q6 0 27.5 -1.5
t40.5 -1.5t40.5 1.5t26.5 1.5h24v-7q-50 0 -50 -24q0 -6 3 -15l135 -357l110 309q8 21 8 40q0 47 -66 47v7h10q12 0 35 -1.5t37 -1.5q15 0 38 1.5t31 1.5h17v-7q-40 -1 -63 -24.5t-39 -66.5l-113 -317z" />
    <glyph glyph-name="z" unicode="z" horiz-adv-x="446" 
d="M359 -21l-6 1q0 12 -9.5 16t-31.5 4h-280v4l299 478h-120q-33 0 -50.5 -6.5t-36.5 -25.5q-43 -43 -88 -113l-5 3l68 171l6 -1q0 -12 9.5 -16t31.5 -4h261v-4l-300 -478h135q41 0 59.5 8.5t46.5 37.5q30 31 79 105l5 -3z" />
    <glyph glyph-name="braceleft" unicode="{" horiz-adv-x="292" 
d="M170 -62q0 -48 20.5 -68.5t81.5 -35.5l-2 -8q-87 21 -122.5 52t-35.5 105q0 33 5 94.5t5 77.5q0 57 -16 85t-66 30v10q50 2 66 30t16 85q0 16 -5 77.5t-5 94.5q0 74 35.5 105t122.5 52l2 -8q-61 -15 -81.5 -35.5t-20.5 -68.5q0 -21 5 -100.5t5 -102.5q0 -59 -25.5 -93
t-92.5 -41q67 -7 92.5 -41t25.5 -93q0 -23 -5 -102.5t-5 -100.5z" />
    <glyph glyph-name="bar" unicode="|" horiz-adv-x="210" 
d="M110 -217h-10v987h10v-987z" />
    <glyph glyph-name="braceright" unicode="}" horiz-adv-x="292" 
d="M122 -62q0 21 -5 100.5t-5 102.5q0 59 25.5 93t92.5 41q-67 7 -92.5 41t-25.5 93q0 23 5 102.5t5 100.5q0 48 -20.5 68.5t-81.5 35.5l2 8q87 -21 122.5 -52t35.5 -105q0 -33 -5 -94.5t-5 -77.5q0 -57 16 -85t66 -30v-10q-50 -2 -66 -30t-16 -85q0 -16 5 -77.5t5 -94.5
q0 -74 -35.5 -105t-122.5 -52l-2 8q61 15 81.5 35.5t20.5 68.5z" />
    <glyph glyph-name="asciitilde" unicode="~" horiz-adv-x="531" 
d="M379 282q-43 0 -115.5 31t-111.5 31q-60 0 -98 -58l-9 5q15 24 43 43.5t64 19.5q43 0 115.5 -31t111.5 -31q60 0 98 58l9 -5q-15 -24 -43 -43.5t-64 -19.5z" />
    <glyph glyph-name="exclamdown" unicode="&#xa1;" horiz-adv-x="241" 
d="M120 498q21 0 36.5 -15t15.5 -37t-15.5 -37t-36.5 -15t-36.5 15t-15.5 37t15.5 37t36.5 15zM115 284h10v-43q0 -63 16.5 -203.5t16.5 -187.5q0 -48 -38 -48q-17 0 -27 12.5t-10 35.5q0 46 16 187t16 204v43z" />
    <glyph glyph-name="cent" unicode="&#xa2;" horiz-adv-x="500" 
d="M265 -8q-54 0 -101 30l-55 -165l-9 3l55 167q-46 31 -73 85.5t-27 124.5q0 119 64 190t151 71q18 0 40 -5l46 138l9 -3l-46 -137q52 -14 87 -51.5t35 -72.5q0 -12 -7.5 -20t-19.5 -8q-20 0 -27 20q-1 3 -8 35q-14 68 -63 87l-134 -405q42 -62 108 -62q107 0 149 126l6 -2
q-47 -146 -180 -146zM131 276q0 -118 44 -190l132 398q-17 6 -38 6q-67 0 -102.5 -59t-35.5 -155z" />
    <glyph glyph-name="sterling" unicode="&#xa3;" horiz-adv-x="586" 
d="M425 -8q-13 0 -25.5 2t-27 7.5t-23.5 8.5t-26.5 13t-23 13t-26 15.5t-23.5 14.5q-48 -76 -134 -76q-34 0 -57.5 18.5t-23.5 50.5q0 33 28 54.5t75 21.5q42 0 112 -27q3 16 3 35q0 73 -44 168h-133v10h129q-32 66 -47 110t-15 91q0 74 58 121.5t128 47.5q63 0 123 -39.5
t60 -93.5q0 -14 -8 -22.5t-21 -8.5q-18 0 -26 12t-15 43q-12 52 -38 76t-75 24q-56 0 -86.5 -33.5t-30.5 -85.5q0 -27 6 -60.5t13 -55.5t20.5 -64.5t19.5 -61.5h177v-10h-175q16 -60 16 -102q0 -58 -20 -108q7 -3 28.5 -11t31 -11.5t28 -10t30.5 -9t27.5 -5t29.5 -2.5
q83 0 83 92q0 51 -30 91l7 6q19 -25 28 -59t9 -55q0 -62 -32 -98.5t-84 -36.5zM116 0q38 0 72 18.5t51 54.5q-77 46 -124 46q-30 0 -50 -16.5t-20 -43.5t20 -43t51 -16z" />
    <glyph glyph-name="currency" unicode="&#xa4;" horiz-adv-x="664" 
d="M331 110q-102 0 -167 59l-111 -110l-7 7l111 110q-63 63 -63 166q0 104 65 167l-111 113l7 7l112 -113q65 59 164 59q101 0 167 -61l113 113l7 -7l-113 -112q64 -66 64 -166q0 -102 -64 -166l111 -112l-7 -7l-112 112q-65 -59 -166 -59zM331 119q99 0 163.5 60.5
t64.5 162.5q0 101 -65 162.5t-163 61.5t-162.5 -61.5t-64.5 -162.5q0 -102 64.5 -162.5t162.5 -60.5z" />
    <glyph glyph-name="yen" unicode="&#xa5;" horiz-adv-x="601" 
d="M389 0h-13q-12 0 -34 1.5t-39 1.5t-40 -1.5t-34 -1.5h-12v8h1q34 0 42.5 9.5t8.5 42.5v98h-156v10h156v93h-156v10h156v47l-183 305q-29 50 -81 50v8h29q5 0 28 -1.5t41 -1.5q17 0 42.5 1.5t30.5 1.5h34v-8q-29 0 -40 -5.5t-11 -19.5q0 -12 10 -29l162 -274l120 219
q26 48 26 65q0 44 -64 44h-1v8h13q11 0 39.5 -1.5t41.5 -1.5q7 0 35 1.5t36 1.5h19v-8h-1q-73 -1 -137 -117l-121 -220v-65h156v-10h-156v-93h156v-10h-156v-98q0 -33 8.5 -42.5t42.5 -9.5h1v-8z" />
    <glyph glyph-name="brokenbar" unicode="&#xa6;" horiz-adv-x="210" 
d="M110 342h-10v428h10v-428zM110 -217h-10v438h10v-438z" />
    <glyph glyph-name="section" unicode="&#xa7;" horiz-adv-x="509" 
d="M177 -155q-84 0 -84 41q0 13 9 22.5t25 9.5q14 0 52 -18t71 -18q41 0 66 23t25 61q0 23 -11.5 48t-24 41t-42.5 52l-125 147q-45 52 -61.5 83.5t-16.5 67.5q0 82 72 138q11 65 69.5 105.5t130.5 40.5q84 0 84 -41q0 -13 -9 -22.5t-25 -9.5q-14 0 -52 18t-71 18
q-41 0 -66 -23t-25 -61q0 -23 11.5 -48t24 -41t42.5 -52l125 -147q45 -52 61.5 -83.5t16.5 -67.5q0 -82 -72 -138q-11 -65 -69.5 -105.5t-130.5 -40.5zM415 77q0 34 -16 60t-64 82l-133 155q-38 44 -54.5 78t-16.5 80q-37 -34 -37 -75q0 -34 16 -60t64 -82l133 -155
q38 -44 54.5 -78t16.5 -80q37 34 37 75z" />
    <glyph glyph-name="dieresis" unicode="&#xa8;" horiz-adv-x="401" 
d="M152 628q0 -19 -13 -31.5t-32 -12.5q-18 0 -31 12.5t-13 31.5t13 32t31 13q19 0 32 -13t13 -32zM341 628q0 -18 -13.5 -31t-31.5 -13q-19 0 -31.5 12.5t-12.5 31.5t12.5 32t31.5 13q18 0 31.5 -13t13.5 -32z" />
    <glyph glyph-name="copyright" unicode="&#xa9;" horiz-adv-x="792" 
d="M396 -9q-147 0 -246.5 96t-99.5 253q0 156 99.5 252.5t246.5 96.5q146 0 246 -97t100 -252q0 -157 -100 -253t-246 -96zM396 1q143 0 239.5 93.5t96.5 245.5q0 151 -96.5 245t-239.5 94t-239.5 -94t-96.5 -245q0 -153 96 -246t240 -93zM397 127q-78 0 -134 61t-56 148
q0 103 57.5 157t124.5 54q21 0 47.5 -5.5t34.5 -5.5q25 0 22 23l6 2l64 -138l-6 -4q-50 60 -88 89.5t-81 29.5q-52 0 -86.5 -41.5t-34.5 -121.5q0 -90 47 -151t117 -61q40 0 78 20.5t60 59.5l7 -4q-23 -47 -72.5 -79.5t-106.5 -32.5z" />
    <glyph glyph-name="ordfeminine" unicode="&#xaa;" horiz-adv-x="378" 
d="M280 361q-41 0 -46 39q-47 -39 -93 -39q-43 0 -67 23t-24 63q0 68 98 108l85 34v49q0 25 -5.5 34t-25.5 9q-52 0 -99 -62q-11 -15 -24 -15q-8 0 -13.5 6t-5.5 14q0 21 46.5 43.5t98.5 22.5q44 0 62.5 -17.5t18.5 -52.5v-209q0 -31 19 -31q11 0 17 15l6 -2q-9 -32 -48 -32
zM157 373q31 0 76 37v26v144l-69 -28q-33 -14 -45.5 -36.5t-12.5 -58.5q0 -84 51 -84zM328 291h-276v9h276v-9z" />
    <glyph glyph-name="guillemotleft" unicode="&#xab;" horiz-adv-x="502" 
d="M276 74l-5 -5q-25 26 -79 71t-94.5 76.5t-47.5 36.5q7 5 47.5 36.5t94.5 76.5t79 71l5 -5q-41 -48 -134 -179q93 -131 134 -179zM433 74l-5 -5q-25 26 -79 71t-94.5 76.5t-47.5 36.5q7 5 47.5 36.5t94.5 76.5t79 71l5 -5q-18 -21 -41.5 -51.5t-39.5 -53t-34.5 -48
t-18.5 -26.5t18.5 -26.5t34.5 -48t39.5 -53t41.5 -51.5z" />
    <glyph glyph-name="logicalnot" unicode="&#xac;" horiz-adv-x="506" 
d="M461 107h-10v213h-406v10h416v-223z" />
    <glyph glyph-name="uni00AD" unicode="&#xad;" horiz-adv-x="303" 
d="M238 262h-173v39h173v-39z" />
    <glyph glyph-name="registered" unicode="&#xae;" horiz-adv-x="520" 
d="M260 304q-89 0 -149.5 58.5t-60.5 151.5t60.5 151.5t149.5 58.5t149.5 -58.5t60.5 -151.5t-60.5 -151.5t-149.5 -58.5zM260 314q84 0 142 55.5t58 144.5t-58 144.5t-142 55.5t-142 -55.5t-58 -144.5t58 -144.5t142 -55.5zM388 394q-9 0 -21.5 0.5t-20.5 0.5l-24 -1
l-54 109h-49v-84q0 -11 5.5 -14.5t24.5 -3.5v-7h-16q-4 0 -14.5 0.5t-16.5 0.5t-16.5 -0.5t-14.5 -0.5h-16v7q19 0 24 3t5 15v190q0 11 -5 14t-24 3v7h16q4 0 14.5 -0.5t16.5 -0.5t16.5 0.5t14.5 0.5h46q40 0 62.5 -17t22.5 -48q0 -28 -20 -46.5t-64 -18.5h-4q10 -18 32 -18
h11l24 -51q11 -22 19 -27.5t26 -5.5v-7zM329 568q0 28 -11 42.5t-41 14.5h-58v-114h60q50 0 50 57z" />
    <glyph glyph-name="macron" unicode="&#xaf;" horiz-adv-x="360" 
d="M300 608h-240v22h240v-22z" />
    <glyph glyph-name="degree" unicode="&#xb0;" horiz-adv-x="314" 
d="M274 573q0 -53 -34 -85.5t-83 -32.5t-83 32.5t-34 85.5t34 85.5t83 32.5t83 -32.5t34 -85.5zM264 573q0 48 -31.5 78.5t-75.5 30.5t-75.5 -30.5t-31.5 -78.5t31.5 -78.5t75.5 -30.5t75.5 30.5t31.5 78.5z" />
    <glyph glyph-name="plusminus" unicode="&#xb1;" horiz-adv-x="490" 
d="M45 370v10h195v165h10v-165h195v-10h-195v-169h-10v169h-195zM45 111v10h400v-10h-400z" />
    <glyph glyph-name="uni00B2" unicode="&#xb2;" 
d="M238 620q0 -18 -6.5 -34t-22.5 -34t-28 -29t-38 -33t-37 -32l-19 -17h156l-16 -76l-6 1q2 31 -27 31h-160v4l61 60q87 87 87 159q0 62 -36 62q-32 0 -48 -48q-9 -27 -27 -27q-21 0 -21 21t28 41t72 20q39 0 63.5 -17.5t24.5 -51.5z" />
    <glyph glyph-name="uni00B3" unicode="&#xb3;" 
d="M254 481q0 -40 -33 -66t-74 -26q-50 0 -81 22.5t-31 53.5q0 9 6 16t15 7q21 0 26 -25q8 -37 22.5 -51.5t42.5 -14.5t39.5 20t11.5 62q0 73 -33 73q-9 0 -21 -6l-33 -16l-3 7l41 20q30 15 30 68q0 57 -36 57q-31 0 -47 -48q-9 -27 -27 -27q-21 0 -21 21q0 20 28 40.5
t70 20.5q39 0 63 -15.5t24 -44.5q0 -22 -20 -41.5t-48 -28.5q35 0 62 -21t27 -57z" />
    <glyph glyph-name="acute" unicode="&#xb4;" horiz-adv-x="233" 
d="M55 542l-6 4q21 37 43.5 90t35.5 73q11 15 26 15q12 0 20.5 -8t8.5 -20q0 -11 -6 -20q-12 -18 -53.5 -57.5t-68.5 -76.5z" />
    <glyph glyph-name="uni00B5" unicode="&#xb5;" horiz-adv-x="534" 
d="M499 0h-14q-11 0 -34 1t-40 1q-9 0 -19.5 -1t-13.5 -1v68l-101 -41q-87 -35 -127 -35t-54 27q4 -65 22.5 -133.5t18.5 -79.5q0 -20 -10.5 -31t-28.5 -11q-16 0 -26.5 11t-10.5 31q0 10 13.5 89.5t13.5 142.5v361q0 32 -9.5 40.5t-44.5 8.5h-1v7h6q33 0 68 13t41 30h6
v-439q0 -48 35 -48q25 0 85 24l104 42v322q0 32 -9.5 40.5t-44.5 8.5h-1v7h6q33 0 68 13t41 30h6v-441q0 -32 9.5 -41t44.5 -9h1v-7z" />
    <glyph glyph-name="paragraph" unicode="&#xb6;" horiz-adv-x="551" 
d="M405 -226h-10v226h-77q-119 0 -193.5 85.5t-74.5 255.5t74 255t194 85h183v-10h-96v-661h96v-10h-96v-226zM315 10h80v661h-80v-661z" />
    <glyph glyph-name="periodcentered" unicode="&#xb7;" horiz-adv-x="254" 
d="M127 293q-21 0 -36.5 15t-15.5 37t15.5 37t36.5 15t36.5 -15t15.5 -37t-15.5 -37t-36.5 -15z" />
    <glyph glyph-name="cedilla" unicode="&#xb8;" horiz-adv-x="288" 
d="M238 -117q0 -50 -59.5 -88t-128.5 -45l-1 7q65 9 105.5 42t40.5 69q0 41 -51 41q-32 0 -56 -12l-3 3l86 100h5l-35 -58q10 2 20 2q34 0 55.5 -16.5t21.5 -44.5z" />
    <glyph glyph-name="uni00B9" unicode="&#xb9;" 
d="M223 397h-7q-12 0 -29 1.5t-35 1.5t-35 -1.5t-29 -1.5h-22v7h18q26 0 34 9t8 41v141q0 22 -16 22q-6 0 -40 -17l-3 6l15 8q31 17 58.5 43t32.5 42h5v-245q0 -30 7 -40t30 -10h8v-7z" />
    <glyph glyph-name="ordmasculine" unicode="&#xba;" horiz-adv-x="385" 
d="M191 360q-59 0 -100 48t-41 116q0 70 40.5 117.5t100.5 47.5q61 0 102.5 -47.5t41.5 -117.5q0 -68 -41.5 -116t-102.5 -48zM191 369q41 0 61.5 32.5t20.5 122.5q0 91 -20.5 123.5t-61.5 32.5t-60.5 -32.5t-19.5 -123.5q0 -90 20 -122.5t60 -32.5zM329 291h-276v9h276v-9z
" />
    <glyph glyph-name="guillemotright" unicode="&#xbb;" horiz-adv-x="502" 
d="M74 69l-5 5q53 61 134 179q-81 118 -134 179l5 5q25 -26 79 -71t94.5 -76.5t47.5 -36.5q-7 -5 -47.5 -36.5t-94.5 -76.5t-79 -71zM231 69l-5 5q53 61 134 179q-70 106 -134 179l5 5q25 -26 79 -71t94.5 -76.5t47.5 -36.5q-7 -5 -47.5 -36.5t-94.5 -76.5t-79 -71z" />
    <glyph glyph-name="onequarter" unicode="&#xbc;" horiz-adv-x="390" 
d="M271 397h-7q-12 0 -29 1.5t-35 1.5t-35 -1.5t-29 -1.5h-22v7h18q26 0 34 9t8 41v141q0 22 -16 22q-6 0 -40 -17l-3 6l15 8q31 17 58.5 43t32.5 42h5v-245q0 -30 7 -40t30 -10h8v-7zM44 346h302v-9h-302v9zM286 0h-11q-5 0 -20 1.5t-34 1.5t-34 -1.5t-20 -1.5h-22v7h11
q23 0 31 9.5t8 40.5v19h-129v4l137 204q1 0 9 -0.5t12 -0.5q5 0 12 0.5t11 0.5v-200h3q32 0 65 66l5 -1l-16 -73h-57v-19q0 -31 7 -40.5t30 -9.5h2v-7zM195 84v174l-116 -174h116z" />
    <glyph glyph-name="onehalf" unicode="&#xbd;" horiz-adv-x="390" 
d="M271 397h-7q-12 0 -29 1.5t-35 1.5t-35 -1.5t-29 -1.5h-22v7h18q26 0 34 9t8 41v141q0 22 -16 22q-6 0 -40 -17l-3 6l15 8q31 17 58.5 43t32.5 42h5v-245q0 -30 7 -40t30 -10h8v-7zM44 346h302v-9h-302v9zM280 223q0 -18 -6.5 -34t-22.5 -34t-28 -29t-38 -33t-37 -32
l-19 -17h156l-16 -76l-6 1q2 31 -27 31h-160v4l61 60q87 87 87 159q0 62 -36 62q-32 0 -48 -48q-9 -27 -27 -27q-21 0 -21 21t28 41t72 20q39 0 63.5 -17.5t24.5 -51.5z" />
    <glyph glyph-name="threequarters" unicode="&#xbe;" horiz-adv-x="390" 
d="M308 481q0 -40 -33 -66t-74 -26q-50 0 -81 22.5t-31 53.5q0 9 6 16t15 7q21 0 26 -25q8 -37 22.5 -51.5t42.5 -14.5t39.5 20t11.5 62q0 73 -33 73q-9 0 -21 -6l-33 -16l-3 7l41 20q30 15 30 68q0 57 -36 57q-31 0 -47 -48q-9 -27 -27 -27q-21 0 -21 21q0 20 28 40.5
t70 20.5q39 0 63 -15.5t24 -44.5q0 -22 -20 -41.5t-48 -28.5q35 0 62 -21t27 -57zM44 346h302v-9h-302v9zM286 0h-11q-5 0 -20 1.5t-34 1.5t-34 -1.5t-20 -1.5h-22v7h11q23 0 31 9.5t8 40.5v19h-129v4l137 204q1 0 9 -0.5t12 -0.5q5 0 12 0.5t11 0.5v-200h3q32 0 65 66l5 -1
l-16 -73h-57v-19q0 -31 7 -40.5t30 -9.5h2v-7zM195 84v174l-116 -174h116z" />
    <glyph glyph-name="questiondown" unicode="&#xbf;" horiz-adv-x="345" 
d="M208 498q21 0 36.5 -15t15.5 -37t-15.5 -37t-36.5 -15t-36.5 15t-15.5 37t15.5 37t36.5 15zM202 284h10v-202q-68 -13 -107.5 -51.5t-39.5 -83.5q0 -35 25.5 -60t72.5 -25q23 0 53.5 7t39.5 7q15 0 23.5 -10.5t8.5 -25.5q0 -38 -57 -38q-80 0 -129 48.5t-49 121.5
q0 142 149 186v126z" />
    <glyph glyph-name="Agrave" unicode="&#xc0;" horiz-adv-x="638" 
d="M358 735l-6 -4q-27 37 -68.5 76.5t-53.5 57.5q-6 9 -6 20t8 19.5t21 8.5q15 0 26 -15q13 -20 35.5 -73t43.5 -90zM653 0h-21q-6 0 -32 1.5t-41 1.5q-18 0 -45 -1.5t-32 -1.5h-21v8q52 0 52 31q0 10 -7 25l-52 124h-322l-27 -68q-14 -36 -14 -59q0 -53 71 -53v-8h-12
q-11 0 -41 1.5t-43 1.5q-7 0 -34.5 -1.5t-35.5 -1.5h-21v8q41 2 68.5 27.5t51.5 86.5l187 478l-34 81q9 0 21 -0.5t18 -0.5t17 0.5t18 0.5l260 -621q22 -52 71 -52v-8zM288 589l-152 -391h314z" />
    <glyph glyph-name="Aacute" unicode="&#xc1;" horiz-adv-x="638" 
d="M242 731l-6 4q21 37 43.5 90t35.5 73q11 15 26 15q13 0 21 -8.5t8 -19.5t-6 -20q-12 -18 -53.5 -57.5t-68.5 -76.5zM653 0h-21q-6 0 -32 1.5t-41 1.5q-18 0 -45 -1.5t-32 -1.5h-21v8q52 0 52 31q0 10 -7 25l-52 124h-322l-27 -68q-14 -36 -14 -59q0 -53 71 -53v-8h-12
q-11 0 -41 1.5t-43 1.5q-7 0 -34.5 -1.5t-35.5 -1.5h-21v8q41 2 68.5 27.5t51.5 86.5l187 478l-34 81q9 0 21 -0.5t18 -0.5t17 0.5t18 0.5l260 -621q22 -52 71 -52v-8zM288 589l-152 -391h314z" />
    <glyph glyph-name="Acircumflex" unicode="&#xc2;" horiz-adv-x="638" 
d="M411 735l-6 -4q-16 21 -34 40.5t-41 42t-33 33.5q-10 -11 -33 -33.5t-41 -42t-34 -40.5l-6 4q21 32 78 144q10 19 17.5 26.5t18.5 7.5t18.5 -7.5t17.5 -26.5q57 -112 78 -144zM653 0h-21q-6 0 -32 1.5t-41 1.5q-18 0 -45 -1.5t-32 -1.5h-21v8q52 0 52 31q0 10 -7 25
l-52 124h-322l-27 -68q-14 -36 -14 -59q0 -53 71 -53v-8h-12q-11 0 -41 1.5t-43 1.5q-7 0 -34.5 -1.5t-35.5 -1.5h-21v8q41 2 68.5 27.5t51.5 86.5l187 478l-34 81q9 0 21 -0.5t18 -0.5t17 0.5t18 0.5l260 -621q22 -52 71 -52v-8zM288 589l-152 -391h314z" />
    <glyph glyph-name="Atilde" unicode="&#xc3;" horiz-adv-x="638" 
d="M337 777q-21 0 -55.5 21.5t-60.5 21.5q-25 0 -59 -56l-6 4q1 1 10.5 17.5t13.5 21.5t14.5 18.5t18.5 19t20 11t24 5.5q21 0 55 -21.5t61 -21.5q25 0 59 56l6 -4q-1 -1 -10.5 -17.5t-13.5 -21.5t-14.5 -18.5t-18.5 -19t-20 -11t-24 -5.5zM653 0h-21q-6 0 -32 1.5t-41 1.5
q-18 0 -45 -1.5t-32 -1.5h-21v8q52 0 52 31q0 10 -7 25l-52 124h-322l-27 -68q-14 -36 -14 -59q0 -53 71 -53v-8h-12q-11 0 -41 1.5t-43 1.5q-7 0 -34.5 -1.5t-35.5 -1.5h-21v8q41 2 68.5 27.5t51.5 86.5l187 478l-34 81q9 0 21 -0.5t18 -0.5t17 0.5t18 0.5l260 -621
q22 -52 71 -52v-8zM288 589l-152 -391h314z" />
    <glyph glyph-name="Adieresis" unicode="&#xc4;" horiz-adv-x="638" 
d="M248 807q0 -19 -13 -31.5t-32 -12.5q-18 0 -31 12.5t-13 31.5t13 32t31 13q19 0 32 -13t13 -32zM437 807q0 -18 -13.5 -31t-31.5 -13q-19 0 -31.5 12.5t-12.5 31.5t12.5 32t31.5 13q18 0 31.5 -13t13.5 -32zM653 0h-21q-6 0 -32 1.5t-41 1.5q-18 0 -45 -1.5t-32 -1.5h-21
v8q52 0 52 31q0 10 -7 25l-52 124h-322l-27 -68q-14 -36 -14 -59q0 -53 71 -53v-8h-12q-11 0 -41 1.5t-43 1.5q-7 0 -34.5 -1.5t-35.5 -1.5h-21v8q41 2 68.5 27.5t51.5 86.5l187 478l-34 81q9 0 21 -0.5t18 -0.5t17 0.5t18 0.5l260 -621q22 -52 71 -52v-8zM288 589
l-152 -391h314z" />
    <glyph glyph-name="Aring" unicode="&#xc5;" horiz-adv-x="638" 
d="M381 828q0 -36 -24 -61t-60 -25t-60 25t-24 61t24 61t60 25t60 -25t24 -61zM371 828q0 31 -21.5 53.5t-52.5 22.5t-52.5 -22.5t-21.5 -53.5t21.5 -53.5t52.5 -22.5t52.5 22.5t21.5 53.5zM653 0h-21q-6 0 -32 1.5t-41 1.5q-18 0 -45 -1.5t-32 -1.5h-21v8q52 0 52 31
q0 10 -7 25l-52 124h-322l-27 -68q-14 -36 -14 -59q0 -53 71 -53v-8h-12q-11 0 -41 1.5t-43 1.5q-7 0 -34.5 -1.5t-35.5 -1.5h-21v8q41 2 68.5 27.5t51.5 86.5l187 478l-34 81q9 0 21 -0.5t18 -0.5t17 0.5t18 0.5l260 -621q22 -52 71 -52v-8zM288 589l-152 -391h314z" />
    <glyph glyph-name="AE" unicode="&#xc6;" horiz-adv-x="1001" 
d="M879 -31l-6 2q2 14 -5 21.5t-26 7.5h-237q-15 0 -42 0.5t-47 0.5q-16 0 -38 -0.5t-32 -0.5h-16v8h1q32 0 41.5 8.5t9.5 40.5v131h-323l-52 -71q-30 -40 -30 -67q0 -20 12.5 -31t48.5 -11h2v-8h-12q-12 0 -42.5 1.5t-43.5 1.5q-8 0 -36.5 -1.5t-37.5 -1.5h-23v8h2
q70 2 151 114l365 496q13 18 13 33q0 22 -41 22h-5v8h16q10 0 32 -0.5t38 -0.5q20 0 47 0.5t42 0.5h224q19 0 27 7.5t6 22.5l6 2l92 -226l-6 -3q-78 109 -113 148t-96 39h-195v-320h128q55 0 73 30.5t25 101.5h7v-277h-7q-4 36 -8 55.5t-13.5 40.5t-28.5 30t-48 9h-128v-331
h206q33 0 54.5 8.5t46.5 36.5q48 54 111 160l6 -3zM482 198v429l-315 -429h315z" />
    <glyph glyph-name="Ccedilla" unicode="&#xc7;" horiz-adv-x="612" 
d="M368 -117q0 -50 -59.5 -88t-128.5 -45l-1 7q65 9 105.5 42t40.5 69q0 41 -51 41q-32 0 -56 -12l-3 3l78 93q-115 10 -187 108t-72 242q0 86 28.5 155.5t73 110t93 61.5t94.5 21q35 0 78 -9.5t52 -9.5q35 0 33 33l6 2l92 -227l-6 -3q-68 112 -128.5 158.5t-126.5 46.5
q-93 0 -161.5 -75.5t-68.5 -199.5q0 -164 77.5 -265.5t192.5 -101.5q138 0 213 140l7 -3q-38 -80 -109.5 -132.5t-156.5 -52.5q-11 0 -16 1l-30 -51q10 2 20 2q34 0 55.5 -16.5t21.5 -44.5z" />
    <glyph glyph-name="Egrave" unicode="&#xc8;" horiz-adv-x="615" 
d="M356 735l-6 -4q-27 37 -68.5 76.5t-53.5 57.5q-6 9 -6 20t8 19.5t21 8.5q15 0 26 -15q13 -20 35.5 -73t43.5 -90zM493 -31l-6 2q2 14 -5 21.5t-26 7.5h-237q-15 0 -42 0.5t-47 0.5q-16 0 -38 -0.5t-32 -0.5h-16v8h1q32 0 41.5 8.5t9.5 40.5v567q0 32 -9.5 40.5t-41.5 8.5
h-1v8h16q10 0 32 -0.5t38 -0.5q20 0 47 0.5t42 0.5h224q19 0 27 7.5t6 22.5l6 2l92 -226l-6 -3q-81 114 -113 148q-36 39 -96 39h-195v-320h128q55 0 73 30.5t25 101.5h7v-277h-7q-4 36 -8 55.5t-13.5 40.5t-28.5 30t-48 9h-128v-331h206q33 0 54.5 8.5t46.5 36.5
q48 54 111 160l6 -3z" />
    <glyph glyph-name="Eacute" unicode="&#xc9;" horiz-adv-x="615" 
d="M240 731l-6 4q21 37 43.5 90t35.5 73q11 15 26 15q13 0 21 -8.5t8 -19.5t-6 -20q-12 -18 -53.5 -57.5t-68.5 -76.5zM493 -31l-6 2q2 14 -5 21.5t-26 7.5h-237q-15 0 -42 0.5t-47 0.5q-16 0 -38 -0.5t-32 -0.5h-16v8h1q32 0 41.5 8.5t9.5 40.5v567q0 32 -9.5 40.5
t-41.5 8.5h-1v8h16q10 0 32 -0.5t38 -0.5q20 0 47 0.5t42 0.5h224q19 0 27 7.5t6 22.5l6 2l92 -226l-6 -3q-81 114 -113 148q-36 39 -96 39h-195v-320h128q55 0 73 30.5t25 101.5h7v-277h-7q-4 36 -8 55.5t-13.5 40.5t-28.5 30t-48 9h-128v-331h206q33 0 54.5 8.5t46.5 36.5
q48 54 111 160l6 -3z" />
    <glyph glyph-name="Ecircumflex" unicode="&#xca;" horiz-adv-x="615" 
d="M409 735l-6 -4q-16 21 -34 40.5t-41 42t-33 33.5q-10 -11 -33 -33.5t-41 -42t-34 -40.5l-6 4q21 32 78 144q10 19 17.5 26.5t18.5 7.5t18.5 -7.5t17.5 -26.5q57 -112 78 -144zM493 -31l-6 2q2 14 -5 21.5t-26 7.5h-237q-15 0 -42 0.5t-47 0.5q-16 0 -38 -0.5t-32 -0.5
h-16v8h1q32 0 41.5 8.5t9.5 40.5v567q0 32 -9.5 40.5t-41.5 8.5h-1v8h16q10 0 32 -0.5t38 -0.5q20 0 47 0.5t42 0.5h224q19 0 27 7.5t6 22.5l6 2l92 -226l-6 -3q-81 114 -113 148q-36 39 -96 39h-195v-320h128q55 0 73 30.5t25 101.5h7v-277h-7q-4 36 -8 55.5t-13.5 40.5
t-28.5 30t-48 9h-128v-331h206q33 0 54.5 8.5t46.5 36.5q48 54 111 160l6 -3z" />
    <glyph glyph-name="Edieresis" unicode="&#xcb;" horiz-adv-x="615" 
d="M246 807q0 -19 -13 -31.5t-32 -12.5q-18 0 -31 12.5t-13 31.5t13 32t31 13q19 0 32 -13t13 -32zM435 807q0 -18 -13.5 -31t-31.5 -13q-19 0 -31.5 12.5t-12.5 31.5t12.5 32t31.5 13q18 0 31.5 -13t13.5 -32zM493 -31l-6 2q2 14 -5 21.5t-26 7.5h-237q-15 0 -42 0.5
t-47 0.5q-16 0 -38 -0.5t-32 -0.5h-16v8h1q32 0 41.5 8.5t9.5 40.5v567q0 32 -9.5 40.5t-41.5 8.5h-1v8h16q10 0 32 -0.5t38 -0.5q20 0 47 0.5t42 0.5h224q19 0 27 7.5t6 22.5l6 2l92 -226l-6 -3q-81 114 -113 148q-36 39 -96 39h-195v-320h128q55 0 73 30.5t25 101.5h7
v-277h-7q-4 36 -8 55.5t-13.5 40.5t-28.5 30t-48 9h-128v-331h206q33 0 54.5 8.5t46.5 36.5q48 54 111 160l6 -3z" />
    <glyph glyph-name="Igrave" unicode="&#xcc;" horiz-adv-x="260" 
d="M191 735l-6 -4q-27 37 -68.5 76.5t-53.5 57.5q-6 9 -6 20t8.5 19.5t20.5 8.5q16 0 26 -15q13 -20 35.5 -73t43.5 -90zM164 57q0 -32 9.5 -40.5t41.5 -8.5h1v-8h-16q-10 0 -32 1.5t-38 1.5t-38 -1.5t-32 -1.5h-16v8h1q32 0 41.5 8.5t9.5 40.5v567q0 32 -9.5 40.5
t-41.5 8.5h-1v8h16q10 0 32 -1.5t38 -1.5t38 1.5t32 1.5h16v-8h-1q-32 0 -41.5 -8.5t-9.5 -40.5v-567z" />
    <glyph glyph-name="Iacute" unicode="&#xcd;" horiz-adv-x="260" 
d="M75 731l-6 4q21 37 43.5 90t35.5 73q10 15 26 15q12 0 20.5 -8.5t8.5 -19.5t-6 -20q-12 -18 -53.5 -57.5t-68.5 -76.5zM164 57q0 -32 9.5 -40.5t41.5 -8.5h1v-8h-16q-10 0 -32 1.5t-38 1.5t-38 -1.5t-32 -1.5h-16v8h1q32 0 41.5 8.5t9.5 40.5v567q0 32 -9.5 40.5
t-41.5 8.5h-1v8h16q10 0 32 -1.5t38 -1.5t38 1.5t32 1.5h16v-8h-1q-32 0 -41.5 -8.5t-9.5 -40.5v-567z" />
    <glyph glyph-name="Icircumflex" unicode="&#xce;" horiz-adv-x="260" 
d="M244 735l-6 -4q-16 21 -34 40.5t-41 42t-33 33.5q-10 -11 -33 -33.5t-41 -42t-34 -40.5l-6 4q21 32 78 144q10 19 17.5 26.5t18.5 7.5t18.5 -7.5t17.5 -26.5q57 -112 78 -144zM164 57q0 -32 9.5 -40.5t41.5 -8.5h1v-8h-16q-10 0 -32 1.5t-38 1.5t-38 -1.5t-32 -1.5h-16v8
h1q32 0 41.5 8.5t9.5 40.5v567q0 32 -9.5 40.5t-41.5 8.5h-1v8h16q10 0 32 -1.5t38 -1.5t38 1.5t32 1.5h16v-8h-1q-32 0 -41.5 -8.5t-9.5 -40.5v-567z" />
    <glyph glyph-name="Idieresis" unicode="&#xcf;" horiz-adv-x="260" 
d="M81 807q0 -19 -13 -31.5t-32 -12.5q-18 0 -31 12.5t-13 31.5t13 32t31 13q19 0 32 -13t13 -32zM270 807q0 -18 -13.5 -31t-31.5 -13q-19 0 -31.5 12.5t-12.5 31.5t12.5 32t31.5 13q18 0 31.5 -13t13.5 -32zM164 57q0 -32 9.5 -40.5t41.5 -8.5h1v-8h-16q-10 0 -32 1.5
t-38 1.5t-38 -1.5t-32 -1.5h-16v8h1q32 0 41.5 8.5t9.5 40.5v567q0 32 -9.5 40.5t-41.5 8.5h-1v8h16q10 0 32 -1.5t38 -1.5t38 1.5t32 1.5h16v-8h-1q-32 0 -41.5 -8.5t-9.5 -40.5v-567z" />
    <glyph glyph-name="Eth" unicode="&#xd0;" horiz-adv-x="639" 
d="M609 340q0 -160 -85 -250t-220 -90h-75q-15 0 -42 0.5t-47 0.5q-17 0 -38.5 -0.5t-31.5 -0.5h-16v8h1q32 0 41.5 8.5t9.5 40.5v285h-73v10h73v272q0 32 -9.5 40.5t-41.5 8.5h-1v8h16q10 0 31.5 -0.5t38.5 -0.5q20 0 47 0.5t42 0.5h75q135 0 220 -90t85 -251zM310 342
h-136v-332h114q138 0 190 73t52 257q0 185 -52 258t-190 73h-114v-319h136v-10z" />
    <glyph glyph-name="Ntilde" unicode="&#xd1;" horiz-adv-x="690" 
d="M398 777q-20 0 -55 21.5t-61 21.5q-25 0 -59 -56l-6 4q1 1 10.5 17.5t13.5 21.5t14.5 18.5t18.5 19t20 11t24 5.5q20 0 55 -21.5t61 -21.5q25 0 59 56l6 -4q-1 -1 -10.5 -17.5t-13.5 -21.5t-14.5 -18.5t-18.5 -19t-20 -11t-24 -5.5zM638 0q-11 0 -22.5 0.5t-16.5 0.5
q-7 0 -21 -0.5t-23 -0.5l-437 617v-486q0 -56 18.5 -89t70.5 -34h1v-8h-25q-5 0 -28.5 1.5t-40.5 1.5q-18 0 -41.5 -1.5t-28.5 -1.5h-24v8h1q51 0 69 33t18 90v496q-2 3 -6.5 9t-6.5 8.5t-5.5 7t-6 6.5t-6 5t-7.5 4.5t-8.5 3t-10 2t-12.5 0.5h-1v8h7q14 0 29 -0.5t24 -0.5
q11 0 30 0.5t29 0.5l418 -589v458q0 57 -18 89.5t-70 33.5h-1v8h25q5 0 28.5 -1.5t40.5 -1.5q18 0 41.5 1.5t28.5 1.5h24v-8h-1q-51 0 -69.5 -33.5t-18.5 -89.5v-472z" />
    <glyph glyph-name="Ograve" unicode="&#xd2;" horiz-adv-x="658" 
d="M390 735l-6 -4q-27 37 -68.5 76.5t-53.5 57.5q-6 9 -6 20t8 19.5t21 8.5q15 0 26 -15q13 -20 35.5 -73t43.5 -90zM329 -10q-129 0 -212 100t-83 251t83 250.5t212 99.5t212 -99.5t83 -250.5t-83 -251t-212 -100zM329 -1q215 0 215 342q0 341 -215 341t-215 -341
q0 -342 215 -342z" />
    <glyph glyph-name="Oacute" unicode="&#xd3;" horiz-adv-x="658" 
d="M274 731l-6 4q21 37 43.5 90t35.5 73q11 15 26 15q13 0 21 -8.5t8 -19.5t-6 -20q-12 -18 -53.5 -57.5t-68.5 -76.5zM329 -10q-129 0 -212 100t-83 251t83 250.5t212 99.5t212 -99.5t83 -250.5t-83 -251t-212 -100zM329 -1q215 0 215 342q0 341 -215 341t-215 -341
q0 -342 215 -342z" />
    <glyph glyph-name="Ocircumflex" unicode="&#xd4;" horiz-adv-x="658" 
d="M443 735l-6 -4q-16 21 -34 40.5t-41 42t-33 33.5q-10 -11 -33 -33.5t-41 -42t-34 -40.5l-6 4q21 32 78 144q10 19 17.5 26.5t18.5 7.5t18.5 -7.5t17.5 -26.5q57 -112 78 -144zM329 -10q-129 0 -212 100t-83 251t83 250.5t212 99.5t212 -99.5t83 -250.5t-83 -251
t-212 -100zM329 -1q215 0 215 342q0 341 -215 341t-215 -341q0 -342 215 -342z" />
    <glyph glyph-name="Otilde" unicode="&#xd5;" horiz-adv-x="658" 
d="M369 777q-21 0 -55 21.5t-61 21.5q-25 0 -59 -56l-6 4q1 1 10.5 17.5t13.5 21.5t14.5 18.5t18.5 19t20 11t24 5.5q21 0 55 -21.5t61 -21.5q25 0 59 56l6 -4q-1 -1 -10.5 -17.5t-13.5 -21.5t-14.5 -18.5t-18.5 -19t-20 -11t-24 -5.5zM329 -10q-129 0 -212 100t-83 251
t83 250.5t212 99.5t212 -99.5t83 -250.5t-83 -251t-212 -100zM329 -1q215 0 215 342q0 341 -215 341t-215 -341q0 -342 215 -342z" />
    <glyph glyph-name="Odieresis" unicode="&#xd6;" horiz-adv-x="658" 
d="M280 807q0 -19 -13 -31.5t-32 -12.5q-18 0 -31 12.5t-13 31.5t13 32t31 13q19 0 32 -13t13 -32zM469 807q0 -18 -13.5 -31t-31.5 -13q-19 0 -31.5 12.5t-12.5 31.5t12.5 32t31.5 13q18 0 31.5 -13t13.5 -32zM329 -10q-129 0 -212 100t-83 251t83 250.5t212 99.5
t212 -99.5t83 -250.5t-83 -251t-212 -100zM329 -1q215 0 215 342q0 341 -215 341t-215 -341q0 -342 215 -342z" />
    <glyph glyph-name="multiply" unicode="&#xd7;" horiz-adv-x="407" 
d="M372 485l-162 -162l163 -163l-7 -7l-163 163l-163 -163l-7 7l163 163l-162 162l7 7l162 -162l162 162z" />
    <glyph glyph-name="Oslash" unicode="&#xd8;" horiz-adv-x="658" 
d="M329 -10q-97 0 -171 60l-64 -105l-8 5l64 106q-55 47 -85.5 121.5t-30.5 163.5q0 151 83 250.5t212 99.5q97 0 171 -60l63 104l9 -5l-64 -105q55 -48 85.5 -122t30.5 -162q0 -151 -83 -251t-212 -100zM329 682q-215 0 -215 -341q0 -172 54 -257l316 521q-53 77 -155 77z
M329 -1q215 0 215 342q0 171 -54 255l-317 -521q55 -76 156 -76z" />
    <glyph glyph-name="Ugrave" unicode="&#xd9;" horiz-adv-x="620" 
d="M388 735l-6 -4q-27 37 -68.5 76.5t-53.5 57.5q-6 9 -6 20t8 19.5t21 8.5q15 0 26 -15q13 -20 35.5 -73t43.5 -90zM533 211q0 -100 -57 -159.5t-156 -59.5q-240 0 -240 220v412q0 32 -9.5 40.5t-41.5 8.5h-1v8h16q10 0 32 -1.5t38 -1.5t38 1.5t32 1.5h16v-8h-1
q-32 0 -41.5 -8.5t-9.5 -40.5v-371q0 -132 42.5 -190.5t140.5 -58.5q86 0 139 56.5t53 150.5v339q0 57 -18 89.5t-70 33.5h-1v8h25q5 0 28.5 -1.5t40.5 -1.5q18 0 41.5 1.5t28.5 1.5h24v-8h-1q-51 0 -69.5 -33.5t-18.5 -89.5v-339z" />
    <glyph glyph-name="Uacute" unicode="&#xda;" horiz-adv-x="620" 
d="M272 731l-6 4q21 37 43.5 90t35.5 73q11 15 26 15q13 0 21 -8.5t8 -19.5t-6 -20q-12 -18 -53.5 -57.5t-68.5 -76.5zM533 211q0 -100 -57 -159.5t-156 -59.5q-240 0 -240 220v412q0 32 -9.5 40.5t-41.5 8.5h-1v8h16q10 0 32 -1.5t38 -1.5t38 1.5t32 1.5h16v-8h-1
q-32 0 -41.5 -8.5t-9.5 -40.5v-371q0 -132 42.5 -190.5t140.5 -58.5q86 0 139 56.5t53 150.5v339q0 57 -18 89.5t-70 33.5h-1v8h25q5 0 28.5 -1.5t40.5 -1.5q18 0 41.5 1.5t28.5 1.5h24v-8h-1q-51 0 -69.5 -33.5t-18.5 -89.5v-339z" />
    <glyph glyph-name="Ucircumflex" unicode="&#xdb;" horiz-adv-x="620" 
d="M441 735l-6 -4q-16 21 -34 40.5t-41 42t-33 33.5q-10 -11 -33 -33.5t-41 -42t-34 -40.5l-6 4q21 32 78 144q10 19 17.5 26.5t18.5 7.5t18.5 -7.5t17.5 -26.5q57 -112 78 -144zM533 211q0 -100 -57 -159.5t-156 -59.5q-240 0 -240 220v412q0 32 -9.5 40.5t-41.5 8.5h-1v8
h16q10 0 32 -1.5t38 -1.5t38 1.5t32 1.5h16v-8h-1q-32 0 -41.5 -8.5t-9.5 -40.5v-371q0 -132 42.5 -190.5t140.5 -58.5q86 0 139 56.5t53 150.5v339q0 57 -18 89.5t-70 33.5h-1v8h25q5 0 28.5 -1.5t40.5 -1.5q18 0 41.5 1.5t28.5 1.5h24v-8h-1q-51 0 -69.5 -33.5
t-18.5 -89.5v-339z" />
    <glyph glyph-name="Udieresis" unicode="&#xdc;" horiz-adv-x="620" 
d="M278 807q0 -19 -13 -31.5t-32 -12.5q-18 0 -31 12.5t-13 31.5t13 32t31 13q19 0 32 -13t13 -32zM467 807q0 -18 -13.5 -31t-31.5 -13q-19 0 -31.5 12.5t-12.5 31.5t12.5 32t31.5 13q18 0 31.5 -13t13.5 -32zM533 211q0 -100 -57 -159.5t-156 -59.5q-240 0 -240 220v412
q0 32 -9.5 40.5t-41.5 8.5h-1v8h16q10 0 32 -1.5t38 -1.5t38 1.5t32 1.5h16v-8h-1q-32 0 -41.5 -8.5t-9.5 -40.5v-371q0 -132 42.5 -190.5t140.5 -58.5q86 0 139 56.5t53 150.5v339q0 57 -18 89.5t-70 33.5h-1v8h25q5 0 28.5 -1.5t40.5 -1.5q18 0 41.5 1.5t28.5 1.5h24v-8
h-1q-51 0 -69.5 -33.5t-18.5 -89.5v-339z" />
    <glyph glyph-name="Yacute" unicode="&#xdd;" horiz-adv-x="593" 
d="M258 731l-6 4q21 37 43.5 90t35.5 73q11 15 26 15q13 0 21 -8.5t8 -19.5t-6 -20q-12 -18 -53.5 -57.5t-68.5 -76.5zM339 57q0 -32 9.5 -40.5t41.5 -8.5h1v-8h-16q-11 0 -32 1.5t-38 1.5t-38 -1.5t-32 -1.5h-16v8h1q32 0 41.5 8.5t9.5 40.5v253l-202 313q-18 27 -36 38.5
t-45 11.5v8h29q5 0 28 -1.5t41 -1.5q17 0 42 1.5t30 1.5h34v-8q-29 0 -40 -5.5t-11 -19.5q0 -12 10 -29l183 -282l139 227q26 43 26 63q0 46 -64 46h-1v8h13q11 0 39.5 -1.5t41.5 -1.5q7 0 35 1.5t36 1.5h19v-8h-1q-42 -1 -71 -29t-66 -88l-141 -229v-270z" />
    <glyph glyph-name="Thorn" unicode="&#xde;" horiz-adv-x="566" 
d="M216 0h-16q-10 0 -32 1.5t-38 1.5t-38 -1.5t-32 -1.5h-16v8h1q32 0 41.5 8.5t9.5 40.5v567q0 32 -9.5 40.5t-41.5 8.5h-1v8h16q10 0 32 -1.5t38 -1.5t38 1.5t32 1.5h16v-8h-1q-32 0 -41.5 -8.5t-9.5 -40.5v-83h158q98 0 162.5 -48.5t64.5 -134.5q0 -87 -64.5 -136
t-162.5 -49h-158v-116q0 -32 9.5 -40.5t41.5 -8.5h1v-8zM164 183h150q92 0 124.5 42t32.5 133q0 90 -32.5 131.5t-124.5 41.5h-150v-348z" />
    <glyph glyph-name="germandbls" unicode="&#xdf;" horiz-adv-x="568" 
d="M546 159q0 -73 -46 -120t-106 -47q-18 0 -54 10t-47 10q-10 0 -16 -5.5t-5 -14.5l-6 -2l-50 172l6 3q90 -165 172 -165q46 0 76 34.5t30 83.5q0 85 -88 134l-65 36q-65 37 -65 80q0 24 12 42t45 52q59 60 59 129q0 100 -101 100q-77 0 -109 -45.5t-32 -139.5v-506l-33 1
q-17 0 -40 -0.5t-34 -0.5h-14v7h1q35 0 44.5 9t9.5 41v424h-68v9h68q5 97 57 153t150 56q64 0 110.5 -26t46.5 -77q0 -54 -71 -108q-61 -47 -61 -78q0 -18 14.5 -32t51.5 -35l62 -34q96 -53 96 -150z" />
    <glyph glyph-name="agrave" unicode="&#xe0;" horiz-adv-x="500" 
d="M315 546l-6 -4q-27 37 -68.5 76.5t-53.5 57.5q-6 9 -6 20q0 12 8.5 20t20.5 8q16 0 26 -15q13 -20 35.5 -73t43.5 -90zM403 -8q-30 0 -45.5 19t-15.5 47q-78 -66 -158 -66q-62 0 -98 34t-36 93q0 60 44 101t119 71l129 52v78q0 39 -10 54t-41 15q-51 0 -88.5 -26
t-77.5 -75q-14 -17 -29 -17q-10 0 -18 7.5t-8 18.5q0 31 69.5 65.5t152.5 34.5q116 0 116 -91v-362q0 -35 24 -35q25 0 46 36l5 -3q-27 -51 -80 -51zM193 3q33 0 75 19t74 46v18v248l-126 -52q-54 -23 -72 -61.5t-18 -99.5q0 -118 67 -118z" />
    <glyph glyph-name="aacute" unicode="&#xe1;" horiz-adv-x="500" 
d="M199 542l-6 4q21 37 43.5 90t35.5 73q10 15 26 15q12 0 20.5 -8t8.5 -20q0 -11 -6 -20q-12 -18 -53.5 -57.5t-68.5 -76.5zM403 -8q-30 0 -45.5 19t-15.5 47q-78 -66 -158 -66q-62 0 -98 34t-36 93q0 60 44 101t119 71l129 52v78q0 39 -10 54t-41 15q-51 0 -88.5 -26
t-77.5 -75q-14 -17 -29 -17q-10 0 -18 7.5t-8 18.5q0 31 69.5 65.5t152.5 34.5q116 0 116 -91v-362q0 -35 24 -35q25 0 46 36l5 -3q-27 -51 -80 -51zM193 3q33 0 75 19t74 46v18v248l-126 -52q-54 -23 -72 -61.5t-18 -99.5q0 -118 67 -118z" />
    <glyph glyph-name="acircumflex" unicode="&#xe2;" horiz-adv-x="500" 
d="M368 546l-6 -4q-16 21 -34 40.5t-41 42t-33 33.5q-10 -11 -33 -33.5t-41 -42t-34 -40.5l-6 4q21 32 78 144q10 19 17.5 26.5t18.5 7.5t18.5 -7.5t17.5 -26.5q57 -112 78 -144zM403 -8q-30 0 -45.5 19t-15.5 47q-78 -66 -158 -66q-62 0 -98 34t-36 93q0 60 44 101t119 71
l129 52v78q0 39 -10 54t-41 15q-51 0 -88.5 -26t-77.5 -75q-14 -17 -29 -17q-10 0 -18 7.5t-8 18.5q0 31 69.5 65.5t152.5 34.5q116 0 116 -91v-362q0 -35 24 -35q25 0 46 36l5 -3q-27 -51 -80 -51zM193 3q33 0 75 19t74 46v18v248l-126 -52q-54 -23 -72 -61.5t-18 -99.5
q0 -118 67 -118z" />
    <glyph glyph-name="atilde" unicode="&#xe3;" horiz-adv-x="500" 
d="M294 588q-20 0 -55 21.5t-61 21.5q-25 0 -59 -56l-6 4q1 1 10.5 17.5t13.5 21.5t14.5 18.5t18.5 19t20 11t24 5.5q20 0 55 -21.5t61 -21.5q25 0 59 56l6 -4q-1 -1 -10.5 -17.5t-13.5 -21.5t-14.5 -18.5t-18.5 -19t-20 -11t-24 -5.5zM403 -8q-30 0 -45.5 19t-15.5 47
q-78 -66 -158 -66q-62 0 -98 34t-36 93q0 60 44 101t119 71l129 52v78q0 39 -10 54t-41 15q-51 0 -88.5 -26t-77.5 -75q-14 -17 -29 -17q-10 0 -18 7.5t-8 18.5q0 31 69.5 65.5t152.5 34.5q116 0 116 -91v-362q0 -35 24 -35q25 0 46 36l5 -3q-27 -51 -80 -51zM193 3
q33 0 75 19t74 46v18v248l-126 -52q-54 -23 -72 -61.5t-18 -99.5q0 -118 67 -118z" />
    <glyph glyph-name="adieresis" unicode="&#xe4;" horiz-adv-x="500" 
d="M205 628q0 -19 -13 -31.5t-32 -12.5q-18 0 -31 12.5t-13 31.5t13 32t31 13q19 0 32 -13t13 -32zM394 628q0 -18 -13.5 -31t-31.5 -13q-19 0 -31.5 12.5t-12.5 31.5t12.5 32t31.5 13q18 0 31.5 -13t13.5 -32zM403 -8q-30 0 -45.5 19t-15.5 47q-78 -66 -158 -66
q-62 0 -98 34t-36 93q0 60 44 101t119 71l129 52v78q0 39 -10 54t-41 15q-51 0 -88.5 -26t-77.5 -75q-14 -17 -29 -17q-10 0 -18 7.5t-8 18.5q0 31 69.5 65.5t152.5 34.5q116 0 116 -91v-362q0 -35 24 -35q25 0 46 36l5 -3q-27 -51 -80 -51zM193 3q33 0 75 19t74 46v18v248
l-126 -52q-54 -23 -72 -61.5t-18 -99.5q0 -118 67 -118z" />
    <glyph glyph-name="aring" unicode="&#xe5;" horiz-adv-x="500" 
d="M338 639q0 -36 -24 -61t-60 -25t-60 25t-24 61t24 61t60 25t60 -25t24 -61zM328 639q0 31 -21.5 53.5t-52.5 22.5t-52.5 -22.5t-21.5 -53.5t21.5 -53.5t52.5 -22.5t52.5 22.5t21.5 53.5zM403 -8q-30 0 -45.5 19t-15.5 47q-78 -66 -158 -66q-62 0 -98 34t-36 93
q0 60 44 101t119 71l129 52v78q0 39 -10 54t-41 15q-51 0 -88.5 -26t-77.5 -75q-14 -17 -29 -17q-10 0 -18 7.5t-8 18.5q0 31 69.5 65.5t152.5 34.5q116 0 116 -91v-362q0 -35 24 -35q25 0 46 36l5 -3q-27 -51 -80 -51zM193 3q33 0 75 19t74 46v18v248l-126 -52
q-54 -23 -72 -61.5t-18 -99.5q0 -118 67 -118z" />
    <glyph glyph-name="ae" unicode="&#xe6;" horiz-adv-x="770" 
d="M544 -8q-48 0 -91 26t-73 73q-78 -99 -181 -99q-61 0 -105 39t-44 118q0 82 65.5 129t156.5 47h70v94q0 40 -9.5 55.5t-41.5 15.5q-50 0 -87.5 -26t-78.5 -75q-14 -17 -29 -17q-10 0 -18 7.5t-8 18.5q0 31 69.5 65.5t152.5 34.5q55 0 78 -17.5t29 -58.5q57 76 150 76
q71 0 125.5 -49.5t50.5 -132.5h-314q-1 -15 -1 -45q0 -109 43.5 -183t115.5 -74q107 0 149 126l6 -2q-47 -146 -180 -146zM545 490q-54 0 -89 -43.5t-44 -121.5h245q-2 165 -112 165zM204 2q95 0 171 96q-33 63 -33 168v50h-68q-83 0 -115.5 -39.5t-32.5 -125.5
q0 -149 78 -149z" />
    <glyph glyph-name="ccedilla" unicode="&#xe7;" horiz-adv-x="472" 
d="M312 -117q0 -50 -59.5 -88t-128.5 -45l-1 7q65 9 105.5 42t40.5 69q0 41 -51 41q-32 0 -56 -12l-3 3l79 92q-80 6 -138 73.5t-58 171.5q0 119 64 190t151 71q69 0 120 -43t51 -88q0 -12 -7.5 -20t-19.5 -8q-20 0 -27 20q-1 3 -8 35q-20 96 -110 96q-67 0 -102.5 -59
t-35.5 -155q0 -123 45.5 -192.5t113.5 -69.5q107 0 149 126l6 -2q-48 -149 -187 -146l-30 -50q10 2 20 2q34 0 55.5 -16.5t21.5 -44.5z" />
    <glyph glyph-name="egrave" unicode="&#xe8;" horiz-adv-x="478" 
d="M315 546l-6 -4q-27 37 -68.5 76.5t-53.5 57.5q-6 9 -6 20q0 12 8.5 20t20.5 8q16 0 26 -15q13 -20 35.5 -73t43.5 -90zM252 -8q-84 0 -147 67.5t-63 176.5q0 120 64 191t151 71q71 0 125.5 -49.5t50.5 -132.5h-314q-1 -15 -1 -45q0 -109 43.5 -183t115.5 -74
q107 0 149 126l6 -2q-47 -146 -180 -146zM365 325q-3 165 -113 165q-56 0 -90 -46t-42 -119h245z" />
    <glyph glyph-name="eacute" unicode="&#xe9;" horiz-adv-x="478" 
d="M199 542l-6 4q21 37 43.5 90t35.5 73q10 15 26 15q12 0 20.5 -8t8.5 -20q0 -11 -6 -20q-12 -18 -53.5 -57.5t-68.5 -76.5zM252 -8q-84 0 -147 67.5t-63 176.5q0 120 64 191t151 71q71 0 125.5 -49.5t50.5 -132.5h-314q-1 -15 -1 -45q0 -109 43.5 -183t115.5 -74
q107 0 149 126l6 -2q-47 -146 -180 -146zM365 325q-3 165 -113 165q-56 0 -90 -46t-42 -119h245z" />
    <glyph glyph-name="ecircumflex" unicode="&#xea;" horiz-adv-x="478" 
d="M368 546l-6 -4q-16 21 -34 40.5t-41 42t-33 33.5q-10 -11 -33 -33.5t-41 -42t-34 -40.5l-6 4q21 32 78 144q10 19 17.5 26.5t18.5 7.5t18.5 -7.5t17.5 -26.5q57 -112 78 -144zM252 -8q-84 0 -147 67.5t-63 176.5q0 120 64 191t151 71q71 0 125.5 -49.5t50.5 -132.5h-314
q-1 -15 -1 -45q0 -109 43.5 -183t115.5 -74q107 0 149 126l6 -2q-47 -146 -180 -146zM365 325q-3 165 -113 165q-56 0 -90 -46t-42 -119h245z" />
    <glyph glyph-name="edieresis" unicode="&#xeb;" horiz-adv-x="478" 
d="M205 628q0 -19 -13 -31.5t-32 -12.5q-18 0 -31 12.5t-13 31.5t13 32t31 13q19 0 32 -13t13 -32zM394 628q0 -18 -13.5 -31t-31.5 -13q-19 0 -31.5 12.5t-12.5 31.5t12.5 32t31.5 13q18 0 31.5 -13t13.5 -32zM252 -8q-84 0 -147 67.5t-63 176.5q0 120 64 191t151 71
q71 0 125.5 -49.5t50.5 -132.5h-314q-1 -15 -1 -45q0 -109 43.5 -183t115.5 -74q107 0 149 126l6 -2q-47 -146 -180 -146zM365 325q-3 165 -113 165q-56 0 -90 -46t-42 -119h245z" />
    <glyph glyph-name="igrave" unicode="&#xec;" horiz-adv-x="254" 
d="M192 546l-6 -4q-27 37 -68.5 76.5t-53.5 57.5q-6 9 -6 20q0 12 8 20t21 8q16 0 26 -15q13 -20 35.5 -73t43.5 -90zM219 0h-14q-11 0 -34 1.5t-40 1.5t-40 -1.5t-34 -1.5h-14v7h1q35 0 44.5 9t9.5 41v342q0 32 -9.5 40.5t-44.5 8.5h-1v7h6q33 0 68 13t41 30h6v-441
q0 -32 9.5 -41t44.5 -9h1v-7z" />
    <glyph glyph-name="iacute" unicode="&#xed;" horiz-adv-x="254" 
d="M76 542l-6 4q21 37 43.5 90t35.5 73q11 15 26 15q13 0 21 -8t8 -20q0 -11 -6 -20q-12 -18 -53.5 -57.5t-68.5 -76.5zM219 0h-14q-11 0 -34 1.5t-40 1.5t-40 -1.5t-34 -1.5h-14v7h1q35 0 44.5 9t9.5 41v342q0 32 -9.5 40.5t-44.5 8.5h-1v7h6q33 0 68 13t41 30h6v-441
q0 -32 9.5 -41t44.5 -9h1v-7z" />
    <glyph glyph-name="icircumflex" unicode="&#xee;" horiz-adv-x="254" 
d="M245 546l-6 -4q-16 21 -34 40.5t-41 42t-33 33.5q-10 -11 -33 -33.5t-41 -42t-34 -40.5l-6 4q21 32 78 144q10 19 17.5 26.5t18.5 7.5t18.5 -7.5t17.5 -26.5q57 -112 78 -144zM219 0h-14q-11 0 -34 1.5t-40 1.5t-40 -1.5t-34 -1.5h-14v7h1q35 0 44.5 9t9.5 41v342
q0 32 -9.5 40.5t-44.5 8.5h-1v7h6q33 0 68 13t41 30h6v-441q0 -32 9.5 -41t44.5 -9h1v-7z" />
    <glyph glyph-name="idieresis" unicode="&#xef;" horiz-adv-x="254" 
d="M82 628q0 -19 -13 -31.5t-32 -12.5q-18 0 -31 12.5t-13 31.5t13 32t31 13q19 0 32 -13t13 -32zM271 628q0 -18 -13.5 -31t-31.5 -13q-19 0 -31.5 12.5t-12.5 31.5t12.5 32t31.5 13q18 0 31.5 -13t13.5 -32zM219 0h-14q-11 0 -34 1.5t-40 1.5t-40 -1.5t-34 -1.5h-14v7h1
q35 0 44.5 9t9.5 41v342q0 32 -9.5 40.5t-44.5 8.5h-1v7h6q33 0 68 13t41 30h6v-441q0 -32 9.5 -41t44.5 -9h1v-7z" />
    <glyph glyph-name="eth" unicode="&#xf0;" horiz-adv-x="512" 
d="M255 -8q-89 0 -151.5 73t-62.5 180t62.5 180t151.5 73q65 0 112 -42q-28 90 -95 151l-106 -71l-5 7l104 70q-65 54 -162 73l2 8q100 -20 176 -71l97 65l5 -7l-95 -63q84 -56 133 -142t49 -182q0 -83 -20 -144.5t-53 -94t-68.5 -48t-73.5 -15.5zM255 0q34 0 57 10.5
t42.5 38.5t29 84t9.5 142q0 91 -21 166q-47 49 -117 49q-33 0 -56.5 -10.5t-43 -36.5t-29 -75.5t-9.5 -122.5t9.5 -122.5t29 -75.5t43 -36.5t56.5 -10.5z" />
    <glyph glyph-name="ntilde" unicode="&#xf1;" horiz-adv-x="547" 
d="M319 588q-21 0 -55 21.5t-61 21.5q-25 0 -59 -56l-6 4q1 1 10.5 17.5t13.5 21.5t14.5 18.5t18.5 19t20 11t24 5.5q21 0 55 -21.5t61 -21.5q25 0 59 56l6 -4q-1 -1 -10.5 -17.5t-13.5 -21.5t-14.5 -18.5t-18.5 -19t-20 -11t-24 -5.5zM514 0h-14q-12 0 -34 1.5t-40 1.5
t-40 -1.5t-34 -1.5h-14v7h1q35 0 44.5 9t9.5 41v374q0 48 -35 48q-20 0 -85 -24l-109 -42v-356q0 -32 9.5 -41t44.5 -9h1v-7h-14q-11 0 -34 1.5t-40 1.5t-40 -1.5t-34 -1.5h-14v7h1q35 0 44.5 9t9.5 41v342q0 32 -9.5 40.5t-44.5 8.5h-1v7h6q33 0 68 13t41 30h6v-76l106 41
q89 35 127 35q62 0 62 -70v-371q0 -32 9.5 -41t44.5 -9h1v-7z" />
    <glyph glyph-name="ograve" unicode="&#xf2;" horiz-adv-x="512" 
d="M317 546l-6 -4q-27 37 -68.5 76.5t-53.5 57.5q-6 9 -6 20q0 12 8.5 20t20.5 8q16 0 26 -15q13 -20 35.5 -73t43.5 -90zM256 -8q-89 0 -151.5 73t-62.5 180t62.5 180t151.5 73t151.5 -73t62.5 -180t-62.5 -180t-151.5 -73zM256 0q33 0 56.5 10t43 36t29 75.5t9.5 123.5
t-9.5 123.5t-29 75.5t-43 36t-56.5 10t-56.5 -10t-43 -36t-29 -75.5t-9.5 -123.5t9.5 -123.5t29 -75.5t43 -36t56.5 -10z" />
    <glyph glyph-name="oacute" unicode="&#xf3;" horiz-adv-x="512" 
d="M201 542l-6 4q21 37 43.5 90t35.5 73q10 15 26 15q12 0 20.5 -8t8.5 -20q0 -11 -6 -20q-12 -18 -53.5 -57.5t-68.5 -76.5zM256 -8q-89 0 -151.5 73t-62.5 180t62.5 180t151.5 73t151.5 -73t62.5 -180t-62.5 -180t-151.5 -73zM256 0q33 0 56.5 10t43 36t29 75.5t9.5 123.5
t-9.5 123.5t-29 75.5t-43 36t-56.5 10t-56.5 -10t-43 -36t-29 -75.5t-9.5 -123.5t9.5 -123.5t29 -75.5t43 -36t56.5 -10z" />
    <glyph glyph-name="ocircumflex" unicode="&#xf4;" horiz-adv-x="512" 
d="M370 546l-6 -4q-16 21 -34 40.5t-41 42t-33 33.5q-10 -11 -33 -33.5t-41 -42t-34 -40.5l-6 4q21 32 78 144q10 19 17.5 26.5t18.5 7.5t18.5 -7.5t17.5 -26.5q57 -112 78 -144zM256 -8q-89 0 -151.5 73t-62.5 180t62.5 180t151.5 73t151.5 -73t62.5 -180t-62.5 -180
t-151.5 -73zM256 0q33 0 56.5 10t43 36t29 75.5t9.5 123.5t-9.5 123.5t-29 75.5t-43 36t-56.5 10t-56.5 -10t-43 -36t-29 -75.5t-9.5 -123.5t9.5 -123.5t29 -75.5t43 -36t56.5 -10z" />
    <glyph glyph-name="otilde" unicode="&#xf5;" horiz-adv-x="512" 
d="M296 588q-20 0 -55 21.5t-61 21.5q-25 0 -59 -56l-6 4q1 1 10.5 17.5t13.5 21.5t14.5 18.5t18.5 19t20 11t24 5.5q20 0 55 -21.5t61 -21.5q25 0 59 56l6 -4q-1 -1 -10.5 -17.5t-13.5 -21.5t-14.5 -18.5t-18.5 -19t-20 -11t-24 -5.5zM256 -8q-89 0 -151.5 73t-62.5 180
t62.5 180t151.5 73t151.5 -73t62.5 -180t-62.5 -180t-151.5 -73zM256 0q33 0 56.5 10t43 36t29 75.5t9.5 123.5t-9.5 123.5t-29 75.5t-43 36t-56.5 10t-56.5 -10t-43 -36t-29 -75.5t-9.5 -123.5t9.5 -123.5t29 -75.5t43 -36t56.5 -10z" />
    <glyph glyph-name="odieresis" unicode="&#xf6;" horiz-adv-x="512" 
d="M207 628q0 -19 -13 -31.5t-32 -12.5q-18 0 -31 12.5t-13 31.5t13 32t31 13q19 0 32 -13t13 -32zM396 628q0 -18 -13.5 -31t-31.5 -13q-19 0 -31.5 12.5t-12.5 31.5t12.5 32t31.5 13q18 0 31.5 -13t13.5 -32zM256 -8q-89 0 -151.5 73t-62.5 180t62.5 180t151.5 73
t151.5 -73t62.5 -180t-62.5 -180t-151.5 -73zM256 0q33 0 56.5 10t43 36t29 75.5t9.5 123.5t-9.5 123.5t-29 75.5t-43 36t-56.5 10t-56.5 -10t-43 -36t-29 -75.5t-9.5 -123.5t9.5 -123.5t29 -75.5t43 -36t56.5 -10z" />
    <glyph glyph-name="divide" unicode="&#xf7;" horiz-adv-x="530" 
d="M259 426q-20 0 -34 13.5t-14 34.5t14 35t34 14t34.5 -14t14.5 -35t-14 -34.5t-35 -13.5zM45 317v10h440v-10h-440zM259 122q-20 0 -34 13.5t-14 34.5t14 35t34 14t34.5 -14t14.5 -35t-14 -34.5t-35 -13.5z" />
    <glyph glyph-name="oslash" unicode="&#xf8;" horiz-adv-x="512" 
d="M256 -8q-69 0 -122 44l-53 -86l-7 5l53 87q-85 74 -85 203q0 107 62.5 180t151.5 73q66 0 122 -45l53 88l8 -5l-54 -88q85 -77 85 -203q0 -107 -62.5 -180t-151.5 -73zM256 490q-33 0 -56.5 -10t-43 -36t-29 -75.5t-9.5 -123.5q0 -118 26 -176l219 361q-31 60 -107 60z
M256 0q33 0 56.5 10t43 36t29 75.5t9.5 123.5q0 115 -26 175l-220 -360q32 -60 108 -60z" />
    <glyph glyph-name="ugrave" unicode="&#xf9;" horiz-adv-x="534" 
d="M327 546l-6 -4q-27 37 -68.5 76.5t-53.5 57.5q-6 9 -6 20q0 12 8.5 20t20.5 8q16 0 26 -15q13 -20 35.5 -73t43.5 -90zM499 0h-14q-11 0 -34 1t-40 1q-9 0 -19.5 -1t-13.5 -1v68l-101 -41q-87 -35 -127 -35q-62 0 -62 70v337q0 32 -9.5 40.5t-44.5 8.5h-1v7h6q33 0 68 13
t41 30h6v-439q0 -48 35 -48q25 0 85 24l104 42v322q0 32 -9.5 40.5t-44.5 8.5h-1v7h6q33 0 68 13t41 30h6v-441q0 -32 9.5 -41t44.5 -9h1v-7z" />
    <glyph glyph-name="uacute" unicode="&#xfa;" horiz-adv-x="534" 
d="M211 542l-6 4q21 37 43.5 90t35.5 73q10 15 26 15q12 0 20.5 -8t8.5 -20q0 -11 -6 -20q-12 -18 -53.5 -57.5t-68.5 -76.5zM499 0h-14q-11 0 -34 1t-40 1q-9 0 -19.5 -1t-13.5 -1v68l-101 -41q-87 -35 -127 -35q-62 0 -62 70v337q0 32 -9.5 40.5t-44.5 8.5h-1v7h6
q33 0 68 13t41 30h6v-439q0 -48 35 -48q25 0 85 24l104 42v322q0 32 -9.5 40.5t-44.5 8.5h-1v7h6q33 0 68 13t41 30h6v-441q0 -32 9.5 -41t44.5 -9h1v-7z" />
    <glyph glyph-name="ucircumflex" unicode="&#xfb;" horiz-adv-x="534" 
d="M380 546l-6 -4q-16 21 -34 40.5t-41 42t-33 33.5q-10 -11 -33 -33.5t-41 -42t-34 -40.5l-6 4q21 32 78 144q10 19 17.5 26.5t18.5 7.5t18.5 -7.5t17.5 -26.5q57 -112 78 -144zM499 0h-14q-11 0 -34 1t-40 1q-9 0 -19.5 -1t-13.5 -1v68l-101 -41q-87 -35 -127 -35
q-62 0 -62 70v337q0 32 -9.5 40.5t-44.5 8.5h-1v7h6q33 0 68 13t41 30h6v-439q0 -48 35 -48q25 0 85 24l104 42v322q0 32 -9.5 40.5t-44.5 8.5h-1v7h6q33 0 68 13t41 30h6v-441q0 -32 9.5 -41t44.5 -9h1v-7z" />
    <glyph glyph-name="udieresis" unicode="&#xfc;" horiz-adv-x="534" 
d="M217 628q0 -19 -13 -31.5t-32 -12.5q-18 0 -31 12.5t-13 31.5t13 32t31 13q19 0 32 -13t13 -32zM406 628q0 -18 -13.5 -31t-31.5 -13q-19 0 -31.5 12.5t-12.5 31.5t12.5 32t31.5 13q18 0 31.5 -13t13.5 -32zM499 0h-14q-11 0 -34 1t-40 1q-9 0 -19.5 -1t-13.5 -1v68
l-101 -41q-87 -35 -127 -35q-62 0 -62 70v337q0 32 -9.5 40.5t-44.5 8.5h-1v7h6q33 0 68 13t41 30h6v-439q0 -48 35 -48q25 0 85 24l104 42v322q0 32 -9.5 40.5t-44.5 8.5h-1v7h6q33 0 68 13t41 30h6v-441q0 -32 9.5 -41t44.5 -9h1v-7z" />
    <glyph glyph-name="yacute" unicode="&#xfd;" horiz-adv-x="465" 
d="M187 542l-6 4q21 37 43.5 90t35.5 73q10 15 26 15q12 0 20.5 -8t8.5 -20q0 -11 -6 -20q-12 -18 -53.5 -57.5t-68.5 -76.5zM297 0q-9 0 -20 0.5t-16 0.5q-3 0 -12 -0.5t-14 -0.5l-20 -45q-26 -58 -39.5 -84.5t-35 -56t-45.5 -40t-57 -10.5q-41 0 -41 27q0 12 8 18.5
t20 6.5q11 0 36.5 -6.5t35.5 -6.5q26 0 47.5 31.5t62.5 123.5l19 42l-164 434q-11 29 -25.5 39t-42.5 10v7h23q6 0 27.5 -1.5t40.5 -1.5t40.5 1.5t26.5 1.5h24v-7q-50 0 -50 -24q0 -6 3 -15l135 -357l110 309q8 21 8 40q0 47 -66 47v7h10q12 0 35 -1.5t37 -1.5q15 0 38 1.5
t31 1.5h17v-7q-40 -1 -63 -24.5t-39 -66.5l-113 -317z" />
    <glyph glyph-name="thorn" unicode="&#xfe;" horiz-adv-x="539" 
d="M156 56v-225q0 -31 14 -40.5t51 -9.5h14v-7h-23q-14 0 -41 1.5t-48 1.5q-17 0 -40 -1.5t-34 -1.5h-14v7h1q35 0 44.5 9t9.5 41v794q0 32 -9.5 40.5t-44.5 8.5h-1v7h6q33 0 68 13t41 30h6v-290q74 64 152 64q33 0 63.5 -13t58.5 -41t45 -79.5t17 -119.5t-17 -119.5
t-45 -79.5t-58.5 -41t-63.5 -13q-78 0 -152 64zM416 245q0 76 -8 126t-24 75t-33.5 34t-42.5 9q-78 0 -152 -67v-354q74 -67 152 -67q25 0 42.5 9t33.5 34t24 75t8 126z" />
    <glyph glyph-name="ydieresis" unicode="&#xff;" horiz-adv-x="465" 
d="M193 628q0 -19 -13 -31.5t-32 -12.5q-18 0 -31 12.5t-13 31.5t13 32t31 13q19 0 32 -13t13 -32zM382 628q0 -18 -13.5 -31t-31.5 -13q-19 0 -31.5 12.5t-12.5 31.5t12.5 32t31.5 13q18 0 31.5 -13t13.5 -32zM297 0q-9 0 -20 0.5t-16 0.5q-3 0 -12 -0.5t-14 -0.5l-20 -45
q-26 -58 -39.5 -84.5t-35 -56t-45.5 -40t-57 -10.5q-41 0 -41 27q0 12 8 18.5t20 6.5q11 0 36.5 -6.5t35.5 -6.5q26 0 47.5 31.5t62.5 123.5l19 42l-164 434q-11 29 -25.5 39t-42.5 10v7h23q6 0 27.5 -1.5t40.5 -1.5t40.5 1.5t26.5 1.5h24v-7q-50 0 -50 -24q0 -6 3 -15
l135 -357l110 309q8 21 8 40q0 47 -66 47v7h10q12 0 35 -1.5t37 -1.5q15 0 38 1.5t31 1.5h17v-7q-40 -1 -63 -24.5t-39 -66.5l-113 -317z" />
    <glyph glyph-name="Amacron" unicode="&#x100;" horiz-adv-x="638" 
d="M416 797h-240v22h240v-22zM653 0h-21q-6 0 -32 1.5t-41 1.5q-18 0 -45 -1.5t-32 -1.5h-21v8q52 0 52 31q0 10 -7 25l-52 124h-322l-27 -68q-14 -36 -14 -59q0 -53 71 -53v-8h-12q-11 0 -41 1.5t-43 1.5q-7 0 -34.5 -1.5t-35.5 -1.5h-21v8q41 2 68.5 27.5t51.5 86.5
l187 478l-34 81q9 0 21 -0.5t18 -0.5t17 0.5t18 0.5l260 -621q22 -52 71 -52v-8zM288 589l-152 -391h314z" />
    <glyph glyph-name="amacron" unicode="&#x101;" horiz-adv-x="500" 
d="M373 608h-240v22h240v-22zM403 -8q-30 0 -45.5 19t-15.5 47q-78 -66 -158 -66q-62 0 -98 34t-36 93q0 60 44 101t119 71l129 52v78q0 39 -10 54t-41 15q-51 0 -88.5 -26t-77.5 -75q-14 -17 -29 -17q-10 0 -18 7.5t-8 18.5q0 31 69.5 65.5t152.5 34.5q116 0 116 -91v-362
q0 -35 24 -35q25 0 46 36l5 -3q-27 -51 -80 -51zM193 3q33 0 75 19t74 46v18v248l-126 -52q-54 -23 -72 -61.5t-18 -99.5q0 -118 67 -118z" />
    <glyph glyph-name="Abreve" unicode="&#x102;" horiz-adv-x="638" 
d="M297 758q-83 0 -129 115l6 3q34 -67 123 -67t123 67l6 -3q-46 -115 -129 -115zM653 0h-21q-6 0 -32 1.5t-41 1.5q-18 0 -45 -1.5t-32 -1.5h-21v8q52 0 52 31q0 10 -7 25l-52 124h-322l-27 -68q-14 -36 -14 -59q0 -53 71 -53v-8h-12q-11 0 -41 1.5t-43 1.5
q-7 0 -34.5 -1.5t-35.5 -1.5h-21v8q41 2 68.5 27.5t51.5 86.5l187 478l-34 81q9 0 21 -0.5t18 -0.5t17 0.5t18 0.5l260 -621q22 -52 71 -52v-8zM288 589l-152 -391h314z" />
    <glyph glyph-name="abreve" unicode="&#x103;" horiz-adv-x="500" 
d="M254 569q-83 0 -129 115l6 3q34 -67 123 -67t123 67l6 -3q-46 -115 -129 -115zM403 -8q-30 0 -45.5 19t-15.5 47q-78 -66 -158 -66q-62 0 -98 34t-36 93q0 60 44 101t119 71l129 52v78q0 39 -10 54t-41 15q-51 0 -88.5 -26t-77.5 -75q-14 -17 -29 -17q-10 0 -18 7.5
t-8 18.5q0 31 69.5 65.5t152.5 34.5q116 0 116 -91v-362q0 -35 24 -35q25 0 46 36l5 -3q-27 -51 -80 -51zM193 3q33 0 75 19t74 46v18v248l-126 -52q-54 -23 -72 -61.5t-18 -99.5q0 -118 67 -118z" />
    <glyph glyph-name="Aogonek" unicode="&#x104;" horiz-adv-x="638" 
d="M481 -178q-39 0 -62 19t-23 48q0 55 135 116l-77 183h-322l-27 -68q-14 -36 -14 -59q0 -53 71 -53v-8h-12q-11 0 -41 1.5t-43 1.5q-7 0 -34.5 -1.5t-35.5 -1.5h-21v8q41 2 68.5 27.5t51.5 86.5l187 478l-34 81q9 0 21 -0.5t18 -0.5t17 0.5t18 0.5l260 -621q22 -52 71 -52
v-8h-21q-6 0 -32 1.5t-41 1.5q-8 0 -17 -1q-88 -39 -88 -96q0 -27 17.5 -43.5t44.5 -16.5q41 0 73 40l6 -4q-18 -25 -49.5 -42.5t-64.5 -17.5zM450 198l-162 391l-152 -391h314z" />
    <glyph glyph-name="aogonek" unicode="&#x105;" horiz-adv-x="500" 
d="M403 -8q-30 0 -45.5 19t-15.5 47q-78 -66 -158 -66q-62 0 -98 34t-36 93q0 60 44 101t119 71l129 52v78q0 39 -10 54t-41 15q-51 0 -88.5 -26t-77.5 -75q-14 -17 -29 -17q-10 0 -18 7.5t-8 18.5q0 31 69.5 65.5t152.5 34.5q116 0 116 -91v-362q0 -35 24 -35q25 0 46 36
l5 -3q-18 -34 -53 -48q-32 -13 -55 -36t-23 -53q0 -27 17.5 -43.5t44.5 -16.5q41 0 73 40l6 -4q-18 -25 -49.5 -42.5t-64.5 -17.5q-39 0 -62 19t-23 48q0 50 114 103h-5zM193 3q33 0 75 19t74 46v266l-126 -52q-54 -23 -72 -61.5t-18 -99.5q0 -118 67 -118z" />
    <glyph glyph-name="Cacute" unicode="&#x106;" horiz-adv-x="612" 
d="M267 733l-6 4q21 37 43.5 90t35.5 73q10 15 26 15q12 0 20.5 -8.5t8.5 -19.5t-6 -20q-12 -18 -53.5 -57.5t-68.5 -76.5zM317 -8q-124 0 -203.5 99.5t-79.5 251.5q0 86 28.5 155.5t73 110t93 61.5t94.5 21q35 0 78 -9.5t52 -9.5q35 0 33 33l6 2l92 -227l-6 -3
q-68 112 -128.5 158.5t-126.5 46.5q-93 0 -161.5 -75.5t-68.5 -199.5q0 -164 77.5 -265.5t192.5 -101.5q138 0 213 140l7 -3q-38 -80 -109.5 -132.5t-156.5 -52.5z" />
    <glyph glyph-name="cacute" unicode="&#x107;" horiz-adv-x="472" 
d="M201 542l-6 4q21 37 43.5 90t35.5 73q10 15 26 15q12 0 20.5 -8t8.5 -20q0 -11 -6 -20q-12 -18 -53.5 -57.5t-68.5 -76.5zM252 -8q-84 0 -147 68t-63 177q0 119 64 190t151 71q69 0 120 -43t51 -88q0 -12 -7.5 -20t-19.5 -8q-20 0 -27 20q-1 3 -8 35q-20 96 -110 96
q-67 0 -102.5 -59t-35.5 -155q0 -123 45.5 -192.5t113.5 -69.5q107 0 149 126l6 -2q-47 -146 -180 -146z" />
    <glyph glyph-name="Ccircumflex" unicode="&#x108;" horiz-adv-x="612" 
d="M436 737l-6 -4q-16 21 -34 40.5t-41 42t-33 33.5q-10 -11 -33 -33.5t-41 -42t-34 -40.5l-6 4q21 32 78 144q10 19 17.5 26.5t18.5 7.5t18.5 -7.5t17.5 -26.5q57 -112 78 -144zM317 -8q-124 0 -203.5 99.5t-79.5 251.5q0 86 28.5 155.5t73 110t93 61.5t94.5 21
q35 0 78 -9.5t52 -9.5q35 0 33 33l6 2l92 -227l-6 -3q-68 112 -128.5 158.5t-126.5 46.5q-93 0 -161.5 -75.5t-68.5 -199.5q0 -164 77.5 -265.5t192.5 -101.5q138 0 213 140l7 -3q-38 -80 -109.5 -132.5t-156.5 -52.5z" />
    <glyph glyph-name="ccircumflex" unicode="&#x109;" horiz-adv-x="472" 
d="M370 546l-6 -4q-16 21 -34 40.5t-41 42t-33 33.5q-10 -11 -33 -33.5t-41 -42t-34 -40.5l-6 4q21 32 78 144q10 19 17.5 26.5t18.5 7.5t18.5 -7.5t17.5 -26.5q57 -112 78 -144zM252 -8q-84 0 -147 68t-63 177q0 119 64 190t151 71q69 0 120 -43t51 -88q0 -12 -7.5 -20
t-19.5 -8q-20 0 -27 20q-1 3 -8 35q-20 96 -110 96q-67 0 -102.5 -59t-35.5 -155q0 -123 45.5 -192.5t113.5 -69.5q107 0 149 126l6 -2q-47 -146 -180 -146z" />
    <glyph glyph-name="Cdotaccent" unicode="&#x10a;" horiz-adv-x="612" 
d="M322 757q-20 0 -34 13.5t-14 34.5t14 35t34 14t34.5 -14t14.5 -35t-14 -34.5t-35 -13.5zM317 -8q-124 0 -203.5 99.5t-79.5 251.5q0 86 28.5 155.5t73 110t93 61.5t94.5 21q35 0 78 -9.5t52 -9.5q35 0 33 33l6 2l92 -227l-6 -3q-68 112 -128.5 158.5t-126.5 46.5
q-93 0 -161.5 -75.5t-68.5 -199.5q0 -164 77.5 -265.5t192.5 -101.5q138 0 213 140l7 -3q-38 -80 -109.5 -132.5t-156.5 -52.5z" />
    <glyph glyph-name="cdotaccent" unicode="&#x10b;" horiz-adv-x="472" 
d="M256 576q-20 0 -34 13.5t-14 34.5t14 35t34 14t34.5 -14t14.5 -35t-14 -34.5t-35 -13.5zM252 -8q-84 0 -147 68t-63 177q0 119 64 190t151 71q69 0 120 -43t51 -88q0 -12 -7.5 -20t-19.5 -8q-20 0 -27 20q-1 3 -8 35q-20 96 -110 96q-67 0 -102.5 -59t-35.5 -155
q0 -123 45.5 -192.5t113.5 -69.5q107 0 149 126l6 -2q-47 -146 -180 -146z" />
    <glyph glyph-name="Ccaron" unicode="&#x10c;" horiz-adv-x="612" 
d="M322 734q-11 0 -18.5 7.5t-17.5 26.5q-57 112 -78 144l6 4q16 -21 34 -40.5t41 -42t33 -33.5q10 11 33 33.5t41 42t34 40.5l6 -4q-21 -32 -78 -144q-10 -19 -17.5 -26.5t-18.5 -7.5zM317 -8q-124 0 -203.5 99.5t-79.5 251.5q0 86 28.5 155.5t73 110t93 61.5t94.5 21
q35 0 78 -9.5t52 -9.5q35 0 33 33l6 2l92 -227l-6 -3q-68 112 -128.5 158.5t-126.5 46.5q-93 0 -161.5 -75.5t-68.5 -199.5q0 -164 77.5 -265.5t192.5 -101.5q138 0 213 140l7 -3q-38 -80 -109.5 -132.5t-156.5 -52.5z" />
    <glyph glyph-name="ccaron" unicode="&#x10d;" horiz-adv-x="472" 
d="M256 543q-11 0 -18.5 7.5t-17.5 26.5q-57 112 -78 144l6 4q16 -21 34 -40.5t41 -42t33 -33.5q10 11 33 33.5t41 42t34 40.5l6 -4q-21 -32 -78 -144q-10 -19 -17.5 -26.5t-18.5 -7.5zM252 -8q-84 0 -147 68t-63 177q0 119 64 190t151 71q69 0 120 -43t51 -88
q0 -12 -7.5 -20t-19.5 -8q-20 0 -27 20q-1 3 -8 35q-20 96 -110 96q-67 0 -102.5 -59t-35.5 -155q0 -123 45.5 -192.5t113.5 -69.5q107 0 149 126l6 -2q-47 -146 -180 -146z" />
    <glyph glyph-name="Dcaron" unicode="&#x10e;" horiz-adv-x="634" 
d="M308 734q-11 0 -18.5 7.5t-17.5 26.5q-57 112 -78 144l6 4q16 -21 34 -40.5t41 -42t33 -33.5q10 11 33 33.5t41 42t34 40.5l6 -4q-21 -32 -78 -144q-10 -19 -17.5 -26.5t-18.5 -7.5zM599 340q0 -160 -85 -250t-220 -90h-75q-15 0 -42 0.5t-47 0.5q-16 0 -38 -0.5
t-32 -0.5h-16v8h1q32 0 41.5 8.5t9.5 40.5v567q0 32 -9.5 40.5t-41.5 8.5h-1v8h16q10 0 32 -0.5t38 -0.5q20 0 47 0.5t42 0.5h75q135 0 220 -90t85 -251zM520 340q0 185 -52 258t-190 73h-114v-661h114q138 0 190 73t52 257z" />
    <glyph glyph-name="dcaron" unicode="&#x10f;" horiz-adv-x="551" 
d="M231 -8q-33 0 -63.5 13t-58.5 41t-45 79.5t-17 119.5t17 119.5t45 79.5t58.5 41t63.5 13q78 0 152 -64v191q0 32 -9.5 40.5t-44.5 8.5h-1v7h6q33 0 68 13t41 30h6v-667q0 -32 9.5 -41t44.5 -9h1v-7h-14q-12 0 -34.5 1t-39.5 1q-9 0 -19.5 -1t-13.5 -1v56
q-74 -64 -152 -64zM549 490l-7 2q8 45 12.5 114t10.5 92q7 26 31 26q12 0 21 -7.5t9 -19.5q0 -9 -3 -18q-5 -18 -33 -80t-41 -109zM231 1q78 0 152 67v354q-74 67 -152 67q-25 0 -42.5 -9t-33.5 -34t-24 -75t-8 -126t8 -126t24 -75t33.5 -34t42.5 -9z" />
    <glyph glyph-name="Dcroat" unicode="&#x110;" horiz-adv-x="639" 
d="M604 340q0 -160 -85 -250t-220 -90h-75q-14 0 -41 0.5t-48 0.5q-17 0 -38 -0.5t-32 -0.5h-16v8h1q32 0 41.5 8.5t9.5 40.5v285h-73v10h73v272q0 32 -9.5 40.5t-41.5 8.5h-1v8h16q11 0 32 -0.5t38 -0.5q21 0 48 0.5t41 0.5h75q135 0 220 -90t85 -251zM305 342h-136v-332
h114q138 0 190 73t52 257q0 185 -52 258t-190 73h-114v-319h136v-10z" />
    <glyph glyph-name="dcroat" unicode="&#x111;" horiz-adv-x="539" 
d="M231 -8q-33 0 -63.5 13t-58.5 41t-45 79.5t-17 119.5t17 119.5t45 79.5t58.5 41t63.5 13q78 0 152 -64v132h-107v8h107v51q0 32 -9.5 40.5t-44.5 8.5h-1v7h6q33 0 68 13t41 30h6v-150h65v-8h-65v-509q0 -32 9.5 -41t44.5 -9h1v-7h-14q-12 0 -34.5 1t-39.5 1
q-9 0 -19.5 -1t-13.5 -1v56q-74 -64 -152 -64zM231 1q78 0 152 67v354q-74 67 -152 67q-25 0 -42.5 -9t-33.5 -34t-24 -75t-8 -126t8 -126t24 -75t33.5 -34t42.5 -9z" />
    <glyph glyph-name="Emacron" unicode="&#x112;" horiz-adv-x="615" 
d="M414 797h-240v22h240v-22zM493 -31l-6 2q2 14 -5 21.5t-26 7.5h-237q-15 0 -42 0.5t-47 0.5q-16 0 -38 -0.5t-32 -0.5h-16v8h1q32 0 41.5 8.5t9.5 40.5v567q0 32 -9.5 40.5t-41.5 8.5h-1v8h16q10 0 32 -0.5t38 -0.5q20 0 47 0.5t42 0.5h224q19 0 27 7.5t6 22.5l6 2
l92 -226l-6 -3q-81 114 -113 148q-36 39 -96 39h-195v-320h128q55 0 73 30.5t25 101.5h7v-277h-7q-4 36 -8 55.5t-13.5 40.5t-28.5 30t-48 9h-128v-331h206q33 0 54.5 8.5t46.5 36.5q48 54 111 160l6 -3z" />
    <glyph glyph-name="emacron" unicode="&#x113;" horiz-adv-x="478" 
d="M373 608h-240v22h240v-22zM252 -8q-84 0 -147 67.5t-63 176.5q0 120 64 191t151 71q71 0 125.5 -49.5t50.5 -132.5h-314q-1 -15 -1 -45q0 -109 43.5 -183t115.5 -74q107 0 149 126l6 -2q-47 -146 -180 -146zM365 325q-3 165 -113 165q-56 0 -90 -46t-42 -119h245z" />
    <glyph glyph-name="Ebreve" unicode="&#x114;" horiz-adv-x="615" 
d="M295 758q-83 0 -129 115l6 3q34 -67 123 -67t123 67l6 -3q-46 -115 -129 -115zM493 -31l-6 2q2 14 -5 21.5t-26 7.5h-237q-15 0 -42 0.5t-47 0.5q-16 0 -38 -0.5t-32 -0.5h-16v8h1q32 0 41.5 8.5t9.5 40.5v567q0 32 -9.5 40.5t-41.5 8.5h-1v8h16q10 0 32 -0.5t38 -0.5
q20 0 47 0.5t42 0.5h224q19 0 27 7.5t6 22.5l6 2l92 -226l-6 -3q-81 114 -113 148q-36 39 -96 39h-195v-320h128q55 0 73 30.5t25 101.5h7v-277h-7q-4 36 -8 55.5t-13.5 40.5t-28.5 30t-48 9h-128v-331h206q33 0 54.5 8.5t46.5 36.5q48 54 111 160l6 -3z" />
    <glyph glyph-name="ebreve" unicode="&#x115;" horiz-adv-x="478" 
d="M254 569q-83 0 -129 115l6 3q34 -67 123 -67t123 67l6 -3q-46 -115 -129 -115zM252 -8q-84 0 -147 67.5t-63 176.5q0 120 64 191t151 71q71 0 125.5 -49.5t50.5 -132.5h-314q-1 -15 -1 -45q0 -109 43.5 -183t115.5 -74q107 0 149 126l6 -2q-47 -146 -180 -146zM365 325
q-3 165 -113 165q-56 0 -90 -46t-42 -119h245z" />
    <glyph glyph-name="Edotaccent" unicode="&#x116;" horiz-adv-x="615" 
d="M295 755q-20 0 -34 13.5t-14 34.5t14 35t34 14t34.5 -14t14.5 -35t-14 -34.5t-35 -13.5zM493 -31l-6 2q2 14 -5 21.5t-26 7.5h-237q-15 0 -42 0.5t-47 0.5q-16 0 -38 -0.5t-32 -0.5h-16v8h1q32 0 41.5 8.5t9.5 40.5v567q0 32 -9.5 40.5t-41.5 8.5h-1v8h16q10 0 32 -0.5
t38 -0.5q20 0 47 0.5t42 0.5h224q19 0 27 7.5t6 22.5l6 2l92 -226l-6 -3q-81 114 -113 148q-36 39 -96 39h-195v-320h128q55 0 73 30.5t25 101.5h7v-277h-7q-4 36 -8 55.5t-13.5 40.5t-28.5 30t-48 9h-128v-331h206q33 0 54.5 8.5t46.5 36.5q48 54 111 160l6 -3z" />
    <glyph glyph-name="edotaccent" unicode="&#x117;" horiz-adv-x="478" 
d="M254 576q-20 0 -34 13.5t-14 34.5t14 35t34 14t34.5 -14t14.5 -35t-14 -34.5t-35 -13.5zM252 -8q-84 0 -147 67.5t-63 176.5q0 120 64 191t151 71q71 0 125.5 -49.5t50.5 -132.5h-314q-1 -15 -1 -45q0 -109 43.5 -183t115.5 -74q107 0 149 126l6 -2q-47 -146 -180 -146z
M365 325q-3 165 -113 165q-56 0 -90 -46t-42 -119h245z" />
    <glyph glyph-name="Eogonek" unicode="&#x118;" horiz-adv-x="615" 
d="M493 -31l-6 2q2 14 -5 21.5t-26 7.5h-35q-85 -40 -85 -94q0 -27 17.5 -43.5t44.5 -16.5q41 0 73 40l6 -4q-18 -25 -49.5 -42.5t-64.5 -17.5q-39 0 -62 19t-23 48q0 32 41 61.5t88 49.5h-188q-15 0 -42 0.5t-47 0.5q-16 0 -38 -0.5t-32 -0.5h-16v8h1q32 0 41.5 8.5
t9.5 40.5v567q0 32 -9.5 40.5t-41.5 8.5h-1v8h16q10 0 32 -0.5t38 -0.5q20 0 47 0.5t42 0.5h224q19 0 27 7.5t6 22.5l6 2l92 -226l-6 -3q-81 114 -113 148q-36 39 -96 39h-195v-320h128q55 0 73 30.5t25 101.5h7v-277h-7q-4 36 -8 55.5t-13.5 40.5t-28.5 30t-48 9h-128v-331
h206q33 0 54.5 8.5t46.5 36.5q48 54 111 160l6 -3z" />
    <glyph glyph-name="eogonek" unicode="&#x119;" horiz-adv-x="478" 
d="M252 -8q-84 0 -147 67.5t-63 176.5q0 120 64 191t151 71q71 0 125.5 -49.5t50.5 -132.5h-314q-1 -15 -1 -45q0 -109 43.5 -183t115.5 -74q107 0 149 126l6 -2q-33 -103 -116 -139q-84 -36 -84 -93q0 -27 17.5 -43.5t44.5 -16.5q41 0 73 40l6 -4q-18 -25 -49.5 -42.5
t-64.5 -17.5q-39 0 -62 19t-23 48q0 51 120 107q-15 -4 -42 -4zM365 325q-3 165 -113 165q-56 0 -90 -46t-42 -119h245z" />
    <glyph glyph-name="Ecaron" unicode="&#x11a;" horiz-adv-x="615" 
d="M295 732q-11 0 -18.5 7.5t-17.5 26.5q-57 112 -78 144l6 4q16 -21 34 -40.5t41 -42t33 -33.5q10 11 33 33.5t41 42t34 40.5l6 -4q-21 -32 -78 -144q-10 -19 -17.5 -26.5t-18.5 -7.5zM493 -31l-6 2q2 14 -5 21.5t-26 7.5h-237q-15 0 -42 0.5t-47 0.5q-16 0 -38 -0.5
t-32 -0.5h-16v8h1q32 0 41.5 8.5t9.5 40.5v567q0 32 -9.5 40.5t-41.5 8.5h-1v8h16q10 0 32 -0.5t38 -0.5q20 0 47 0.5t42 0.5h224q19 0 27 7.5t6 22.5l6 2l92 -226l-6 -3q-81 114 -113 148q-36 39 -96 39h-195v-320h128q55 0 73 30.5t25 101.5h7v-277h-7q-4 36 -8 55.5
t-13.5 40.5t-28.5 30t-48 9h-128v-331h206q33 0 54.5 8.5t46.5 36.5q48 54 111 160l6 -3z" />
    <glyph glyph-name="ecaron" unicode="&#x11b;" horiz-adv-x="478" 
d="M254 543q-11 0 -18.5 7.5t-17.5 26.5q-57 112 -78 144l6 4q16 -21 34 -40.5t41 -42t33 -33.5q10 11 33 33.5t41 42t34 40.5l6 -4q-21 -32 -78 -144q-10 -19 -17.5 -26.5t-18.5 -7.5zM252 -8q-84 0 -147 67.5t-63 176.5q0 120 64 191t151 71q71 0 125.5 -49.5t50.5 -132.5
h-314q-1 -15 -1 -45q0 -109 43.5 -183t115.5 -74q107 0 149 126l6 -2q-47 -146 -180 -146zM365 325q-3 165 -113 165q-56 0 -90 -46t-42 -119h245z" />
    <glyph glyph-name="Gcircumflex" unicode="&#x11c;" horiz-adv-x="648" 
d="M450 737l-6 -4q-16 21 -34 40.5t-41 42t-33 33.5q-10 -11 -33 -33.5t-41 -42t-34 -40.5l-6 4q21 32 78 144q10 19 17.5 26.5t18.5 7.5t18.5 -7.5t17.5 -26.5q57 -112 78 -144zM572 244v-254h-6q-5 35 -57 75q-76 -73 -182 -73q-126 0 -209.5 100t-83.5 239
q0 90 26.5 161.5t69.5 113.5t93 63.5t101 21.5q45 0 87.5 -9.5t49.5 -9.5q15 0 25 8t9 25l6 2l92 -227l-6 -3q-71 114 -130.5 159.5t-132.5 45.5q-94 0 -153 -82.5t-59 -254.5q0 -165 60 -253t172 -88q49 0 92 22t68 48v170q0 32 -9.5 40.5t-41.5 8.5h-1v8h16q10 0 32 -1.5
t38 -1.5t38 1.5t32 1.5h16v-8h-1q-32 0 -41.5 -8.5t-9.5 -40.5z" />
    <glyph glyph-name="gcircumflex" unicode="&#x11d;" horiz-adv-x="518" 
d="M369 546l-6 -4q-16 21 -34 40.5t-41 42t-33 33.5q-10 -11 -33 -33.5t-41 -42t-34 -40.5l-6 4q21 32 78 144q10 19 17.5 26.5t18.5 7.5t18.5 -7.5t17.5 -26.5q57 -112 78 -144zM245 -234q-106 0 -168 33t-62 76q0 75 154 111q-121 16 -121 76q0 18 10 32.5t29 26.5
t35.5 19t41.5 16q-47 20 -75.5 62.5t-28.5 99.5q0 78 53 129t132 51q69 0 117 -37q53 69 106 69q38 0 38 -27q0 -12 -7.5 -19t-18.5 -7q-12 0 -29 7.5t-32 7.5q-23 0 -51 -36q62 -52 62 -138q0 -78 -53 -128.5t-132 -50.5q-38 0 -71 12q-41 -13 -61.5 -27t-20.5 -35
q0 -36 102 -47l123 -13q171 -18 171 -125q0 -66 -72.5 -102t-170.5 -36zM245 147q115 0 115 171q0 172 -115 172t-115 -172q0 -171 115 -171zM245 -226q89 0 143 29t54 80q0 71 -138 87l-117 13q-115 -30 -115 -104q0 -44 46 -74.5t127 -30.5z" />
    <glyph glyph-name="Gbreve" unicode="&#x11e;" horiz-adv-x="648" 
d="M336 760q-83 0 -129 115l6 3q34 -67 123 -67t123 67l6 -3q-46 -115 -129 -115zM572 244v-254h-6q-5 35 -57 75q-76 -73 -182 -73q-126 0 -209.5 100t-83.5 239q0 90 26.5 161.5t69.5 113.5t93 63.5t101 21.5q45 0 87.5 -9.5t49.5 -9.5q15 0 25 8t9 25l6 2l92 -227l-6 -3
q-71 114 -130.5 159.5t-132.5 45.5q-94 0 -153 -82.5t-59 -254.5q0 -165 60 -253t172 -88q49 0 92 22t68 48v170q0 32 -9.5 40.5t-41.5 8.5h-1v8h16q10 0 32 -1.5t38 -1.5t38 1.5t32 1.5h16v-8h-1q-32 0 -41.5 -8.5t-9.5 -40.5z" />
    <glyph glyph-name="gbreve" unicode="&#x11f;" horiz-adv-x="518" 
d="M255 569q-83 0 -129 115l6 3q34 -67 123 -67t123 67l6 -3q-46 -115 -129 -115zM245 -234q-106 0 -168 33t-62 76q0 75 154 111q-121 16 -121 76q0 18 10 32.5t29 26.5t35.5 19t41.5 16q-47 20 -75.5 62.5t-28.5 99.5q0 78 53 129t132 51q69 0 117 -37q53 69 106 69
q38 0 38 -27q0 -12 -7.5 -19t-18.5 -7q-12 0 -29 7.5t-32 7.5q-23 0 -51 -36q62 -52 62 -138q0 -78 -53 -128.5t-132 -50.5q-38 0 -71 12q-41 -13 -61.5 -27t-20.5 -35q0 -36 102 -47l123 -13q171 -18 171 -125q0 -66 -72.5 -102t-170.5 -36zM245 147q115 0 115 171
q0 172 -115 172t-115 -172q0 -171 115 -171zM245 -226q89 0 143 29t54 80q0 71 -138 87l-117 13q-115 -30 -115 -104q0 -44 46 -74.5t127 -30.5z" />
    <glyph glyph-name="Gdotaccent" unicode="&#x120;" horiz-adv-x="648" 
d="M336 757q-20 0 -34 13.5t-14 34.5t14 35t34 14t34.5 -14t14.5 -35t-14 -34.5t-35 -13.5zM572 244v-254h-6q-5 35 -57 75q-76 -73 -182 -73q-126 0 -209.5 100t-83.5 239q0 90 26.5 161.5t69.5 113.5t93 63.5t101 21.5q45 0 87.5 -9.5t49.5 -9.5q15 0 25 8t9 25l6 2
l92 -227l-6 -3q-71 114 -130.5 159.5t-132.5 45.5q-94 0 -153 -82.5t-59 -254.5q0 -165 60 -253t172 -88q49 0 92 22t68 48v170q0 32 -9.5 40.5t-41.5 8.5h-1v8h16q10 0 32 -1.5t38 -1.5t38 1.5t32 1.5h16v-8h-1q-32 0 -41.5 -8.5t-9.5 -40.5z" />
    <glyph glyph-name="gdotaccent" unicode="&#x121;" horiz-adv-x="518" 
d="M255 576q-20 0 -34 13.5t-14 34.5t14 35t34 14t34.5 -14t14.5 -35t-14 -34.5t-35 -13.5zM245 -234q-106 0 -168 33t-62 76q0 75 154 111q-121 16 -121 76q0 18 10 32.5t29 26.5t35.5 19t41.5 16q-47 20 -75.5 62.5t-28.5 99.5q0 78 53 129t132 51q69 0 117 -37
q53 69 106 69q38 0 38 -27q0 -12 -7.5 -19t-18.5 -7q-12 0 -29 7.5t-32 7.5q-23 0 -51 -36q62 -52 62 -138q0 -78 -53 -128.5t-132 -50.5q-38 0 -71 12q-41 -13 -61.5 -27t-20.5 -35q0 -36 102 -47l123 -13q171 -18 171 -125q0 -66 -72.5 -102t-170.5 -36zM245 147
q115 0 115 171q0 172 -115 172t-115 -172q0 -171 115 -171zM245 -226q89 0 143 29t54 80q0 71 -138 87l-117 13q-115 -30 -115 -104q0 -44 46 -74.5t127 -30.5z" />
    <glyph glyph-name="uni0122" unicode="&#x122;" horiz-adv-x="648" 
d="M572 244v-254h-6q-5 35 -57 75q-76 -73 -182 -73q-126 0 -209.5 100t-83.5 239q0 90 26.5 161.5t69.5 113.5t93 63.5t101 21.5q45 0 87.5 -9.5t49.5 -9.5q15 0 25 8t9 25l6 2l92 -227l-6 -3q-71 114 -130.5 159.5t-132.5 45.5q-94 0 -153 -82.5t-59 -254.5
q0 -165 60 -253t172 -88q49 0 92 22t68 48v170q0 32 -9.5 40.5t-41.5 8.5h-1v8h16q10 0 32 -1.5t38 -1.5t38 1.5t32 1.5h16v-8h-1q-32 0 -41.5 -8.5t-9.5 -40.5zM332 -155q-19 0 -31 12.5t-12 30.5t12.5 31t32.5 13q21 0 35.5 -16.5t14.5 -40.5q0 -48 -25.5 -78t-56.5 -37
l-1 6q28 7 50 33t22 62q0 5 -1 11q-12 -27 -40 -27z" />
    <glyph glyph-name="uni0123" unicode="&#x123;" horiz-adv-x="518" 
d="M260 653q19 0 31 -12.5t12 -30.5t-12.5 -31t-32.5 -13q-21 0 -35.5 16.5t-14.5 40.5q0 48 25.5 78t56.5 37l1 -6q-28 -7 -50 -33t-22 -62q0 -5 1 -11q12 27 40 27zM245 -234q-106 0 -168 33t-62 76q0 75 154 111q-121 16 -121 76q0 18 10 32.5t29 26.5t35.5 19t41.5 16
q-47 20 -75.5 62.5t-28.5 99.5q0 78 53 129t132 51q69 0 117 -37q53 69 106 69q38 0 38 -27q0 -12 -7.5 -19t-18.5 -7q-12 0 -29 7.5t-32 7.5q-23 0 -51 -36q62 -52 62 -138q0 -78 -53 -128.5t-132 -50.5q-38 0 -71 12q-41 -13 -61.5 -27t-20.5 -35q0 -36 102 -47l123 -13
q171 -18 171 -125q0 -66 -72.5 -102t-170.5 -36zM245 147q115 0 115 171q0 172 -115 172t-115 -172q0 -171 115 -171zM245 -226q89 0 143 29t54 80q0 71 -138 87l-117 13q-115 -30 -115 -104q0 -44 46 -74.5t127 -30.5z" />
    <glyph glyph-name="Hcircumflex" unicode="&#x124;" horiz-adv-x="691" 
d="M460 735l-6 -4q-16 21 -34 40.5t-41 42t-33 33.5q-10 -11 -33 -33.5t-41 -42t-34 -40.5l-6 4q21 32 78 144q10 19 17.5 26.5t18.5 7.5t18.5 -7.5t17.5 -26.5q57 -112 78 -144zM595 57q0 -32 9.5 -40.5t41.5 -8.5h1v-8h-16q-11 0 -32 1.5t-38 1.5t-38 -1.5t-32 -1.5h-16v8
h1q32 0 41.5 8.5t9.5 40.5v284h-363v-284q0 -32 9.5 -40.5t41.5 -8.5h1v-8h-16q-10 0 -32 1.5t-38 1.5t-38 -1.5t-32 -1.5h-16v8h1q32 0 41.5 8.5t9.5 40.5v567q0 32 -9.5 40.5t-41.5 8.5h-1v8h16q10 0 32 -1.5t38 -1.5t38 1.5t32 1.5h16v-8h-1q-32 0 -41.5 -8.5t-9.5 -40.5
v-273h363v273q0 32 -9.5 40.5t-41.5 8.5h-1v8h16q11 0 32 -1.5t38 -1.5t38 1.5t32 1.5h16v-8h-1q-32 0 -41.5 -8.5t-9.5 -40.5v-567z" />
    <glyph glyph-name="hcircumflex" unicode="&#x125;" horiz-adv-x="539" 
d="M230 737l-6 -4q-16 21 -34 40.5t-41 42t-33 33.5q-10 -11 -33 -33.5t-41 -42t-34 -40.5l-6 4q21 32 78 144q10 19 17.5 26.5t18.5 7.5t18.5 -7.5t17.5 -26.5q57 -112 78 -144zM451 428v-371q0 -32 9.5 -41t44.5 -9h1v-7h-14q-12 0 -34 1.5t-40 1.5t-40 -1.5t-34 -1.5h-14
v7h1q35 0 44.5 9t9.5 41v374q0 48 -35 48q-20 0 -85 -24l-109 -42v-356q0 -32 9.5 -41t44.5 -9h1v-7h-14q-11 0 -34 1.5t-40 1.5t-40 -1.5t-34 -1.5h-14v7h1q35 0 44.5 9t9.5 41v568q0 32 -9.5 40.5t-44.5 8.5h-1v7h6q33 0 68 13t41 30h6v-302l106 41q89 35 127 35
q62 0 62 -70z" />
    <glyph glyph-name="Hbar" unicode="&#x126;" horiz-adv-x="697" 
d="M651 0h-16q-11 0 -32 1.5t-38 1.5t-38.5 -1.5t-31.5 -1.5h-16v8h1q32 0 41.5 8.5t9.5 40.5v252h-363v-252q0 -32 9.5 -40.5t41.5 -8.5h1v-8h-16q-10 0 -32 1.5t-38 1.5t-38 -1.5t-32 -1.5h-16v8h1q32 0 41.5 8.5t9.5 40.5v415h-75v10h75v142q0 32 -9.5 40.5t-41.5 8.5h-1
v8h16q10 0 32 -1.5t38 -1.5t38 1.5t32 1.5h16v-8h-1q-32 0 -41.5 -8.5t-9.5 -40.5v-142h363v142q0 32 -9.5 40.5t-41.5 8.5h-1v8h16q10 0 31.5 -1.5t38.5 -1.5t38 1.5t32 1.5h16v-8h-1q-32 0 -41.5 -8.5t-9.5 -40.5v-142h73v-10h-73v-415q0 -32 9.5 -40.5t41.5 -8.5h1v-8z
M531 319v153h-363v-153h363z" />
    <glyph glyph-name="hbar" unicode="&#x127;" horiz-adv-x="539" 
d="M451 428v-371q0 -32 9.5 -41t44.5 -9h1v-7h-14q-12 0 -34 1.5t-40 1.5t-40 -1.5t-34 -1.5h-14v7h1q34 0 44 9t10 41v374q0 48 -35 48q-20 0 -85 -24l-109 -42v-356q0 -32 9.5 -41t44.5 -9h1v-7h-14q-11 0 -34 1.5t-40 1.5t-40 -1.5t-34 -1.5h-14v7h1q35 0 44.5 9t9.5 41
v509h-65v8h65v51q0 32 -9.5 40.5t-44.5 8.5h-1v7h6q33 0 68 13t41 30h6v-150h107v-8h-107v-144l106 41q89 35 127 35q62 0 62 -70z" />
    <glyph glyph-name="Itilde" unicode="&#x128;" horiz-adv-x="260" 
d="M170 777q-20 0 -54.5 21.5t-61.5 21.5q-25 0 -59 -56l-6 4q1 1 10.5 17.5t13.5 21.5t14.5 18.5t18.5 19t20 11t24 5.5q20 0 55 -21.5t61 -21.5q25 0 59 56l6 -4q-1 -1 -10.5 -17.5t-13.5 -21.5t-14.5 -18.5t-18.5 -19t-20 -11t-24 -5.5zM164 57q0 -32 9.5 -40.5
t41.5 -8.5h1v-8h-16q-10 0 -32 1.5t-38 1.5t-38 -1.5t-32 -1.5h-16v8h1q32 0 41.5 8.5t9.5 40.5v567q0 32 -9.5 40.5t-41.5 8.5h-1v8h16q10 0 32 -1.5t38 -1.5t38 1.5t32 1.5h16v-8h-1q-32 0 -41.5 -8.5t-9.5 -40.5v-567z" />
    <glyph glyph-name="itilde" unicode="&#x129;" horiz-adv-x="254" 
d="M171 588q-21 0 -55 21.5t-61 21.5q-25 0 -59 -56l-6 4q1 1 10.5 17.5t13.5 21.5t14.5 18.5t18.5 19t20 11t24 5.5q21 0 55 -21.5t61 -21.5q25 0 59 56l6 -4q-1 -1 -10.5 -17.5t-13.5 -21.5t-14.5 -18.5t-18.5 -19t-20 -11t-24 -5.5zM219 0h-14q-11 0 -34 1.5t-40 1.5
t-40 -1.5t-34 -1.5h-14v7h1q35 0 44.5 9t9.5 41v342q0 32 -9.5 40.5t-44.5 8.5h-1v7h6q33 0 68 13t41 30h6v-441q0 -32 9.5 -41t44.5 -9h1v-7z" />
    <glyph glyph-name="Imacron" unicode="&#x12a;" horiz-adv-x="260" 
d="M249 797h-240v22h240v-22zM164 57q0 -32 9.5 -40.5t41.5 -8.5h1v-8h-16q-10 0 -32 1.5t-38 1.5t-38 -1.5t-32 -1.5h-16v8h1q32 0 41.5 8.5t9.5 40.5v567q0 32 -9.5 40.5t-41.5 8.5h-1v8h16q10 0 32 -1.5t38 -1.5t38 1.5t32 1.5h16v-8h-1q-32 0 -41.5 -8.5t-9.5 -40.5
v-567z" />
    <glyph glyph-name="imacron" unicode="&#x12b;" horiz-adv-x="254" 
d="M250 608h-240v22h240v-22zM219 0h-14q-11 0 -34 1.5t-40 1.5t-40 -1.5t-34 -1.5h-14v7h1q35 0 44.5 9t9.5 41v342q0 32 -9.5 40.5t-44.5 8.5h-1v7h6q33 0 68 13t41 30h6v-441q0 -32 9.5 -41t44.5 -9h1v-7z" />
    <glyph glyph-name="Ibreve" unicode="&#x12c;" horiz-adv-x="260" 
d="M130 758q-83 0 -129 115l6 3q34 -67 123 -67t123 67l6 -3q-46 -115 -129 -115zM164 57q0 -32 9.5 -40.5t41.5 -8.5h1v-8h-16q-10 0 -32 1.5t-38 1.5t-38 -1.5t-32 -1.5h-16v8h1q32 0 41.5 8.5t9.5 40.5v567q0 32 -9.5 40.5t-41.5 8.5h-1v8h16q10 0 32 -1.5t38 -1.5
t38 1.5t32 1.5h16v-8h-1q-32 0 -41.5 -8.5t-9.5 -40.5v-567z" />
    <glyph glyph-name="ibreve" unicode="&#x12d;" horiz-adv-x="254" 
d="M131 569q-83 0 -129 115l6 3q34 -67 123 -67t123 67l6 -3q-46 -115 -129 -115zM219 0h-14q-11 0 -34 1.5t-40 1.5t-40 -1.5t-34 -1.5h-14v7h1q35 0 44.5 9t9.5 41v342q0 32 -9.5 40.5t-44.5 8.5h-1v7h6q33 0 68 13t41 30h6v-441q0 -32 9.5 -41t44.5 -9h1v-7z" />
    <glyph glyph-name="Iogonek" unicode="&#x12e;" horiz-adv-x="260" 
d="M164 57q0 -32 9.5 -40.5t41.5 -8.5h1v-8h-16q-12 0 -38 2q-85 -40 -85 -96q0 -27 17.5 -43.5t44.5 -16.5q41 0 73 40l6 -4q-18 -25 -49.5 -42.5t-64.5 -17.5q-39 0 -62 19t-23 48q0 23 26.5 48.5t51.5 39.5t52 26h-19q-16 0 -38 -1.5t-32 -1.5h-16v8h1q32 0 41.5 8.5
t9.5 40.5v567q0 32 -9.5 40.5t-41.5 8.5h-1v8h16q10 0 32 -1.5t38 -1.5t38 1.5t32 1.5h16v-8h-1q-32 0 -41.5 -8.5t-9.5 -40.5v-567z" />
    <glyph glyph-name="iogonek" unicode="&#x12f;" horiz-adv-x="254" 
d="M131 592q-20 0 -34 13.5t-14 34.5t14 35t34 14t34.5 -14t14.5 -35t-14 -34.5t-35 -13.5zM219 0h-14q-14 0 -42 2q-85 -40 -85 -96q0 -27 17.5 -43.5t44.5 -16.5q41 0 73 40l6 -4q-18 -25 -49.5 -42.5t-64.5 -17.5q-39 0 -62 19t-23 48q0 23 26.5 48.5t51.5 39.5t52 26
h-19q-17 0 -40 -1.5t-34 -1.5h-14v7h1q35 0 44.5 9t9.5 41v342q0 32 -9.5 40.5t-44.5 8.5h-1v7h6q33 0 68 13t41 30h6v-441q0 -32 9.5 -41t44.5 -9h1v-7z" />
    <glyph glyph-name="Idotaccent" unicode="&#x130;" horiz-adv-x="260" 
d="M130 755q-20 0 -34 13.5t-14 34.5t14 35t34 14t34.5 -14t14.5 -35t-14 -34.5t-35 -13.5zM164 57q0 -32 9.5 -40.5t41.5 -8.5h1v-8h-16q-10 0 -32 1.5t-38 1.5t-38 -1.5t-32 -1.5h-16v8h1q32 0 41.5 8.5t9.5 40.5v567q0 32 -9.5 40.5t-41.5 8.5h-1v8h16q10 0 32 -1.5
t38 -1.5t38 1.5t32 1.5h16v-8h-1q-32 0 -41.5 -8.5t-9.5 -40.5v-567z" />
    <glyph glyph-name="dotlessi" unicode="&#x131;" horiz-adv-x="254" 
d="M219 0h-14q-11 0 -34 1.5t-40 1.5t-40 -1.5t-34 -1.5h-14v7h1q35 0 44.5 9t9.5 41v342q0 32 -9.5 40.5t-44.5 8.5h-1v7h6q33 0 68 13t41 30h6v-441q0 -32 9.5 -41t44.5 -9h1v-7z" />
    <glyph glyph-name="IJ" unicode="&#x132;" horiz-adv-x="556" 
d="M164 57q0 -32 9.5 -40.5t41.5 -8.5h1v-8h-16q-10 0 -32 1.5t-38 1.5t-38 -1.5t-32 -1.5h-16v8h1q32 0 41.5 8.5t9.5 40.5v567q0 32 -9.5 40.5t-41.5 8.5h-1v8h16q10 0 32 -1.5t38 -1.5t38 1.5t32 1.5h16v-8h-1q-32 0 -41.5 -8.5t-9.5 -40.5v-567zM467 196
q0 -151 -60 -222.5t-154 -71.5q-35 0 -35 30q0 14 8.5 22.5t22.5 8.5q11 0 44 -11t49 -11q31 0 44 27.5t13 84.5v571q0 32 -9.5 40.5t-41.5 8.5h-1v8h16q11 0 32 -1.5t38 -1.5q16 0 37.5 1.5t32.5 1.5h16v-8h-1q-32 0 -41.5 -8.5t-9.5 -40.5v-428z" />
    <glyph glyph-name="ij" unicode="&#x133;" horiz-adv-x="495" 
d="M131 592q-20 0 -34 13.5t-14 34.5t14 35t34 14t34.5 -14t14.5 -35t-14 -34.5t-35 -13.5zM385 592q-20 0 -34 13.5t-14 34.5t14 35t34 14t34.5 -14t14.5 -35t-14 -34.5t-35 -13.5zM219 0h-14q-11 0 -34 1.5t-40 1.5t-40 -1.5t-34 -1.5h-14v7h1q35 0 44.5 9t9.5 41v342
q0 32 -9.5 40.5t-44.5 8.5h-1v7h6q33 0 68 13t41 30h6v-441q0 -32 9.5 -41t44.5 -9h1v-7zM230 -236q-13 0 -22 7t-9 19q0 26 29 26q12 0 37 -5t33 -5q54 0 54 85v508q0 32 -9.5 40.5t-44.5 8.5h-1v7h6q33 0 68 13t41 30h6v-459q0 -106 -46 -184q-54 -91 -142 -91z" />
    <glyph glyph-name="Jcircumflex" unicode="&#x134;" horiz-adv-x="296" 
d="M288 735l-6 -4q-16 21 -34 40.5t-41 42t-33 33.5q-10 -11 -33 -33.5t-41 -42t-34 -40.5l-6 4q21 32 78 144q10 19 17.5 26.5t18.5 7.5t18.5 -7.5t17.5 -26.5q57 -112 78 -144zM207 196q0 -151 -60 -222.5t-154 -71.5q-35 0 -35 30q0 14 8.5 22.5t22.5 8.5q11 0 44 -11
t49 -11q31 0 44 27.5t13 84.5v571q0 32 -9.5 40.5t-41.5 8.5h-1v8h16q11 0 32 -1.5t38 -1.5t38 1.5t32 1.5h16v-8h-1q-32 0 -41.5 -8.5t-9.5 -40.5v-428z" />
    <glyph glyph-name="jcircumflex" unicode="&#x135;" horiz-adv-x="241" 
d="M245 546l-6 -4q-16 21 -34 40.5t-41 42t-33 33.5q-10 -11 -33 -33.5t-41 -42t-34 -40.5l-6 4q21 32 78 144q10 19 17.5 26.5t18.5 7.5t18.5 -7.5t17.5 -26.5q57 -112 78 -144zM164 39q0 -106 -46 -184q-54 -91 -142 -91q-13 0 -22 7t-9 19q0 26 29 26q12 0 37 -5t33 -5
q54 0 54 85v508q0 32 -9.5 40.5t-44.5 8.5h-1v7h6q33 0 68 13t41 30h6v-459z" />
    <glyph glyph-name="uni0136" unicode="&#x136;" horiz-adv-x="652" 
d="M652 0h-39q-5 0 -28.5 1.5t-41.5 1.5q-17 0 -41.5 -1.5t-29.5 -1.5h-39v8h11q44 0 44 27q0 12 -12 29l-189 297l-123 -147v-157q0 -32 9.5 -40.5t41.5 -8.5h1v-8h-16q-10 0 -32 1.5t-38 1.5t-38 -1.5t-32 -1.5h-16v8h1q32 0 41.5 8.5t9.5 40.5v567q0 32 -9.5 40.5
t-41.5 8.5h-1v8h16q10 0 32 -1.5t38 -1.5t38 1.5t32 1.5h16v-8h-1q-32 0 -41.5 -8.5t-9.5 -40.5v-395l117 140l-34 53q36 -1 79 0l143 170q23 27 23 49q0 32 -61 32v8h17q11 0 35.5 -1.5t36.5 -1.5q17 0 42 1.5t32 1.5h21v-8q-65 0 -138 -86l-144 -172l227 -356
q33 -51 92 -51v-8zM325 -155q-19 0 -31 12.5t-12 30.5t12.5 31t32.5 13q21 0 35.5 -16.5t14.5 -40.5q0 -48 -25.5 -78t-56.5 -37l-1 6q28 7 50 33t22 62q0 5 -1 11q-12 -27 -40 -27z" />
    <glyph glyph-name="uni0137" unicode="&#x137;" horiz-adv-x="525" 
d="M370 397l-77 -80l163 -265q17 -27 30 -36t38 -9h1v-7h-12q-5 0 -29 1.5t-43 1.5t-42 -1.5t-28 -1.5h-24v7h1q43 0 43 18q0 7 -6 17l-139 226l-90 -93v-118q0 -32 9.5 -41t44.5 -9h1v-7h-14q-11 0 -34 1.5t-40 1.5t-40 -1.5t-34 -1.5h-14v7h1q35 0 44.5 9t9.5 41v568
q0 32 -9.5 40.5t-44.5 8.5h-1v7h6q33 0 68 13t41 30h6v-537l85 88l-26 43h68l80 83q30 31 30 51q0 31 -48 31h-1v7h13q11 0 32 -1.5t39 -1.5t39.5 1.5t32.5 1.5h14v-7h-1q-59 0 -143 -86zM268 -155q-19 0 -31 12.5t-12 30.5t12.5 31t32.5 13q21 0 35.5 -16.5t14.5 -40.5
q0 -48 -25.5 -78t-56.5 -37l-1 6q28 7 50 33t22 62q0 5 -1 11q-12 -27 -40 -27z" />
    <glyph glyph-name="kgreenlandic" unicode="&#x138;" horiz-adv-x="533" 
d="M533 0h-12q-5 0 -29 1.5t-43 1.5t-42 -1.5t-28 -1.5h-24v7h1q43 0 43 18q0 7 -6 17l-139 226l-90 -93v-118q0 -32 9.5 -41t44.5 -9h1v-7h-14q-11 0 -34 1.5t-40 1.5t-40 -1.5t-34 -1.5h-14v7h1q35 0 44.5 9t9.5 41v342q0 32 -9.5 40.5t-44.5 8.5h-1v7h6q33 0 68 13t41 30
h6v-311l85 88l-26 43h68l80 83q30 31 30 51q0 31 -48 31h-1v7h13q11 0 32 -1.5t39 -1.5t39.5 1.5t32.5 1.5h14v-7h-1q-59 0 -143 -86l-77 -80l163 -265q17 -27 30 -36t38 -9h1v-7z" />
    <glyph glyph-name="Lacute" unicode="&#x139;" horiz-adv-x="561" 
d="M82 733l-6 4q21 37 43.5 90t35.5 73q11 15 26 15q13 0 21 -8.5t8 -19.5t-6 -20q-12 -18 -53.5 -57.5t-68.5 -76.5zM558 225l-100 -256l-6 2q2 15 -5 22t-26 7h-221q-10 0 -32 0.5t-38 0.5t-38 -0.5t-32 -0.5h-16v8h1q32 0 41.5 8.5t9.5 40.5v567q0 32 -9.5 40.5
t-41.5 8.5h-1v8h16q10 0 32 -1.5t38 -1.5t38 1.5t32 1.5h16v-8h-1q-32 0 -41.5 -8.5t-9.5 -40.5v-614h171q33 0 54.5 8.5t46.5 36.5q40 45 116 173z" />
    <glyph glyph-name="lacute" unicode="&#x13a;" horiz-adv-x="246" 
d="M67 776l-6 4q21 37 43.5 90t35.5 73q10 15 26 15q12 0 20.5 -8t8.5 -20q0 -11 -6 -20q-12 -18 -53.5 -57.5t-68.5 -76.5zM156 57q0 -32 9.5 -41t44.5 -9h1v-7h-14q-11 0 -34 1.5t-40 1.5t-40 -1.5t-34 -1.5h-14v7h1q35 0 44.5 9t9.5 41v568q0 32 -9.5 40.5t-44.5 8.5h-1
v7h6q33 0 68 13t41 30h6v-667z" />
    <glyph glyph-name="uni013B" unicode="&#x13b;" horiz-adv-x="561" 
d="M558 225l-100 -256l-6 2q2 15 -5 22t-26 7h-221q-10 0 -32 0.5t-38 0.5t-38 -0.5t-32 -0.5h-16v8h1q32 0 41.5 8.5t9.5 40.5v567q0 32 -9.5 40.5t-41.5 8.5h-1v8h16q10 0 32 -1.5t38 -1.5t38 1.5t32 1.5h16v-8h-1q-32 0 -41.5 -8.5t-9.5 -40.5v-614h171q33 0 54.5 8.5
t46.5 36.5q40 45 116 173zM270 -155q-19 0 -31 12.5t-12 30.5t12.5 31t32.5 13q21 0 35.5 -16.5t14.5 -40.5q0 -48 -25.5 -78t-56.5 -37l-1 6q28 7 50 33t22 62q0 5 -1 11q-12 -27 -40 -27z" />
    <glyph glyph-name="uni013C" unicode="&#x13c;" horiz-adv-x="246" 
d="M156 57q0 -32 9.5 -41t44.5 -9h1v-7h-14q-11 0 -34 1.5t-40 1.5t-40 -1.5t-34 -1.5h-14v7h1q35 0 44.5 9t9.5 41v568q0 32 -9.5 40.5t-44.5 8.5h-1v7h6q33 0 68 13t41 30h6v-667zM120 -155q-19 0 -31 12.5t-12 30.5t12.5 31t32.5 13q21 0 35.5 -16.5t14.5 -40.5
q0 -48 -25.5 -78t-56.5 -37l-1 6q28 7 50 33t22 62q0 5 -1 11q-12 -27 -40 -27z" />
    <glyph glyph-name="Lcaron" unicode="&#x13d;" horiz-adv-x="561" 
d="M401 456l-7 2q8 45 12.5 114t10.5 92q7 26 31 26q12 0 21 -7.5t9 -19.5q0 -9 -3 -18q-5 -18 -33 -80t-41 -109zM558 225l-100 -256l-6 2q2 15 -5 22t-26 7h-221q-10 0 -32 0.5t-38 0.5t-38 -0.5t-32 -0.5h-16v8h1q32 0 41.5 8.5t9.5 40.5v567q0 32 -9.5 40.5t-41.5 8.5
h-1v8h16q10 0 32 -1.5t38 -1.5t38 1.5t32 1.5h16v-8h-1q-32 0 -41.5 -8.5t-9.5 -40.5v-614h171q33 0 54.5 8.5t46.5 36.5q40 45 116 173z" />
    <glyph glyph-name="lcaron" unicode="&#x13e;" horiz-adv-x="258" 
d="M156 57q0 -32 9.5 -41t44.5 -9h1v-7h-14q-11 0 -34 1.5t-40 1.5t-40 -1.5t-34 -1.5h-14v7h1q35 0 44.5 9t9.5 41v568q0 32 -9.5 40.5t-44.5 8.5h-1v7h6q33 0 68 13t41 30h6v-667zM256 490l-7 2q8 45 12.5 114t10.5 92q6 26 31 26q12 0 21 -7.5t9 -19.5q0 -9 -3 -18
q-5 -18 -33 -80t-41 -109z" />
    <glyph glyph-name="Ldot" unicode="&#x13f;" horiz-adv-x="561" 
d="M558 225l-100 -256l-6 2q2 15 -5 22t-26 7h-221q-10 0 -32 0.5t-38 0.5t-38 -0.5t-32 -0.5h-16v8h1q32 0 41.5 8.5t9.5 40.5v567q0 32 -9.5 40.5t-41.5 8.5h-1v8h16q10 0 32 -1.5t38 -1.5t38 1.5t32 1.5h16v-8h-1q-32 0 -41.5 -8.5t-9.5 -40.5v-614h171q33 0 54.5 8.5
t46.5 36.5q40 45 116 173zM375 306q-20 0 -34 13.5t-14 34.5t14 35t34 14t34.5 -14t14.5 -35t-14 -34.5t-35 -13.5z" />
    <glyph glyph-name="ldot" unicode="&#x140;" horiz-adv-x="388" 
d="M156 57q0 -32 9.5 -41t44.5 -9h1v-7h-14q-11 0 -34 1.5t-40 1.5t-40 -1.5t-34 -1.5h-14v7h1q35 0 44.5 9t9.5 41v568q0 32 -9.5 40.5t-44.5 8.5h-1v7h6q33 0 68 13t41 30h6v-667zM319 226q-20 0 -34 13.5t-14 34.5t14 35t34 14t34.5 -14t14.5 -35t-14 -34.5t-35 -13.5z
" />
    <glyph glyph-name="Lslash" unicode="&#x141;" horiz-adv-x="566" 
d="M563 225l-100 -256l-6 2q2 15 -5 22t-26 7h-221q-11 0 -32 0.5t-38 0.5t-38 -0.5t-32 -0.5h-16v8h1q32 0 41.5 8.5t9.5 40.5v236l-71 -37l-5 9l76 39v320q0 32 -9.5 40.5t-41.5 8.5h-1v8h16q11 0 32 -1.5t38 -1.5t38 1.5t32 1.5h16v-8h-1q-32 0 -41.5 -8.5t-9.5 -40.5
v-284l124 65l5 -9l-129 -68v-318h171q33 0 54.5 8.5t46.5 36.5q40 45 116 173z" />
    <glyph glyph-name="lslash" unicode="&#x142;" horiz-adv-x="287" 
d="M262 379l-86 -45v-277q0 -32 9.5 -41t44.5 -9h1v-7h-14q-11 0 -34 1.5t-40 1.5t-40 -1.5t-34 -1.5h-14v7h1q35 0 44.5 9t9.5 41v243l-81 -41l-4 8l85 44v314q0 32 -9.5 40.5t-44.5 8.5h-1v7h6q33 0 68 13t41 30h6v-379l82 42z" />
    <glyph glyph-name="Nacute" unicode="&#x143;" horiz-adv-x="690" 
d="M312 733l-6 4q21 37 43.5 90t35.5 73q11 15 26 15q13 0 21 -8.5t8 -19.5t-6 -20q-12 -18 -53.5 -57.5t-68.5 -76.5zM638 0q-11 0 -22.5 0.5t-16.5 0.5q-7 0 -21 -0.5t-23 -0.5l-437 617v-486q0 -56 18.5 -89t70.5 -34h1v-8h-25q-5 0 -28.5 1.5t-40.5 1.5
q-18 0 -41.5 -1.5t-28.5 -1.5h-24v8h1q51 0 69 33t18 90v496q-2 3 -6.5 9t-6.5 8.5t-5.5 7t-6 6.5t-6 5t-7.5 4.5t-8.5 3t-10 2t-12.5 0.5h-1v8h7q14 0 29 -0.5t24 -0.5q11 0 30 0.5t29 0.5l418 -589v458q0 57 -18 89.5t-70 33.5h-1v8h25q5 0 28.5 -1.5t40.5 -1.5
q18 0 41.5 1.5t28.5 1.5h24v-8h-1q-51 0 -69.5 -33.5t-18.5 -89.5v-472z" />
    <glyph glyph-name="nacute" unicode="&#x144;" horiz-adv-x="547" 
d="M224 542l-6 4q21 37 43.5 90t35.5 73q11 15 26 15q13 0 21 -8t8 -20q0 -11 -6 -20q-12 -18 -53.5 -57.5t-68.5 -76.5zM514 0h-14q-12 0 -34 1.5t-40 1.5t-40 -1.5t-34 -1.5h-14v7h1q35 0 44.5 9t9.5 41v374q0 48 -35 48q-20 0 -85 -24l-109 -42v-356q0 -32 9.5 -41
t44.5 -9h1v-7h-14q-11 0 -34 1.5t-40 1.5t-40 -1.5t-34 -1.5h-14v7h1q35 0 44.5 9t9.5 41v342q0 32 -9.5 40.5t-44.5 8.5h-1v7h6q33 0 68 13t41 30h6v-76l106 41q89 35 127 35q62 0 62 -70v-371q0 -32 9.5 -41t44.5 -9h1v-7z" />
    <glyph glyph-name="uni0145" unicode="&#x145;" horiz-adv-x="690" 
d="M638 0q-11 0 -22.5 0.5t-16.5 0.5q-7 0 -21 -0.5t-23 -0.5l-437 617v-486q0 -56 18.5 -89t70.5 -34h1v-8h-25q-5 0 -28.5 1.5t-40.5 1.5q-18 0 -41.5 -1.5t-28.5 -1.5h-24v8h1q51 0 69 33t18 90v496q-2 3 -6.5 9t-6.5 8.5t-5.5 7t-6 6.5t-6 5t-7.5 4.5t-8.5 3t-10 2
t-12.5 0.5h-1v8h7q14 0 29 -0.5t24 -0.5q11 0 30 0.5t29 0.5l418 -589v458q0 57 -18 89.5t-70 33.5h-1v8h25q5 0 28.5 -1.5t40.5 -1.5q18 0 41.5 1.5t28.5 1.5h24v-8h-1q-51 0 -69.5 -33.5t-18.5 -89.5v-472zM357 -155q-19 0 -31 12.5t-12 30.5t12.5 31t32.5 13
q21 0 35.5 -16.5t14.5 -40.5q0 -48 -25.5 -78t-56.5 -37l-1 6q28 7 50 33t22 62q0 5 -1 11q-12 -27 -40 -27z" />
    <glyph glyph-name="uni0146" unicode="&#x146;" horiz-adv-x="547" 
d="M514 0h-14q-12 0 -34 1.5t-40 1.5t-40 -1.5t-34 -1.5h-14v7h1q35 0 44.5 9t9.5 41v374q0 48 -35 48q-20 0 -85 -24l-109 -42v-356q0 -32 9.5 -41t44.5 -9h1v-7h-14q-11 0 -34 1.5t-40 1.5t-40 -1.5t-34 -1.5h-14v7h1q35 0 44.5 9t9.5 41v342q0 32 -9.5 40.5t-44.5 8.5h-1
v7h6q33 0 68 13t41 30h6v-76l106 41q89 35 127 35q62 0 62 -70v-371q0 -32 9.5 -41t44.5 -9h1v-7zM276 -155q-19 0 -31 12.5t-12 30.5t12.5 31t32.5 13q21 0 35.5 -16.5t14.5 -40.5q0 -48 -25.5 -78t-56.5 -37l-1 6q28 7 50 33t22 62q0 5 -1 11q-12 -27 -40 -27z" />
    <glyph glyph-name="Ncaron" unicode="&#x147;" horiz-adv-x="690" 
d="M367 734q-11 0 -18.5 7.5t-17.5 26.5q-57 112 -78 144l6 4q16 -21 34 -40.5t41 -42t33 -33.5q10 11 33 33.5t41 42t34 40.5l6 -4q-21 -32 -78 -144q-10 -19 -17.5 -26.5t-18.5 -7.5zM638 0q-11 0 -22.5 0.5t-16.5 0.5q-7 0 -21 -0.5t-23 -0.5l-437 617v-486
q0 -56 18.5 -89t70.5 -34h1v-8h-25q-5 0 -28.5 1.5t-40.5 1.5q-18 0 -41.5 -1.5t-28.5 -1.5h-24v8h1q51 0 69 33t18 90v496q-2 3 -6.5 9t-6.5 8.5t-5.5 7t-6 6.5t-6 5t-7.5 4.5t-8.5 3t-10 2t-12.5 0.5h-1v8h7q14 0 29 -0.5t24 -0.5q11 0 30 0.5t29 0.5l418 -589v458
q0 57 -18 89.5t-70 33.5h-1v8h25q5 0 28.5 -1.5t40.5 -1.5q18 0 41.5 1.5t28.5 1.5h24v-8h-1q-51 0 -69.5 -33.5t-18.5 -89.5v-472z" />
    <glyph glyph-name="ncaron" unicode="&#x148;" horiz-adv-x="547" 
d="M279 543q-11 0 -18.5 7.5t-17.5 26.5q-57 112 -78 144l6 4q16 -21 34 -40.5t41 -42t33 -33.5q10 11 33 33.5t41 42t34 40.5l6 -4q-21 -32 -78 -144q-10 -19 -17.5 -26.5t-18.5 -7.5zM514 0h-14q-12 0 -34 1.5t-40 1.5t-40 -1.5t-34 -1.5h-14v7h1q35 0 44.5 9t9.5 41v374
q0 48 -35 48q-20 0 -85 -24l-109 -42v-356q0 -32 9.5 -41t44.5 -9h1v-7h-14q-11 0 -34 1.5t-40 1.5t-40 -1.5t-34 -1.5h-14v7h1q35 0 44.5 9t9.5 41v342q0 32 -9.5 40.5t-44.5 8.5h-1v7h6q33 0 68 13t41 30h6v-76l106 41q89 35 127 35q62 0 62 -70v-371q0 -32 9.5 -41
t44.5 -9h1v-7z" />
    <glyph glyph-name="napostrophe" unicode="&#x149;" horiz-adv-x="631" 
d="M47 596q-20 0 -33 13t-13 33q0 19 14 33t35 14q22 0 37.5 -17.5t15.5 -43.5q0 -53 -27 -84.5t-61 -39.5l-2 7q31 7 55.5 35.5t24.5 69.5q0 4 -1 9q-13 -29 -45 -29zM598 0h-14q-12 0 -34 1.5t-40 1.5t-40 -1.5t-34 -1.5h-14v7h1q35 0 44.5 9t9.5 41v374q0 48 -35 48
q-20 0 -85 -24l-109 -42v-356q0 -32 9.5 -41t44.5 -9h1v-7h-14q-11 0 -34 1.5t-40 1.5t-40 -1.5t-34 -1.5h-14v7h1q35 0 44.5 9t9.5 41v342q0 32 -9.5 40.5t-44.5 8.5h-1v7h6q33 0 68 13t41 30h6v-76l106 41q89 35 127 35q62 0 62 -70v-371q0 -32 9.5 -41t44.5 -9h1v-7z" />
    <glyph glyph-name="Eng" unicode="&#x14a;" horiz-adv-x="675" 
d="M374 -236q-35 0 -35 30q0 14 8.5 22.5t22.5 8.5q11 0 43.5 -10.5t48.5 -10.5q33 0 68.5 53t44.5 144l-20 -1l-437 617v-486q0 -56 18.5 -89t70.5 -34h1v-8h-25q-5 0 -28.5 1.5t-40.5 1.5q-18 0 -41.5 -1.5t-28.5 -1.5h-24v8h1q51 0 69 33t18 90v496q-2 3 -6.5 9t-6.5 8.5
t-5.5 7t-6 6.5t-6 5t-7.5 4.5t-8.5 3t-10 2t-12.5 0.5h-1v8h7q14 0 29 -0.5t24 -0.5q11 0 30 0.5t29 0.5l418 -589v458q0 57 -18 89.5t-70 33.5h-1v8h25q5 0 28.5 -1.5t40.5 -1.5q18 0 41.5 1.5t28.5 1.5h24v-8h-1q-51 0 -69.5 -33.5t-18.5 -89.5v-472l53 -78q-9 0 -24 0.5
t-29 0.5q-11 -122 -69 -179.5t-142 -57.5z" />
    <glyph glyph-name="eng" unicode="&#x14b;" horiz-adv-x="536" 
d="M459 428v-389q0 -106 -46 -184q-54 -91 -142 -91q-13 0 -22 7t-9 19q0 26 29 26q12 0 37 -5t33 -5q54 0 54 85v540q0 48 -35 48q-20 0 -85 -24l-109 -42v-356q0 -32 9.5 -41t44.5 -9h1v-7h-14q-11 0 -34 1.5t-40 1.5t-40 -1.5t-34 -1.5h-14v7h1q35 0 44.5 9t9.5 41v342
q0 32 -9.5 40.5t-44.5 8.5h-1v7h6q33 0 68 13t41 30h6v-76l106 41q89 35 127 35q62 0 62 -70z" />
    <glyph glyph-name="Omacron" unicode="&#x14c;" horiz-adv-x="658" 
d="M448 797h-240v22h240v-22zM329 -10q-129 0 -212 100t-83 251t83 250.5t212 99.5t212 -99.5t83 -250.5t-83 -251t-212 -100zM329 -1q215 0 215 342q0 341 -215 341t-215 -341q0 -342 215 -342z" />
    <glyph glyph-name="omacron" unicode="&#x14d;" horiz-adv-x="512" 
d="M375 608h-240v22h240v-22zM256 -8q-89 0 -151.5 73t-62.5 180t62.5 180t151.5 73t151.5 -73t62.5 -180t-62.5 -180t-151.5 -73zM256 0q33 0 56.5 10t43 36t29 75.5t9.5 123.5t-9.5 123.5t-29 75.5t-43 36t-56.5 10t-56.5 -10t-43 -36t-29 -75.5t-9.5 -123.5t9.5 -123.5
t29 -75.5t43 -36t56.5 -10z" />
    <glyph glyph-name="Obreve" unicode="&#x14e;" horiz-adv-x="658" 
d="M329 758q-83 0 -129 115l6 3q34 -67 123 -67t123 67l6 -3q-46 -115 -129 -115zM329 -10q-129 0 -212 100t-83 251t83 250.5t212 99.5t212 -99.5t83 -250.5t-83 -251t-212 -100zM329 -1q215 0 215 342q0 341 -215 341t-215 -341q0 -342 215 -342z" />
    <glyph glyph-name="obreve" unicode="&#x14f;" horiz-adv-x="512" 
d="M256 569q-83 0 -129 115l6 3q34 -67 123 -67t123 67l6 -3q-46 -115 -129 -115zM256 -8q-89 0 -151.5 73t-62.5 180t62.5 180t151.5 73t151.5 -73t62.5 -180t-62.5 -180t-151.5 -73zM256 0q33 0 56.5 10t43 36t29 75.5t9.5 123.5t-9.5 123.5t-29 75.5t-43 36t-56.5 10
t-56.5 -10t-43 -36t-29 -75.5t-9.5 -123.5t9.5 -123.5t29 -75.5t43 -36t56.5 -10z" />
    <glyph glyph-name="Ohungarumlaut" unicode="&#x150;" horiz-adv-x="658" 
d="M264 733l-6 4q19 38 35.5 89t26.5 70q9 17 26 17q12 0 20 -7.5t8 -18.5q0 -9 -5 -19q-10 -19 -46.5 -59t-58.5 -76zM384 733l-6 4q19 38 35.5 89t26.5 70q9 17 26 17q12 0 20 -7.5t8 -18.5q0 -9 -5 -19q-10 -19 -46.5 -59t-58.5 -76zM329 -10q-129 0 -212 100t-83 251
t83 250.5t212 99.5t212 -99.5t83 -250.5t-83 -251t-212 -100zM329 -1q215 0 215 342q0 341 -215 341t-215 -341q0 -342 215 -342z" />
    <glyph glyph-name="ohungarumlaut" unicode="&#x151;" horiz-adv-x="512" 
d="M191 544l-6 4q19 38 35.5 89t26.5 70q9 17 26 17q12 0 20 -7.5t8 -18.5q0 -9 -5 -19q-10 -19 -46.5 -59t-58.5 -76zM311 544l-6 4q19 38 35.5 89t26.5 70q9 17 26 17q12 0 20 -7.5t8 -18.5q0 -9 -5 -19q-10 -19 -46.5 -59t-58.5 -76zM256 -8q-89 0 -151.5 73t-62.5 180
t62.5 180t151.5 73t151.5 -73t62.5 -180t-62.5 -180t-151.5 -73zM256 0q33 0 56.5 10t43 36t29 75.5t9.5 123.5t-9.5 123.5t-29 75.5t-43 36t-56.5 10t-56.5 -10t-43 -36t-29 -75.5t-9.5 -123.5t9.5 -123.5t29 -75.5t43 -36t56.5 -10z" />
    <glyph glyph-name="OE" unicode="&#x152;" horiz-adv-x="988" 
d="M866 -31l-6 2q2 14 -5 21.5t-26 7.5h-237q-14 0 -41 0.5t-48 0.5q-17 0 -38 -0.5t-32 -0.5h-93q-135 0 -220 90t-85 250q0 161 85 251t220 90h93q11 0 32 -0.5t38 -0.5q21 0 48 0.5t41 0.5h224q20 0 27.5 7.5t5.5 22.5l6 2l92 -226l-6 -3q-78 109 -113 148t-96 39h-195
v-320h128q55 0 73 30.5t25 101.5h7v-277h-7q-4 36 -8 55.5t-13.5 40.5t-28.5 30t-48 9h-128v-331h206q33 0 54.5 8.5t46.5 36.5q48 54 111 160l6 -3zM469 10v661h-113q-138 0 -190 -73t-52 -258q0 -184 52 -257t190 -73h113z" />
    <glyph glyph-name="oe" unicode="&#x153;" horiz-adv-x="830" 
d="M604 -8q-53 0 -99.5 29t-74.5 81q-28 -51 -73.5 -80.5t-100.5 -29.5q-89 0 -151.5 73t-62.5 180t62.5 180t151.5 73q55 0 101.5 -30.5t74.5 -83.5q28 55 75 84.5t102 29.5q71 0 125.5 -49.5t50.5 -132.5h-314q-1 -15 -1 -45q0 -109 43.5 -183t115.5 -74q107 0 149 126
l6 -2q-47 -146 -180 -146zM256 0q33 0 56.5 10t43 36t29 75.5t9.5 123.5t-9.5 123.5t-29 75.5t-43 36t-56.5 10t-56.5 -10t-43 -36t-29 -75.5t-9.5 -123.5t9.5 -123.5t29 -75.5t43 -36t56.5 -10zM717 325q-3 165 -113 165q-56 0 -90 -46t-42 -119h245z" />
    <glyph glyph-name="Racute" unicode="&#x154;" horiz-adv-x="633" 
d="M253 731l-6 4q21 37 43.5 90t35.5 73q10 15 26 15q12 0 20.5 -8.5t8.5 -19.5t-6 -20q-12 -18 -53.5 -57.5t-68.5 -76.5zM625 0q-24 0 -45.5 1.5t-41.5 1.5q-11 0 -26 -1.5t-22 -1.5l-179 320h-147v-263q0 -32 9.5 -40.5t41.5 -8.5h1v-8h-16q-10 0 -32 1.5t-38 1.5
t-38 -1.5t-32 -1.5h-16v8h1q32 0 41.5 8.5t9.5 40.5v567q0 32 -9.5 40.5t-41.5 8.5h-1v8h16q10 0 32 -0.5t38 -0.5q20 0 47 0.5t42 0.5h108q95 0 159.5 -49t64.5 -132q0 -75 -60.5 -127.5t-162.5 -52.5h-4q19 -30 39.5 -41.5t55.5 -11.5l92 -165q32 -58 54 -75t60 -19v-8z
M474 500q0 87 -32.5 129t-117.5 42h-160v-341h160q84 0 117 39.5t33 130.5z" />
    <glyph glyph-name="racute" unicode="&#x155;" horiz-adv-x="354" 
d="M147 542l-6 4q21 37 43.5 90t35.5 73q10 15 26 15q12 0 20.5 -8t8.5 -20q0 -11 -6 -20q-12 -18 -53.5 -57.5t-68.5 -76.5zM242 0h-23q-15 0 -42 1.5t-47 1.5q-18 0 -40 -1.5t-34 -1.5h-14v7h1q35 0 44.5 9t9.5 41v342q0 32 -9.5 40.5t-44.5 8.5h-1v7h6q33 0 68 13t41 30
h6v-115q35 53 74 86q35 29 76 29q40 0 40 -26q0 -27 -39 -27q-9 0 -30.5 4.5t-32.5 4.5q-33 0 -88 -84v-313q0 -31 14 -40.5t51 -9.5h14v-7z" />
    <glyph glyph-name="uni0156" unicode="&#x156;" horiz-adv-x="633" 
d="M625 0q-24 0 -45.5 1.5t-41.5 1.5q-11 0 -26 -1.5t-22 -1.5l-179 320h-147v-263q0 -32 9.5 -40.5t41.5 -8.5h1v-8h-16q-10 0 -32 1.5t-38 1.5t-38 -1.5t-32 -1.5h-16v8h1q32 0 41.5 8.5t9.5 40.5v567q0 32 -9.5 40.5t-41.5 8.5h-1v8h16q10 0 32 -0.5t38 -0.5q20 0 47 0.5
t42 0.5h108q95 0 159.5 -49t64.5 -132q0 -75 -60.5 -127.5t-162.5 -52.5h-4q19 -30 39.5 -41.5t55.5 -11.5l92 -165q32 -58 54 -75t60 -19v-8zM474 500q0 87 -32.5 129t-117.5 42h-160v-341h160q84 0 117 39.5t33 130.5zM320 -155q-19 0 -31 12.5t-12 30.5t12.5 31t32.5 13
q21 0 35.5 -16.5t14.5 -40.5q0 -48 -25.5 -78t-56.5 -37l-1 6q28 7 50 33t22 62q0 5 -1 11q-12 -27 -40 -27z" />
    <glyph glyph-name="uni0157" unicode="&#x157;" horiz-adv-x="354" 
d="M242 0h-23q-15 0 -42 1.5t-47 1.5q-18 0 -40 -1.5t-34 -1.5h-14v7h1q35 0 44.5 9t9.5 41v342q0 32 -9.5 40.5t-44.5 8.5h-1v7h6q33 0 68 13t41 30h6v-115q35 53 74 86q35 29 76 29q40 0 40 -26q0 -27 -39 -27q-9 0 -30.5 4.5t-32.5 4.5q-33 0 -88 -84v-313
q0 -31 14 -40.5t51 -9.5h14v-7zM128 -155q-19 0 -31 12.5t-12 30.5t12.5 31t32.5 13q21 0 35.5 -16.5t14.5 -40.5q0 -48 -25.5 -78t-56.5 -37l-1 6q28 7 50 33t22 62q0 5 -1 11q-12 -27 -40 -27z" />
    <glyph glyph-name="Rcaron" unicode="&#x158;" horiz-adv-x="633" 
d="M308 732q-11 0 -18.5 7.5t-17.5 26.5q-57 112 -78 144l6 4q16 -21 34 -40.5t41 -42t33 -33.5q10 11 33 33.5t41 42t34 40.5l6 -4q-21 -32 -78 -144q-10 -19 -17.5 -26.5t-18.5 -7.5zM625 0q-24 0 -45.5 1.5t-41.5 1.5q-11 0 -26 -1.5t-22 -1.5l-179 320h-147v-263
q0 -32 9.5 -40.5t41.5 -8.5h1v-8h-16q-10 0 -32 1.5t-38 1.5t-38 -1.5t-32 -1.5h-16v8h1q32 0 41.5 8.5t9.5 40.5v567q0 32 -9.5 40.5t-41.5 8.5h-1v8h16q10 0 32 -0.5t38 -0.5q20 0 47 0.5t42 0.5h108q95 0 159.5 -49t64.5 -132q0 -75 -60.5 -127.5t-162.5 -52.5h-4
q19 -30 39.5 -41.5t55.5 -11.5l92 -165q32 -58 54 -75t60 -19v-8zM474 500q0 87 -32.5 129t-117.5 42h-160v-341h160q84 0 117 39.5t33 130.5z" />
    <glyph glyph-name="rcaron" unicode="&#x159;" horiz-adv-x="354" 
d="M202 543q-11 0 -18.5 7.5t-17.5 26.5q-57 112 -78 144l6 4q16 -21 34 -40.5t41 -42t33 -33.5q10 11 33 33.5t41 42t34 40.5l6 -4q-21 -32 -78 -144q-10 -19 -17.5 -26.5t-18.5 -7.5zM242 0h-23q-15 0 -42 1.5t-47 1.5q-18 0 -40 -1.5t-34 -1.5h-14v7h1q35 0 44.5 9
t9.5 41v342q0 32 -9.5 40.5t-44.5 8.5h-1v7h6q33 0 68 13t41 30h6v-115q35 53 74 86q35 29 76 29q40 0 40 -26q0 -27 -39 -27q-9 0 -30.5 4.5t-32.5 4.5q-33 0 -88 -84v-313q0 -31 14 -40.5t51 -9.5h14v-7z" />
    <glyph glyph-name="Sacute" unicode="&#x15a;" horiz-adv-x="554" 
d="M202 731l-6 4q21 37 43.5 90t35.5 73q11 15 26 15q13 0 21 -8.5t8 -19.5t-6 -20q-12 -18 -53.5 -57.5t-68.5 -76.5zM516 188q0 -63 -32.5 -109.5t-78 -67.5t-94.5 -21q-45 0 -100.5 15.5t-62.5 15.5q-36 0 -33 -33l-6 -2l-81 230l6 3q32 -60 67 -103.5t63 -65.5t58.5 -34
t48.5 -14.5t39 -2.5q68 0 114.5 41t46.5 99q0 110 -165 170l-81 30q-71 26 -118.5 72.5t-47.5 114.5q0 75 54 120t135 45q28 0 72 -9.5t55 -9.5q36 0 33 33l6 2l87 -206l-6 -3q-65 108 -125 146t-122 38q-71 0 -110.5 -35t-39.5 -87q0 -53 36.5 -87.5t118.5 -64.5l83 -31
q180 -66 180 -189z" />
    <glyph glyph-name="sacute" unicode="&#x15b;" horiz-adv-x="451" 
d="M154 542l-6 4q21 37 43.5 90t35.5 73q11 15 26 15q13 0 21 -8t8 -20q0 -11 -6 -20q-12 -18 -53.5 -57.5t-68.5 -76.5zM245 -8q-28 0 -67 10t-58 10q-11 0 -18 -5.5t-6 -14.5l-6 -2l-50 172l6 2q78 -164 200 -164q59 0 91 29t32 73q0 69 -112 112l-81 31q-107 41 -107 133
q0 53 35 86.5t95 33.5q26 0 60.5 -8.5t48.5 -8.5q12 0 19 5t6 15l6 2l50 -168l-6 -2q-70 157 -184 157q-51 0 -76 -23t-25 -54q0 -32 25 -57t83 -48l80 -31q59 -23 88 -55t29 -80q0 -70 -45 -110t-113 -40z" />
    <glyph glyph-name="Scircumflex" unicode="&#x15c;" horiz-adv-x="554" 
d="M371 735l-6 -4q-16 21 -34 40.5t-41 42t-33 33.5q-10 -11 -33 -33.5t-41 -42t-34 -40.5l-6 4q21 32 78 144q10 19 17.5 26.5t18.5 7.5t18.5 -7.5t17.5 -26.5q57 -112 78 -144zM516 188q0 -63 -32.5 -109.5t-78 -67.5t-94.5 -21q-45 0 -100.5 15.5t-62.5 15.5
q-36 0 -33 -33l-6 -2l-81 230l6 3q32 -60 67 -103.5t63 -65.5t58.5 -34t48.5 -14.5t39 -2.5q68 0 114.5 41t46.5 99q0 110 -165 170l-81 30q-71 26 -118.5 72.5t-47.5 114.5q0 75 54 120t135 45q28 0 72 -9.5t55 -9.5q36 0 33 33l6 2l87 -206l-6 -3q-65 108 -125 146
t-122 38q-71 0 -110.5 -35t-39.5 -87q0 -53 36.5 -87.5t118.5 -64.5l83 -31q180 -66 180 -189z" />
    <glyph glyph-name="scircumflex" unicode="&#x15d;" horiz-adv-x="451" 
d="M323 546l-6 -4q-16 21 -34 40.5t-41 42t-33 33.5q-10 -11 -33 -33.5t-41 -42t-34 -40.5l-6 4q21 32 78 144q10 19 17.5 26.5t18.5 7.5t18.5 -7.5t17.5 -26.5q57 -112 78 -144zM245 -8q-28 0 -67 10t-58 10q-11 0 -18 -5.5t-6 -14.5l-6 -2l-50 172l6 2q78 -164 200 -164
q59 0 91 29t32 73q0 69 -112 112l-81 31q-107 41 -107 133q0 53 35 86.5t95 33.5q26 0 60.5 -8.5t48.5 -8.5q12 0 19 5t6 15l6 2l50 -168l-6 -2q-70 157 -184 157q-51 0 -76 -23t-25 -54q0 -32 25 -57t83 -48l80 -31q59 -23 88 -55t29 -80q0 -70 -45 -110t-113 -40z" />
    <glyph glyph-name="Scedilla" unicode="&#x15e;" horiz-adv-x="554" 
d="M368 -117q0 -50 -59.5 -88t-128.5 -45l-1 7q65 9 105.5 42t40.5 69q0 41 -51 41q-32 0 -56 -12l-3 3l78 91q-39 2 -87.5 16t-57.5 14q-36 0 -33 -33l-6 -2l-81 230l6 3q32 -60 67 -103.5t63 -65.5t58.5 -34t48.5 -14.5t39 -2.5q68 0 114.5 41t46.5 99q0 110 -165 170
l-81 30q-71 26 -118.5 72.5t-47.5 114.5q0 75 54 120t135 45q28 0 72 -9.5t55 -9.5q36 0 33 33l6 2l87 -206l-6 -3q-65 108 -125 146t-122 38q-71 0 -110.5 -35t-39.5 -87q0 -53 36.5 -87.5t118.5 -64.5l83 -31q180 -66 180 -189q0 -63 -32.5 -109.5t-78 -67.5t-94.5 -21
h-10l-30 -48q10 2 20 2q34 0 55.5 -16.5t21.5 -44.5z" />
    <glyph glyph-name="scedilla" unicode="&#x15f;" horiz-adv-x="451" 
d="M311 -117q0 -50 -59.5 -88t-128.5 -45l-1 7q65 9 105.5 42t40.5 69q0 41 -51 41q-32 0 -56 -12l-3 3l79 92q-25 1 -61.5 10.5t-55.5 9.5q-11 0 -18 -5.5t-6 -14.5l-6 -2l-50 172l6 2q78 -164 200 -164q59 0 91 29t32 73q0 69 -112 112l-81 31q-107 41 -107 133
q0 53 35 86.5t95 33.5q26 0 60.5 -8.5t48.5 -8.5q12 0 19 5t6 15l6 2l50 -168l-6 -2q-70 157 -184 157q-51 0 -76 -23t-25 -54q0 -32 25 -57t83 -48l80 -31q59 -23 88 -55t29 -80q0 -70 -44.5 -110t-114.5 -40l-30 -50q10 2 20 2q34 0 55.5 -16.5t21.5 -44.5z" />
    <glyph glyph-name="Scaron" unicode="&#x160;" horiz-adv-x="554" 
d="M257 732q-11 0 -18.5 7.5t-17.5 26.5q-57 112 -78 144l6 4q16 -21 34 -40.5t41 -42t33 -33.5q10 11 33 33.5t41 42t34 40.5l6 -4q-21 -32 -78 -144q-10 -19 -17.5 -26.5t-18.5 -7.5zM516 188q0 -63 -32.5 -109.5t-78 -67.5t-94.5 -21q-45 0 -100.5 15.5t-62.5 15.5
q-36 0 -33 -33l-6 -2l-81 230l6 3q32 -60 67 -103.5t63 -65.5t58.5 -34t48.5 -14.5t39 -2.5q68 0 114.5 41t46.5 99q0 110 -165 170l-81 30q-71 26 -118.5 72.5t-47.5 114.5q0 75 54 120t135 45q28 0 72 -9.5t55 -9.5q36 0 33 33l6 2l87 -206l-6 -3q-65 108 -125 146
t-122 38q-71 0 -110.5 -35t-39.5 -87q0 -53 36.5 -87.5t118.5 -64.5l83 -31q180 -66 180 -189z" />
    <glyph glyph-name="scaron" unicode="&#x161;" horiz-adv-x="451" 
d="M216 543q-11 0 -18.5 7.5t-17.5 26.5q-57 112 -78 144l6 4q16 -21 34 -40.5t41 -42t33 -33.5q10 11 33 33.5t41 42t34 40.5l6 -4q-21 -32 -78 -144q-10 -19 -17.5 -26.5t-18.5 -7.5zM245 -8q-28 0 -67 10t-58 10q-11 0 -18 -5.5t-6 -14.5l-6 -2l-50 172l6 2
q78 -164 200 -164q59 0 91 29t32 73q0 69 -112 112l-81 31q-107 41 -107 133q0 53 35 86.5t95 33.5q26 0 60.5 -8.5t48.5 -8.5q12 0 19 5t6 15l6 2l50 -168l-6 -2q-70 157 -184 157q-51 0 -76 -23t-25 -54q0 -32 25 -57t83 -48l80 -31q59 -23 88 -55t29 -80q0 -70 -45 -110
t-113 -40z" />
    <glyph glyph-name="uni0162" unicode="&#x162;" horiz-adv-x="640" 
d="M394 -117q0 -50 -59.5 -88t-128.5 -45l-1 7q65 9 105.5 42t40.5 69q0 41 -51 41q-32 0 -56 -12l-3 3l85 103h-6q-16 0 -38 -1.5t-32 -1.5h-16v8h1q32 0 41.5 8.5t9.5 40.5v614h-88q-29 0 -43.5 -6t-33.5 -30q-38 -48 -106 -179l-6 3l76 253l6 -1q0 -30 36 -30h110
q7 0 34.5 -0.5t48.5 -0.5t48.5 0.5t34.5 0.5h110q36 0 36 30l6 1l76 -253l-6 -3q-68 131 -106 179q-19 24 -33.5 30t-43.5 6h-88v-614q0 -32 9.5 -40.5t41.5 -8.5h1v-8h-16q-11 0 -30 1.5t-26 1.5l-37 -61q10 2 20 2q34 0 55.5 -16.5t21.5 -44.5z" />
    <glyph glyph-name="uni0163" unicode="&#x163;" horiz-adv-x="279" 
d="M221 -117q0 -50 -59.5 -88t-128.5 -45l-1 7q65 9 105.5 42t40.5 69q0 41 -51 41q-32 0 -56 -12l-3 3l80 93q-60 10 -60 82v406h-68v9h68v79q27 0 43.5 17.5t16.5 42.5v1h6v-140h101v-9h-101v-417q0 -52 37 -52q16 0 33 14t28 35l6 -3q-13 -27 -38 -46.5t-56 -19.5h-10
l-30 -50q10 2 20 2q34 0 55.5 -16.5t21.5 -44.5z" />
    <glyph glyph-name="Tcaron" unicode="&#x164;" horiz-adv-x="640" 
d="M320 732q-11 0 -18.5 7.5t-17.5 26.5q-57 112 -78 144l6 4q16 -21 34 -40.5t41 -42t33 -33.5q10 11 33 33.5t41 42t34 40.5l6 -4q-21 -32 -78 -144q-10 -19 -17.5 -26.5t-18.5 -7.5zM406 8v-8h-16q-10 0 -32 1.5t-38 1.5t-38 -1.5t-32 -1.5h-16v8h1q32 0 41.5 8.5
t9.5 40.5v614h-88q-29 0 -43.5 -6t-33.5 -30q-38 -48 -106 -179l-6 3l76 253l6 -1q0 -30 36 -30h110q7 0 34.5 -0.5t48.5 -0.5t48.5 0.5t34.5 0.5h110q36 0 36 30l6 1l76 -253l-6 -3q-68 131 -106 179q-19 24 -33.5 30t-43.5 6h-88v-614q0 -32 9.5 -40.5t41.5 -8.5h1z" />
    <glyph glyph-name="tcaron" unicode="&#x165;" horiz-adv-x="279" 
d="M211 540l-7 2q8 45 12.5 114t10.5 92q7 26 31 26q12 0 21 -7.5t9 -19.5q0 -9 -3 -18q-5 -18 -33 -80t-41 -109zM164 -8q-76 0 -76 83v406h-68v9h68v79q27 0 43.5 17.5t16.5 42.5v1h6v-140h101v-9h-101v-417q0 -52 37 -52q16 0 33 14t28 35l6 -3q-13 -27 -38 -46.5
t-56 -19.5z" />
    <glyph glyph-name="Tbar" unicode="&#x166;" horiz-adv-x="640" 
d="M406 0h-16q-10 0 -32 1.5t-38 1.5t-38 -1.5t-32 -1.5h-16v8h1q32 0 41.5 8.5t9.5 40.5v284h-125v10h125v320h-88q-29 0 -43.5 -6t-33.5 -30q-38 -48 -106 -179l-6 3l76 253l6 -1q0 -30 36 -30h110q7 0 34.5 -0.5t48.5 -0.5t48.5 0.5t34.5 0.5h110q36 0 36 30l6 1l76 -253
l-6 -3q-68 131 -106 179q-19 24 -33.5 30t-43.5 6h-88v-320h125v-10h-125v-284q0 -32 9.5 -40.5t41.5 -8.5h1v-8z" />
    <glyph glyph-name="tbar" unicode="&#x167;" horiz-adv-x="279" 
d="M258 58q-13 -27 -38 -46.5t-56 -19.5q-76 0 -76 83v259h-68v9h68v138h-68v9h68v79q27 0 43.5 17.5t16.5 42.5v1h6v-140h101v-9h-101v-138h86v-9h-86v-270q0 -52 37 -52q16 0 33 14t28 35z" />
    <glyph glyph-name="Utilde" unicode="&#x168;" horiz-adv-x="620" 
d="M367 777q-21 0 -55 21.5t-61 21.5q-25 0 -59 -56l-6 4q1 1 10.5 17.5t13.5 21.5t14.5 18.5t18.5 19t20 11t24 5.5q21 0 55 -21.5t61 -21.5q25 0 59 56l6 -4q-1 -1 -10.5 -17.5t-13.5 -21.5t-14.5 -18.5t-18.5 -19t-20 -11t-24 -5.5zM533 211q0 -100 -57 -159.5
t-156 -59.5q-240 0 -240 220v412q0 32 -9.5 40.5t-41.5 8.5h-1v8h16q10 0 32 -1.5t38 -1.5t38 1.5t32 1.5h16v-8h-1q-32 0 -41.5 -8.5t-9.5 -40.5v-371q0 -132 42.5 -190.5t140.5 -58.5q86 0 139 56.5t53 150.5v339q0 57 -18 89.5t-70 33.5h-1v8h25q5 0 28.5 -1.5t40.5 -1.5
q18 0 41.5 1.5t28.5 1.5h24v-8h-1q-51 0 -69.5 -33.5t-18.5 -89.5v-339z" />
    <glyph glyph-name="utilde" unicode="&#x169;" horiz-adv-x="534" 
d="M306 588q-20 0 -55 21.5t-61 21.5q-25 0 -59 -56l-6 4q1 1 10.5 17.5t13.5 21.5t14.5 18.5t18.5 19t20 11t24 5.5q20 0 55 -21.5t61 -21.5q25 0 59 56l6 -4q-1 -1 -10.5 -17.5t-13.5 -21.5t-14.5 -18.5t-18.5 -19t-20 -11t-24 -5.5zM499 0h-14q-11 0 -34 1t-40 1
q-9 0 -19.5 -1t-13.5 -1v68l-101 -41q-87 -35 -127 -35q-62 0 -62 70v337q0 32 -9.5 40.5t-44.5 8.5h-1v7h6q33 0 68 13t41 30h6v-439q0 -48 35 -48q25 0 85 24l104 42v322q0 32 -9.5 40.5t-44.5 8.5h-1v7h6q33 0 68 13t41 30h6v-441q0 -32 9.5 -41t44.5 -9h1v-7z" />
    <glyph glyph-name="Umacron" unicode="&#x16a;" horiz-adv-x="620" 
d="M446 797h-240v22h240v-22zM533 211q0 -100 -57 -159.5t-156 -59.5q-240 0 -240 220v412q0 32 -9.5 40.5t-41.5 8.5h-1v8h16q10 0 32 -1.5t38 -1.5t38 1.5t32 1.5h16v-8h-1q-32 0 -41.5 -8.5t-9.5 -40.5v-371q0 -132 42.5 -190.5t140.5 -58.5q86 0 139 56.5t53 150.5v339
q0 57 -18 89.5t-70 33.5h-1v8h25q5 0 28.5 -1.5t40.5 -1.5q18 0 41.5 1.5t28.5 1.5h24v-8h-1q-51 0 -69.5 -33.5t-18.5 -89.5v-339z" />
    <glyph glyph-name="umacron" unicode="&#x16b;" horiz-adv-x="534" 
d="M385 608h-240v22h240v-22zM499 0h-14q-11 0 -34 1t-40 1q-9 0 -19.5 -1t-13.5 -1v68l-101 -41q-87 -35 -127 -35q-62 0 -62 70v337q0 32 -9.5 40.5t-44.5 8.5h-1v7h6q33 0 68 13t41 30h6v-439q0 -48 35 -48q25 0 85 24l104 42v322q0 32 -9.5 40.5t-44.5 8.5h-1v7h6
q33 0 68 13t41 30h6v-441q0 -32 9.5 -41t44.5 -9h1v-7z" />
    <glyph glyph-name="Ubreve" unicode="&#x16c;" horiz-adv-x="620" 
d="M327 758q-83 0 -129 115l6 3q34 -67 123 -67t123 67l6 -3q-46 -115 -129 -115zM533 211q0 -100 -57 -159.5t-156 -59.5q-240 0 -240 220v412q0 32 -9.5 40.5t-41.5 8.5h-1v8h16q10 0 32 -1.5t38 -1.5t38 1.5t32 1.5h16v-8h-1q-32 0 -41.5 -8.5t-9.5 -40.5v-371
q0 -132 42.5 -190.5t140.5 -58.5q86 0 139 56.5t53 150.5v339q0 57 -18 89.5t-70 33.5h-1v8h25q5 0 28.5 -1.5t40.5 -1.5q18 0 41.5 1.5t28.5 1.5h24v-8h-1q-51 0 -69.5 -33.5t-18.5 -89.5v-339z" />
    <glyph glyph-name="ubreve" unicode="&#x16d;" horiz-adv-x="534" 
d="M266 569q-83 0 -129 115l6 3q34 -67 123 -67t123 67l6 -3q-46 -115 -129 -115zM499 0h-14q-11 0 -34 1t-40 1q-9 0 -19.5 -1t-13.5 -1v68l-101 -41q-87 -35 -127 -35q-62 0 -62 70v337q0 32 -9.5 40.5t-44.5 8.5h-1v7h6q33 0 68 13t41 30h6v-439q0 -48 35 -48q25 0 85 24
l104 42v322q0 32 -9.5 40.5t-44.5 8.5h-1v7h6q33 0 68 13t41 30h6v-441q0 -32 9.5 -41t44.5 -9h1v-7z" />
    <glyph glyph-name="Uring" unicode="&#x16e;" horiz-adv-x="620" 
d="M411 828q0 -36 -24 -61t-60 -25t-60 25t-24 61t24 61t60 25t60 -25t24 -61zM401 828q0 31 -21.5 53.5t-52.5 22.5t-52.5 -22.5t-21.5 -53.5t21.5 -53.5t52.5 -22.5t52.5 22.5t21.5 53.5zM533 211q0 -100 -57 -159.5t-156 -59.5q-240 0 -240 220v412q0 32 -9.5 40.5
t-41.5 8.5h-1v8h16q10 0 32 -1.5t38 -1.5t38 1.5t32 1.5h16v-8h-1q-32 0 -41.5 -8.5t-9.5 -40.5v-371q0 -132 42.5 -190.5t140.5 -58.5q86 0 139 56.5t53 150.5v339q0 57 -18 89.5t-70 33.5h-1v8h25q5 0 28.5 -1.5t40.5 -1.5q18 0 41.5 1.5t28.5 1.5h24v-8h-1
q-51 0 -69.5 -33.5t-18.5 -89.5v-339z" />
    <glyph glyph-name="uring" unicode="&#x16f;" horiz-adv-x="534" 
d="M350 639q0 -36 -24 -61t-60 -25t-60 25t-24 61t24 61t60 25t60 -25t24 -61zM340 639q0 31 -21.5 53.5t-52.5 22.5t-52.5 -22.5t-21.5 -53.5t21.5 -53.5t52.5 -22.5t52.5 22.5t21.5 53.5zM499 0h-14q-11 0 -34 1t-40 1q-9 0 -19.5 -1t-13.5 -1v68l-101 -41
q-87 -35 -127 -35q-62 0 -62 70v337q0 32 -9.5 40.5t-44.5 8.5h-1v7h6q33 0 68 13t41 30h6v-439q0 -48 35 -48q25 0 85 24l104 42v322q0 32 -9.5 40.5t-44.5 8.5h-1v7h6q33 0 68 13t41 30h6v-441q0 -32 9.5 -41t44.5 -9h1v-7z" />
    <glyph glyph-name="Uhungarumlaut" unicode="&#x170;" horiz-adv-x="620" 
d="M262 733l-6 4q19 38 35.5 89t26.5 70q9 17 26 17q12 0 20 -7.5t8 -18.5q0 -9 -5 -19q-10 -19 -46.5 -59t-58.5 -76zM382 733l-6 4q19 38 35.5 89t26.5 70q9 17 26 17q12 0 20 -7.5t8 -18.5q0 -9 -5 -19q-10 -19 -46.5 -59t-58.5 -76zM533 211q0 -100 -57 -159.5
t-156 -59.5q-240 0 -240 220v412q0 32 -9.5 40.5t-41.5 8.5h-1v8h16q10 0 32 -1.5t38 -1.5t38 1.5t32 1.5h16v-8h-1q-32 0 -41.5 -8.5t-9.5 -40.5v-371q0 -132 42.5 -190.5t140.5 -58.5q86 0 139 56.5t53 150.5v339q0 57 -18 89.5t-70 33.5h-1v8h25q5 0 28.5 -1.5t40.5 -1.5
q18 0 41.5 1.5t28.5 1.5h24v-8h-1q-51 0 -69.5 -33.5t-18.5 -89.5v-339z" />
    <glyph glyph-name="uhungarumlaut" unicode="&#x171;" horiz-adv-x="534" 
d="M201 544l-6 4q19 38 35.5 89t26.5 70q9 17 26 17q12 0 20 -7.5t8 -18.5q0 -9 -5 -19q-10 -19 -46.5 -59t-58.5 -76zM321 544l-6 4q19 38 35.5 89t26.5 70q9 17 26 17q12 0 20 -7.5t8 -18.5q0 -9 -5 -19q-10 -19 -46.5 -59t-58.5 -76zM499 0h-14q-11 0 -34 1t-40 1
q-9 0 -19.5 -1t-13.5 -1v68l-101 -41q-87 -35 -127 -35q-62 0 -62 70v337q0 32 -9.5 40.5t-44.5 8.5h-1v7h6q33 0 68 13t41 30h6v-439q0 -48 35 -48q25 0 85 24l104 42v322q0 32 -9.5 40.5t-44.5 8.5h-1v7h6q33 0 68 13t41 30h6v-441q0 -32 9.5 -41t44.5 -9h1v-7z" />
    <glyph glyph-name="Uogonek" unicode="&#x172;" horiz-adv-x="620" 
d="M533 211q0 -90 -44 -144.5t-123 -73.5q-29 -7 -54.5 -32t-25.5 -55q0 -27 17.5 -43.5t44.5 -16.5q41 0 73 40l6 -4q-18 -25 -49.5 -42.5t-64.5 -17.5q-39 0 -62 19t-23 48q0 30 37.5 59.5t80.5 44.5q-3 0 -12.5 -0.5t-13.5 -0.5q-240 0 -240 220v412q0 32 -9.5 40.5
t-41.5 8.5h-1v8h16q10 0 32 -1.5t38 -1.5t38 1.5t32 1.5h16v-8h-1q-32 0 -41.5 -8.5t-9.5 -40.5v-371q0 -132 42.5 -190.5t140.5 -58.5q86 0 139 56.5t53 150.5v339q0 57 -18 89.5t-70 33.5h-1v8h25q5 0 28.5 -1.5t40.5 -1.5q18 0 41.5 1.5t28.5 1.5h24v-8h-1
q-51 0 -69.5 -33.5t-18.5 -89.5v-339z" />
    <glyph glyph-name="uogonek" unicode="&#x173;" horiz-adv-x="534" 
d="M499 0h-14q-8 0 -21.5 0.5t-20.5 0.5q-83 -39 -83 -95q0 -27 17.5 -43.5t44.5 -16.5q41 0 73 40l6 -4q-18 -25 -49.5 -42.5t-64.5 -17.5q-39 0 -62 19t-23 48q0 54 128 113h-19q-9 0 -19.5 -1t-13.5 -1v68l-101 -41q-87 -35 -127 -35q-62 0 -62 70v337q0 32 -9.5 40.5
t-44.5 8.5h-1v7h6q33 0 68 13t41 30h6v-439q0 -48 35 -48q25 0 85 24l104 42v322q0 32 -9.5 40.5t-44.5 8.5h-1v7h6q33 0 68 13t41 30h6v-441q0 -32 9.5 -41t44.5 -9h1v-7z" />
    <glyph glyph-name="Wcircumflex" unicode="&#x174;" horiz-adv-x="976" 
d="M599 735l-6 -4q-16 21 -34 40.5t-41 42t-33 33.5q-10 -11 -33 -33.5t-41 -42t-34 -40.5l-6 4q21 32 78 144q10 19 17.5 26.5t18.5 7.5t18.5 -7.5t17.5 -26.5q57 -112 78 -144zM751 0q-9 0 -20 0.5t-17 0.5t-15 -0.5t-20 -0.5l-191 554l-151 -474l29 -80q-9 0 -19.5 0.5
t-17.5 0.5q-6 0 -15.5 -0.5t-20.5 -0.5l-231 622q-20 51 -69 51v8h21q6 0 31 -1.5t41 -1.5q18 0 45 1.5t32 1.5h21v-8q-53 0 -53 -30q0 -11 5 -24l195 -524l151 476l-18 52q-10 29 -26.5 39.5t-42.5 10.5v8h21q6 0 33 -1.5t43 -1.5q18 0 42.5 1.5t29.5 1.5h21v-8
q-53 0 -53 -30q0 -11 5 -24l180 -519l146 461q14 44 14 59q0 53 -71 53v8h12q11 0 41 -1.5t43 -1.5q7 0 34.5 1.5t35.5 1.5h21v-8q-85 -3 -120 -114l-150 -476z" />
    <glyph glyph-name="wcircumflex" unicode="&#x175;" horiz-adv-x="752" 
d="M486 546l-6 -4q-16 21 -34 40.5t-41 42t-33 33.5q-10 -11 -33 -33.5t-41 -42t-34 -40.5l-6 4q21 32 78 144q10 19 17.5 26.5t18.5 7.5t18.5 -7.5t17.5 -26.5q57 -112 78 -144zM585 0q-10 0 -20.5 0.5t-15.5 0.5q-6 0 -17 -0.5t-19 -0.5l-139 370l-105 -295l28 -75
q-10 0 -20 0.5t-15 0.5q-6 0 -17.5 -0.5t-19.5 -0.5l-163 433q-11 30 -25.5 40t-42.5 10v7h23q6 0 27.5 -1.5t40.5 -1.5t40.5 1.5t26.5 1.5h24v-7q-50 0 -50 -24q0 -6 3 -15l135 -357l105 295l-19 51q-11 30 -25.5 40t-42.5 10v7h23q6 0 27 -1.5t40 -1.5t41 1.5t27 1.5h24
v-7q-50 0 -50 -24q0 -7 3 -15l135 -357l110 309q8 21 8 40q0 47 -66 47v7h10q12 0 35 -1.5t38 -1.5t37.5 1.5t30.5 1.5h17v-7q-41 -1 -64 -24.5t-38 -66.5l-113 -317z" />
    <glyph glyph-name="Ycircumflex" unicode="&#x176;" horiz-adv-x="593" 
d="M427 735l-6 -4q-16 21 -34 40.5t-41 42t-33 33.5q-10 -11 -33 -33.5t-41 -42t-34 -40.5l-6 4q21 32 78 144q10 19 17.5 26.5t18.5 7.5t18.5 -7.5t17.5 -26.5q57 -112 78 -144zM339 57q0 -32 9.5 -40.5t41.5 -8.5h1v-8h-16q-11 0 -32 1.5t-38 1.5t-38 -1.5t-32 -1.5h-16v8
h1q32 0 41.5 8.5t9.5 40.5v253l-202 313q-18 27 -36 38.5t-45 11.5v8h29q5 0 28 -1.5t41 -1.5q17 0 42 1.5t30 1.5h34v-8q-29 0 -40 -5.5t-11 -19.5q0 -12 10 -29l183 -282l139 227q26 43 26 63q0 46 -64 46h-1v8h13q11 0 39.5 -1.5t41.5 -1.5q7 0 35 1.5t36 1.5h19v-8h-1
q-42 -1 -71 -29t-66 -88l-141 -229v-270z" />
    <glyph glyph-name="ycircumflex" unicode="&#x177;" horiz-adv-x="465" 
d="M356 546l-6 -4q-16 21 -34 40.5t-41 42t-33 33.5q-10 -11 -33 -33.5t-41 -42t-34 -40.5l-6 4q21 32 78 144q10 19 17.5 26.5t18.5 7.5t18.5 -7.5t17.5 -26.5q57 -112 78 -144zM297 0q-9 0 -20 0.5t-16 0.5q-3 0 -12 -0.5t-14 -0.5l-20 -45q-26 -58 -39.5 -84.5t-35 -56
t-45.5 -40t-57 -10.5q-41 0 -41 27q0 12 8 18.5t20 6.5q11 0 36.5 -6.5t35.5 -6.5q26 0 47.5 31.5t62.5 123.5l19 42l-164 434q-11 29 -25.5 39t-42.5 10v7h23q6 0 27.5 -1.5t40.5 -1.5t40.5 1.5t26.5 1.5h24v-7q-50 0 -50 -24q0 -6 3 -15l135 -357l110 309q8 21 8 40
q0 47 -66 47v7h10q12 0 35 -1.5t37 -1.5q15 0 38 1.5t31 1.5h17v-7q-40 -1 -63 -24.5t-39 -66.5l-113 -317z" />
    <glyph glyph-name="Ydieresis" unicode="&#x178;" horiz-adv-x="593" 
d="M264 807q0 -19 -13 -31.5t-32 -12.5q-18 0 -31 12.5t-13 31.5t13 32t31 13q19 0 32 -13t13 -32zM453 807q0 -18 -13.5 -31t-31.5 -13q-19 0 -31.5 12.5t-12.5 31.5t12.5 32t31.5 13q18 0 31.5 -13t13.5 -32zM339 57q0 -32 9.5 -40.5t41.5 -8.5h1v-8h-16q-11 0 -32 1.5
t-38 1.5t-38 -1.5t-32 -1.5h-16v8h1q32 0 41.5 8.5t9.5 40.5v253l-202 313q-18 27 -36 38.5t-45 11.5v8h29q5 0 28 -1.5t41 -1.5q17 0 42 1.5t30 1.5h34v-8q-29 0 -40 -5.5t-11 -19.5q0 -12 10 -29l183 -282l139 227q26 43 26 63q0 46 -64 46h-1v8h13q11 0 39.5 -1.5
t41.5 -1.5q7 0 35 1.5t36 1.5h19v-8h-1q-42 -1 -71 -29t-66 -88l-141 -229v-270z" />
    <glyph glyph-name="Zacute" unicode="&#x179;" horiz-adv-x="586" 
d="M272 731l-6 4q21 37 43.5 90t35.5 73q11 15 26 15q13 0 21 -8.5t8 -19.5t-6 -20q-12 -18 -53.5 -57.5t-68.5 -76.5zM567 212l-95 -243l-6 2q2 14 -5 21.5t-26 7.5h-411v4l445 667h-209q-61 0 -96 -39q-42 -46 -116 -156l-6 3l95 234l6 -2q-2 -14 5.5 -22t27.5 -8h376v-4
l-445 -667h244q33 0 53.5 8.5t45.5 36.5q48 54 111 160z" />
    <glyph glyph-name="zacute" unicode="&#x17a;" horiz-adv-x="446" 
d="M193 542l-6 4q21 37 43.5 90t35.5 73q10 15 26 15q12 0 20.5 -8t8.5 -20q0 -11 -6 -20q-12 -18 -53.5 -57.5t-68.5 -76.5zM359 -21l-6 1q0 12 -9.5 16t-31.5 4h-280v4l299 478h-120q-33 0 -50.5 -6.5t-36.5 -25.5q-43 -43 -88 -113l-5 3l68 171l6 -1q0 -12 9.5 -16
t31.5 -4h261v-4l-300 -478h135q41 0 59.5 8.5t46.5 37.5q30 31 79 105l5 -3z" />
    <glyph glyph-name="Zdotaccent" unicode="&#x17b;" horiz-adv-x="586" 
d="M327 755q-20 0 -34 13.5t-14 34.5t14 35t34 14t34.5 -14t14.5 -35t-14 -34.5t-35 -13.5zM567 212l-95 -243l-6 2q2 14 -5 21.5t-26 7.5h-411v4l445 667h-209q-61 0 -96 -39q-42 -46 -116 -156l-6 3l95 234l6 -2q-2 -14 5.5 -22t27.5 -8h376v-4l-445 -667h244
q33 0 53.5 8.5t45.5 36.5q48 54 111 160z" />
    <glyph glyph-name="zdotaccent" unicode="&#x17c;" horiz-adv-x="446" 
d="M248 576q-20 0 -34 13.5t-14 34.5t14 35t34 14t34.5 -14t14.5 -35t-14 -34.5t-35 -13.5zM359 -21l-6 1q0 12 -9.5 16t-31.5 4h-280v4l299 478h-120q-33 0 -50.5 -6.5t-36.5 -25.5q-43 -43 -88 -113l-5 3l68 171l6 -1q0 -12 9.5 -16t31.5 -4h261v-4l-300 -478h135
q41 0 59.5 8.5t46.5 37.5q30 31 79 105l5 -3z" />
    <glyph glyph-name="Zcaron" unicode="&#x17d;" horiz-adv-x="586" 
d="M327 732q-11 0 -18.5 7.5t-17.5 26.5q-57 112 -78 144l6 4q16 -21 34 -40.5t41 -42t33 -33.5q10 11 33 33.5t41 42t34 40.5l6 -4q-21 -32 -78 -144q-10 -19 -17.5 -26.5t-18.5 -7.5zM567 212l-95 -243l-6 2q2 14 -5 21.5t-26 7.5h-411v4l445 667h-209q-61 0 -96 -39
q-42 -46 -116 -156l-6 3l95 234l6 -2q-2 -14 5.5 -22t27.5 -8h376v-4l-445 -667h244q33 0 53.5 8.5t45.5 36.5q48 54 111 160z" />
    <glyph glyph-name="zcaron" unicode="&#x17e;" horiz-adv-x="446" 
d="M248 543q-11 0 -18.5 7.5t-17.5 26.5q-57 112 -78 144l6 4q16 -21 34 -40.5t41 -42t33 -33.5q10 11 33 33.5t41 42t34 40.5l6 -4q-21 -32 -78 -144q-10 -19 -17.5 -26.5t-18.5 -7.5zM359 -21l-6 1q0 12 -9.5 16t-31.5 4h-280v4l299 478h-120q-33 0 -50.5 -6.5
t-36.5 -25.5q-43 -43 -88 -113l-5 3l68 171l6 -1q0 -12 9.5 -16t31.5 -4h261v-4l-300 -478h135q41 0 59.5 8.5t46.5 37.5q30 31 79 105l5 -3z" />
    <glyph glyph-name="florin" unicode="&#x192;" horiz-adv-x="356" 
d="M338 326h-128v-269q0 -111 -51 -183q-35 -50 -88 -79.5t-100 -29.5q-30 0 -30 26q0 27 30 27q6 0 33 -2t37 -2q59 0 81 32.5t22 115.5v364h-97v9h97v72q0 111 51 183q35 50 88 79.5t100 29.5q30 0 30 -26q0 -27 -30 -27q-6 0 -33 2t-37 2q-59 0 -81 -32.5t-22 -115.5
v-167h128v-9z" />
    <glyph glyph-name="uni01B5" unicode="&#x1b5;" horiz-adv-x="586" 
d="M567 212l-95 -243l-6 2q2 15 -5 22t-27 7h-410v4l225 337h-139v10h146l213 320h-209q-61 0 -96 -39q-42 -46 -116 -156l-6 3l95 234l6 -2q-2 -14 5.5 -22t27.5 -8h376v-4l-217 -326h132v-10h-139l-221 -331h242q33 0 54.5 8.5t46.5 36.5q48 54 111 160z" />
    <glyph glyph-name="uni01B6" unicode="&#x1b6;" horiz-adv-x="446" 
d="M345 243h-91l-147 -235h135q39 0 57 8.5t49 37.5q25 24 79 105l5 -3l-73 -177l-6 1q0 12 -9.5 16t-31.5 4h-280v4l150 239h-87v9h92l144 230h-120q-32 0 -49.5 -6.5t-37.5 -25.5q-38 -36 -88 -113l-5 3l68 171l6 -1q0 -12 9.5 -16t31.5 -4h261v-4l-147 -234h85v-9z" />
    <glyph glyph-name="Aringacute" unicode="&#x1fa;" horiz-adv-x="638" 
d="M381 828q0 -36 -24 -61t-60 -25t-60 25t-24 61q0 27 13 50q21 36 43 88t35 72q10 15 26 15q12 0 20.5 -8.5t8.5 -19.5t-6 -20q-12 -18 -51.5 -53.5t-57.5 -56.5q24 19 53 19q36 0 60 -25t24 -61zM371 828q0 31 -21.5 53.5t-52.5 22.5t-52.5 -22.5t-21.5 -53.5t21.5 -53.5
t52.5 -22.5t52.5 22.5t21.5 53.5zM653 0h-21q-6 0 -32 1.5t-41 1.5q-18 0 -45 -1.5t-32 -1.5h-21v8q52 0 52 31q0 10 -7 25l-52 124h-322l-27 -68q-14 -36 -14 -59q0 -53 71 -53v-8h-12q-11 0 -41 1.5t-43 1.5q-7 0 -34.5 -1.5t-35.5 -1.5h-21v8q41 2 68.5 27.5t51.5 86.5
l187 478l-34 81q9 0 21 -0.5t18 -0.5t17 0.5t18 0.5l260 -621q22 -52 71 -52v-8zM288 589l-152 -391h314z" />
    <glyph glyph-name="aringacute" unicode="&#x1fb;" horiz-adv-x="500" 
d="M338 639q0 -36 -24 -61t-60 -25t-60 25t-24 61q0 27 13 50q21 36 43 88t35 72q11 15 26 15q13 0 21 -8t8 -20q0 -11 -6 -20q-12 -18 -51.5 -53.5t-57.5 -56.5q24 19 53 19q36 0 60 -25t24 -61zM328 639q0 31 -21.5 53.5t-52.5 22.5t-52.5 -22.5t-21.5 -53.5t21.5 -53.5
t52.5 -22.5t52.5 22.5t21.5 53.5zM403 -8q-30 0 -45.5 19t-15.5 47q-78 -66 -158 -66q-62 0 -98 34t-36 93q0 60 44 101t119 71l129 52v78q0 39 -10 54t-41 15q-51 0 -88.5 -26t-77.5 -75q-14 -17 -29 -17q-10 0 -18 7.5t-8 18.5q0 31 69.5 65.5t152.5 34.5q116 0 116 -91
v-362q0 -35 24 -35q25 0 46 36l5 -3q-27 -51 -80 -51zM193 3q33 0 75 19t74 46v18v248l-126 -52q-54 -23 -72 -61.5t-18 -99.5q0 -118 67 -118z" />
    <glyph glyph-name="AEacute" unicode="&#x1fc;" horiz-adv-x="1001" 
d="M557 733l-6 4q21 37 43.5 90t35.5 73q10 15 26 15q12 0 20.5 -8.5t8.5 -19.5t-6 -20q-12 -18 -53.5 -57.5t-68.5 -76.5zM879 -31l-6 2q2 14 -5 21.5t-26 7.5h-237q-15 0 -42 0.5t-47 0.5q-16 0 -38 -0.5t-32 -0.5h-16v8h1q32 0 41.5 8.5t9.5 40.5v131h-323l-52 -71
q-30 -40 -30 -67q0 -20 12.5 -31t48.5 -11h2v-8h-12q-12 0 -42.5 1.5t-43.5 1.5q-8 0 -36.5 -1.5t-37.5 -1.5h-23v8h2q70 2 151 114l365 496q13 18 13 33q0 22 -41 22h-5v8h16q10 0 32 -0.5t38 -0.5q20 0 47 0.5t42 0.5h224q19 0 27 7.5t6 22.5l6 2l92 -226l-6 -3
q-78 109 -113 148t-96 39h-195v-320h128q55 0 73 30.5t25 101.5h7v-277h-7q-4 36 -8 55.5t-13.5 40.5t-28.5 30t-48 9h-128v-331h206q33 0 54.5 8.5t46.5 36.5q48 54 111 160l6 -3zM482 198v429l-315 -429h315z" />
    <glyph glyph-name="aeacute" unicode="&#x1fd;" horiz-adv-x="770" 
d="M345 542l-6 4q21 37 43.5 90t35.5 73q10 15 26 15q12 0 20.5 -8t8.5 -20q0 -11 -6 -20q-12 -18 -53.5 -57.5t-68.5 -76.5zM544 -8q-48 0 -91 26t-73 73q-78 -99 -181 -99q-61 0 -105 39t-44 118q0 82 65.5 129t156.5 47h70v94q0 40 -9.5 55.5t-41.5 15.5q-50 0 -87.5 -26
t-78.5 -75q-14 -17 -29 -17q-10 0 -18 7.5t-8 18.5q0 31 69.5 65.5t152.5 34.5q55 0 78 -17.5t29 -58.5q57 76 150 76q71 0 125.5 -49.5t50.5 -132.5h-314q-1 -15 -1 -45q0 -109 43.5 -183t115.5 -74q107 0 149 126l6 -2q-47 -146 -180 -146zM545 490q-54 0 -89 -43.5
t-44 -121.5h245q-2 165 -112 165zM204 2q95 0 171 96q-33 63 -33 168v50h-68q-83 0 -115.5 -39.5t-32.5 -125.5q0 -149 78 -149z" />
    <glyph glyph-name="Oslashacute" unicode="&#x1fe;" horiz-adv-x="658" 
d="M292 733l-6 4q21 37 43.5 90t35.5 73q11 15 26 15q13 0 21 -8.5t8 -19.5t-6 -20q-12 -18 -53.5 -57.5t-68.5 -76.5zM329 -10q-97 0 -171 60l-64 -105l-8 5l64 106q-55 47 -85.5 121.5t-30.5 163.5q0 151 83 250.5t212 99.5q97 0 171 -60l63 104l9 -5l-64 -105
q55 -48 85.5 -122t30.5 -162q0 -151 -83 -251t-212 -100zM329 682q-215 0 -215 -341q0 -172 54 -257l316 521q-53 77 -155 77zM329 -1q215 0 215 342q0 171 -54 255l-317 -521q55 -76 156 -76z" />
    <glyph glyph-name="oslashacute" unicode="&#x1ff;" horiz-adv-x="512" 
d="M202 542l-6 4q21 37 43.5 90t35.5 73q11 15 26 15q13 0 21 -8t8 -20q0 -11 -6 -20q-12 -18 -53.5 -57.5t-68.5 -76.5zM256 -8q-69 0 -122 44l-53 -86l-7 5l53 87q-85 74 -85 203q0 107 62.5 180t151.5 73q66 0 122 -45l53 88l8 -5l-54 -88q85 -77 85 -203
q0 -107 -62.5 -180t-151.5 -73zM256 490q-33 0 -56.5 -10t-43 -36t-29 -75.5t-9.5 -123.5q0 -118 26 -176l219 361q-31 60 -107 60zM256 0q33 0 56.5 10t43 36t29 75.5t9.5 123.5q0 115 -26 175l-220 -360q32 -60 108 -60z" />
    <glyph glyph-name="uni0218" unicode="&#x218;" horiz-adv-x="554" 
d="M516 188q0 -63 -32.5 -109.5t-78 -67.5t-94.5 -21q-45 0 -100.5 15.5t-62.5 15.5q-36 0 -33 -33l-6 -2l-81 230l6 3q32 -60 67 -103.5t63 -65.5t58.5 -34t48.5 -14.5t39 -2.5q68 0 114.5 41t46.5 99q0 110 -165 170l-81 30q-71 26 -118.5 72.5t-47.5 114.5q0 75 54 120
t135 45q28 0 72 -9.5t55 -9.5q36 0 33 33l6 2l87 -206l-6 -3q-65 108 -125 146t-122 38q-71 0 -110.5 -35t-39.5 -87q0 -53 36.5 -87.5t118.5 -64.5l83 -31q180 -66 180 -189zM308 -155q-19 0 -31 12.5t-12 30.5t12.5 31t32.5 13q21 0 35.5 -16.5t14.5 -40.5
q0 -48 -25.5 -78t-56.5 -37l-1 6q28 7 50 33t22 62q0 5 -1 11q-12 -27 -40 -27z" />
    <glyph glyph-name="uni0219" unicode="&#x219;" horiz-adv-x="451" 
d="M245 -8q-28 0 -67 10t-58 10q-11 0 -18 -5.5t-6 -14.5l-6 -2l-50 172l6 2q78 -164 200 -164q59 0 91 29t32 73q0 69 -112 112l-81 31q-107 41 -107 133q0 53 35 86.5t95 33.5q26 0 60.5 -8.5t48.5 -8.5q12 0 19 5t6 15l6 2l50 -168l-6 -2q-70 157 -184 157q-51 0 -76 -23
t-25 -54q0 -32 25 -57t83 -48l80 -31q59 -23 88 -55t29 -80q0 -70 -45 -110t-113 -40zM242 -155q-19 0 -31 12.5t-12 30.5t12.5 31t32.5 13q21 0 35.5 -16.5t14.5 -40.5q0 -48 -25.5 -78t-56.5 -37l-1 6q28 7 50 33t22 62q0 5 -1 11q-12 -27 -40 -27z" />
    <glyph glyph-name="uni021A" unicode="&#x21a;" horiz-adv-x="640" 
d="M406 8v-8h-16q-10 0 -32 1.5t-38 1.5t-38 -1.5t-32 -1.5h-16v8h1q32 0 41.5 8.5t9.5 40.5v614h-88q-29 0 -43.5 -6t-33.5 -30q-38 -48 -106 -179l-6 3l76 253l6 -1q0 -30 36 -30h110q7 0 34.5 -0.5t48.5 -0.5t48.5 0.5t34.5 0.5h110q36 0 36 30l6 1l76 -253l-6 -3
q-68 131 -106 179q-19 24 -33.5 30t-43.5 6h-88v-614q0 -32 9.5 -40.5t41.5 -8.5h1zM317 -155q-19 0 -31 12.5t-12 30.5t12.5 31t32.5 13q21 0 35.5 -16.5t14.5 -40.5q0 -48 -25.5 -78t-56.5 -37l-1 6q28 7 50 33t22 62q0 5 -1 11q-12 -27 -40 -27z" />
    <glyph glyph-name="uni021B" unicode="&#x21b;" horiz-adv-x="279" 
d="M164 -8q-76 0 -76 83v406h-68v9h68v79q27 0 43.5 17.5t16.5 42.5v1h6v-140h101v-9h-101v-417q0 -52 37 -52q16 0 33 14t28 35l6 -3q-13 -27 -38 -46.5t-56 -19.5zM144 -155q-19 0 -31 12.5t-12 30.5t12.5 31t32.5 13q21 0 35.5 -16.5t14.5 -40.5q0 -48 -25.5 -78
t-56.5 -37l-1 6q28 7 50 33t22 62q0 5 -1 11q-12 -27 -40 -27z" />
    <glyph glyph-name="uni0237" unicode="&#x237;" horiz-adv-x="241" 
d="M164 39q0 -106 -46 -184q-54 -91 -142 -91q-13 0 -22 7t-9 19q0 26 29 26q12 0 37 -5t33 -5q54 0 54 85v508q0 32 -9.5 40.5t-44.5 8.5h-1v7h6q33 0 68 13t41 30h6v-459z" />
    <glyph glyph-name="circumflex" unicode="&#x2c6;" horiz-adv-x="326" 
d="M277 546l-6 -4q-16 21 -34 40.5t-41 42t-33 33.5q-10 -11 -33 -33.5t-41 -42t-34 -40.5l-6 4q21 32 78 144q10 19 17.5 26.5t18.5 7.5t18.5 -7.5t17.5 -26.5q57 -112 78 -144z" />
    <glyph glyph-name="caron" unicode="&#x2c7;" horiz-adv-x="326" 
d="M163 543q-11 0 -18.5 7.5t-17.5 26.5q-57 112 -78 144l6 4q16 -21 34 -40.5t41 -42t33 -33.5q10 11 33 33.5t41 42t34 40.5l6 -4q-21 -32 -78 -144q-10 -19 -17.5 -26.5t-18.5 -7.5z" />
    <glyph glyph-name="breve" unicode="&#x2d8;" horiz-adv-x="388" 
d="M194 569q-83 0 -129 115l6 3q34 -67 123 -67t123 67l6 -3q-46 -115 -129 -115z" />
    <glyph glyph-name="dotaccent" unicode="&#x2d9;" horiz-adv-x="197" 
d="M98 576q-20 0 -34 13.5t-14 34.5t14 35t34 14t34.5 -14t14.5 -35t-14 -34.5t-35 -13.5z" />
    <glyph glyph-name="ring" unicode="&#x2da;" horiz-adv-x="267" 
d="M217 639q0 -36 -24 -61t-60 -25t-60 25t-24 61t24 61t60 25t60 -25t24 -61zM207 639q0 31 -21.5 53.5t-52.5 22.5t-52.5 -22.5t-21.5 -53.5t21.5 -53.5t52.5 -22.5t52.5 22.5t21.5 53.5z" />
    <glyph glyph-name="ogonek" unicode="&#x2db;" horiz-adv-x="298" 
d="M181 0h13q-86 -41 -86 -94q0 -27 17.5 -43.5t44.5 -16.5q41 0 73 40l6 -4q-18 -25 -49.5 -42.5t-64.5 -17.5q-39 0 -62 19t-23 48q0 52 131 111z" />
    <glyph glyph-name="tilde" unicode="&#x2dc;" horiz-adv-x="402" 
d="M241 588q-21 0 -55 21.5t-61 21.5q-25 0 -59 -56l-6 4q1 1 10.5 17.5t13.5 21.5t14.5 18.5t18.5 19t20 11t24 5.5q21 0 55 -21.5t61 -21.5q25 0 59 56l6 -4q-1 -1 -10.5 -17.5t-13.5 -21.5t-14.5 -18.5t-18.5 -19t-20 -11t-24 -5.5z" />
    <glyph glyph-name="hungarumlaut" unicode="&#x2dd;" horiz-adv-x="335" 
d="M55 544l-6 4q19 38 35.5 89t26.5 70q9 17 26 17q12 0 20 -7.5t8 -18.5q0 -9 -5 -19q-10 -19 -46.5 -59t-58.5 -76zM175 544l-6 4q19 38 35.5 89t26.5 70q9 17 26 17q12 0 20 -7.5t8 -18.5q0 -9 -5 -19q-10 -19 -46.5 -59t-58.5 -76z" />
    <glyph glyph-name="pi" unicode="&#x3c0;" horiz-adv-x="557" 
d="M514 0h-14q-12 0 -34 1.5t-40 1.5t-40 -1.5t-34 -1.5h-14v7h1q35 0 44.5 9t9.5 41v424h-229v-424q0 -32 9.5 -41t44.5 -9h1v-7h-14q-11 0 -34 1.5t-40 1.5t-40 -1.5t-34 -1.5h-14v7h1q35 0 44.5 9t9.5 41v376q0 32 -9.5 41t-44.5 9h-1v7h14q11 0 33.5 -0.5t40.5 -0.5
q17 0 45 0.5t39 0.5h127q12 0 39 -0.5t45 -0.5t40 0.5t34 0.5h14v-7h-1q-35 0 -44.5 -9t-9.5 -41v-376q0 -32 9.5 -41t44.5 -9h1v-7z" />
    <glyph glyph-name="Wgrave" unicode="&#x1e80;" horiz-adv-x="976" 
d="M546 735l-6 -4q-27 37 -68.5 76.5t-53.5 57.5q-6 9 -6 20t8 19.5t21 8.5q15 0 26 -15q13 -20 35.5 -73t43.5 -90zM751 0q-9 0 -20 0.5t-17 0.5t-15 -0.5t-20 -0.5l-191 554l-151 -474l29 -80q-9 0 -19.5 0.5t-17.5 0.5q-6 0 -15.5 -0.5t-20.5 -0.5l-231 622
q-20 51 -69 51v8h21q6 0 31 -1.5t41 -1.5q18 0 45 1.5t32 1.5h21v-8q-53 0 -53 -30q0 -11 5 -24l195 -524l151 476l-18 52q-10 29 -26.5 39.5t-42.5 10.5v8h21q6 0 33 -1.5t43 -1.5q18 0 42.5 1.5t29.5 1.5h21v-8q-53 0 -53 -30q0 -11 5 -24l180 -519l146 461q14 44 14 59
q0 53 -71 53v8h12q11 0 41 -1.5t43 -1.5q7 0 34.5 1.5t35.5 1.5h21v-8q-85 -3 -120 -114l-150 -476z" />
    <glyph glyph-name="wgrave" unicode="&#x1e81;" horiz-adv-x="752" 
d="M433 546l-6 -4q-27 37 -68.5 76.5t-53.5 57.5q-6 9 -6 20q0 12 8.5 20t20.5 8q16 0 26 -15q13 -20 35.5 -73t43.5 -90zM585 0q-10 0 -20.5 0.5t-15.5 0.5q-6 0 -17 -0.5t-19 -0.5l-139 370l-105 -295l28 -75q-10 0 -20 0.5t-15 0.5q-6 0 -17.5 -0.5t-19.5 -0.5l-163 433
q-11 30 -25.5 40t-42.5 10v7h23q6 0 27.5 -1.5t40.5 -1.5t40.5 1.5t26.5 1.5h24v-7q-50 0 -50 -24q0 -6 3 -15l135 -357l105 295l-19 51q-11 30 -25.5 40t-42.5 10v7h23q6 0 27 -1.5t40 -1.5t41 1.5t27 1.5h24v-7q-50 0 -50 -24q0 -7 3 -15l135 -357l110 309q8 21 8 40
q0 47 -66 47v7h10q12 0 35 -1.5t38 -1.5t37.5 1.5t30.5 1.5h17v-7q-41 -1 -64 -24.5t-38 -66.5l-113 -317z" />
    <glyph glyph-name="Wacute" unicode="&#x1e82;" horiz-adv-x="976" 
d="M430 731l-6 4q21 37 43.5 90t35.5 73q11 15 26 15q13 0 21 -8.5t8 -19.5t-6 -20q-12 -18 -53.5 -57.5t-68.5 -76.5zM751 0q-9 0 -20 0.5t-17 0.5t-15 -0.5t-20 -0.5l-191 554l-151 -474l29 -80q-9 0 -19.5 0.5t-17.5 0.5q-6 0 -15.5 -0.5t-20.5 -0.5l-231 622
q-20 51 -69 51v8h21q6 0 31 -1.5t41 -1.5q18 0 45 1.5t32 1.5h21v-8q-53 0 -53 -30q0 -11 5 -24l195 -524l151 476l-18 52q-10 29 -26.5 39.5t-42.5 10.5v8h21q6 0 33 -1.5t43 -1.5q18 0 42.5 1.5t29.5 1.5h21v-8q-53 0 -53 -30q0 -11 5 -24l180 -519l146 461q14 44 14 59
q0 53 -71 53v8h12q11 0 41 -1.5t43 -1.5q7 0 34.5 1.5t35.5 1.5h21v-8q-85 -3 -120 -114l-150 -476z" />
    <glyph glyph-name="wacute" unicode="&#x1e83;" horiz-adv-x="752" 
d="M317 542l-6 4q21 37 43.5 90t35.5 73q10 15 26 15q12 0 20.5 -8t8.5 -20q0 -11 -6 -20q-12 -18 -53.5 -57.5t-68.5 -76.5zM585 0q-10 0 -20.5 0.5t-15.5 0.5q-6 0 -17 -0.5t-19 -0.5l-139 370l-105 -295l28 -75q-10 0 -20 0.5t-15 0.5q-6 0 -17.5 -0.5t-19.5 -0.5
l-163 433q-11 30 -25.5 40t-42.5 10v7h23q6 0 27.5 -1.5t40.5 -1.5t40.5 1.5t26.5 1.5h24v-7q-50 0 -50 -24q0 -6 3 -15l135 -357l105 295l-19 51q-11 30 -25.5 40t-42.5 10v7h23q6 0 27 -1.5t40 -1.5t41 1.5t27 1.5h24v-7q-50 0 -50 -24q0 -7 3 -15l135 -357l110 309
q8 21 8 40q0 47 -66 47v7h10q12 0 35 -1.5t38 -1.5t37.5 1.5t30.5 1.5h17v-7q-41 -1 -64 -24.5t-38 -66.5l-113 -317z" />
    <glyph glyph-name="Wdieresis" unicode="&#x1e84;" horiz-adv-x="976" 
d="M436 807q0 -19 -13 -31.5t-32 -12.5q-18 0 -31 12.5t-13 31.5t13 32t31 13q19 0 32 -13t13 -32zM625 807q0 -18 -13.5 -31t-31.5 -13q-19 0 -31.5 12.5t-12.5 31.5t12.5 32t31.5 13q18 0 31.5 -13t13.5 -32zM751 0q-9 0 -20 0.5t-17 0.5t-15 -0.5t-20 -0.5l-191 554
l-151 -474l29 -80q-9 0 -19.5 0.5t-17.5 0.5q-6 0 -15.5 -0.5t-20.5 -0.5l-231 622q-20 51 -69 51v8h21q6 0 31 -1.5t41 -1.5q18 0 45 1.5t32 1.5h21v-8q-53 0 -53 -30q0 -11 5 -24l195 -524l151 476l-18 52q-10 29 -26.5 39.5t-42.5 10.5v8h21q6 0 33 -1.5t43 -1.5
q18 0 42.5 1.5t29.5 1.5h21v-8q-53 0 -53 -30q0 -11 5 -24l180 -519l146 461q14 44 14 59q0 53 -71 53v8h12q11 0 41 -1.5t43 -1.5q7 0 34.5 1.5t35.5 1.5h21v-8q-85 -3 -120 -114l-150 -476z" />
    <glyph glyph-name="wdieresis" unicode="&#x1e85;" horiz-adv-x="752" 
d="M323 628q0 -19 -13 -31.5t-32 -12.5q-18 0 -31 12.5t-13 31.5t13 32t31 13q19 0 32 -13t13 -32zM512 628q0 -18 -13.5 -31t-31.5 -13q-19 0 -31.5 12.5t-12.5 31.5t12.5 32t31.5 13q18 0 31.5 -13t13.5 -32zM585 0q-10 0 -20.5 0.5t-15.5 0.5q-6 0 -17 -0.5t-19 -0.5
l-139 370l-105 -295l28 -75q-10 0 -20 0.5t-15 0.5q-6 0 -17.5 -0.5t-19.5 -0.5l-163 433q-11 30 -25.5 40t-42.5 10v7h23q6 0 27.5 -1.5t40.5 -1.5t40.5 1.5t26.5 1.5h24v-7q-50 0 -50 -24q0 -6 3 -15l135 -357l105 295l-19 51q-11 30 -25.5 40t-42.5 10v7h23q6 0 27 -1.5
t40 -1.5t41 1.5t27 1.5h24v-7q-50 0 -50 -24q0 -7 3 -15l135 -357l110 309q8 21 8 40q0 47 -66 47v7h10q12 0 35 -1.5t38 -1.5t37.5 1.5t30.5 1.5h17v-7q-41 -1 -64 -24.5t-38 -66.5l-113 -317z" />
    <glyph glyph-name="uni1E8A" unicode="&#x1e8a;" horiz-adv-x="632" 
d="M340 757q-20 0 -34 13.5t-14 34.5t14 35t34 14t34.5 -14t14.5 -35t-14 -34.5t-35 -13.5zM627 0h-39q-4 0 -27 1.5t-40 1.5t-42 -1.5t-31 -1.5h-39v8q56 0 56 27q0 13 -11 30l-155 249l-142 -197q-29 -40 -29 -66q0 -43 60 -43h1v-8h-13q-11 0 -40 1.5t-41 1.5
q-7 0 -34.5 -1.5t-36.5 -1.5h-19v8h1q29 0 56 18.5t41.5 36t45.5 60.5l144 200l-186 298q-32 52 -90 52v8h39q4 0 27.5 -1.5t40.5 -1.5q18 0 43 1.5t30 1.5h39v-8q-56 0 -56 -27q0 -13 11 -30l149 -240l126 188q29 44 29 66q0 43 -60 43h-1v8h13q11 0 40 -1.5t41 -1.5
q7 0 34.5 1.5t36.5 1.5h19v-8h-1q-42 -1 -73.5 -29t-69.5 -86l-128 -191l191 -307q32 -52 90 -52v-8z" />
    <glyph glyph-name="uni1E8B" unicode="&#x1e8b;" horiz-adv-x="485" 
d="M243 576q-20 0 -34 13.5t-14 34.5t14 35t34 14t34.5 -14t14.5 -35t-14 -34.5t-35 -13.5zM480 0h-26q-6 0 -28 1.5t-41 1.5t-40 -1.5t-26 -1.5h-24v7q47 0 47 22q0 8 -6 17l-114 175l-92 -135q-16 -24 -16 -42q0 -19 11 -28t44 -9h1v-7h-10q-12 0 -35 1.5t-37 1.5
q-15 0 -36.5 -1.5t-29.5 -1.5h-17v7h1q60 0 116 83l94 138l-126 196q-38 59 -79 59v7h26q6 0 28 -1.5t41 -1.5t40 1.5t26 1.5h24v-7q-47 0 -47 -22q0 -8 6 -17l107 -165l82 125q16 24 16 42q0 19 -11 28t-44 9h-1v7h10q12 0 35 -1.5t37 -1.5q15 0 36.5 1.5t29.5 1.5h17v-7
h-1q-62 0 -116 -83l-84 -128l133 -206q38 -59 79 -59v-7z" />
    <glyph glyph-name="Ygrave" unicode="&#x1ef2;" horiz-adv-x="593" 
d="M374 735l-6 -4q-27 37 -68.5 76.5t-53.5 57.5q-6 9 -6 20t8 19.5t21 8.5q15 0 26 -15q13 -20 35.5 -73t43.5 -90zM339 57q0 -32 9.5 -40.5t41.5 -8.5h1v-8h-16q-11 0 -32 1.5t-38 1.5t-38 -1.5t-32 -1.5h-16v8h1q32 0 41.5 8.5t9.5 40.5v253l-202 313q-18 27 -36 38.5
t-45 11.5v8h29q5 0 28 -1.5t41 -1.5q17 0 42 1.5t30 1.5h34v-8q-29 0 -40 -5.5t-11 -19.5q0 -12 10 -29l183 -282l139 227q26 43 26 63q0 46 -64 46h-1v8h13q11 0 39.5 -1.5t41.5 -1.5q7 0 35 1.5t36 1.5h19v-8h-1q-42 -1 -71 -29t-66 -88l-141 -229v-270z" />
    <glyph glyph-name="ygrave" unicode="&#x1ef3;" horiz-adv-x="465" 
d="M303 546l-6 -4q-27 37 -68.5 76.5t-53.5 57.5q-6 9 -6 20q0 12 8.5 20t20.5 8q16 0 26 -15q13 -20 35.5 -73t43.5 -90zM297 0q-9 0 -20 0.5t-16 0.5q-3 0 -12 -0.5t-14 -0.5l-20 -45q-26 -58 -39.5 -84.5t-35 -56t-45.5 -40t-57 -10.5q-41 0 -41 27q0 12 8 18.5t20 6.5
q11 0 36.5 -6.5t35.5 -6.5q26 0 47.5 31.5t62.5 123.5l19 42l-164 434q-11 29 -25.5 39t-42.5 10v7h23q6 0 27.5 -1.5t40.5 -1.5t40.5 1.5t26.5 1.5h24v-7q-50 0 -50 -24q0 -6 3 -15l135 -357l110 309q8 21 8 40q0 47 -66 47v7h10q12 0 35 -1.5t37 -1.5q15 0 38 1.5t31 1.5
h17v-7q-40 -1 -63 -24.5t-39 -66.5l-113 -317z" />
    <glyph glyph-name="endash" unicode="&#x2013;" horiz-adv-x="512" 
d="M467 276h-422v10h422v-10z" />
    <glyph glyph-name="emdash" unicode="&#x2014;" horiz-adv-x="988" 
d="M943 276h-898v10h898v-10z" />
    <glyph glyph-name="quoteleft" unicode="&#x2018;" horiz-adv-x="192" 
d="M101 597q20 0 33 -13t13 -33q0 -19 -14 -33t-35 -14q-22 0 -37.5 17.5t-15.5 43.5q0 53 27 84.5t61 39.5l2 -7q-31 -7 -55.5 -35.5t-24.5 -69.5q0 -4 1 -9q13 29 45 29z" />
    <glyph glyph-name="quoteright" unicode="&#x2019;" horiz-adv-x="192" 
d="M91 596q-20 0 -33 13t-13 33q0 19 14 33t35 14q22 0 37.5 -17.5t15.5 -43.5q0 -53 -27 -84.5t-61 -39.5l-2 7q31 7 55.5 35.5t24.5 69.5q0 4 -1 9q-13 -29 -45 -29z" />
    <glyph glyph-name="quotesinglbase" unicode="&#x201a;" horiz-adv-x="192" 
d="M91 -9q-20 0 -33 13t-13 33q0 19 14 33t35 14q22 0 37.5 -17.5t15.5 -43.5q0 -53 -27 -84.5t-61 -39.5l-2 7q31 7 55.5 35.5t24.5 69.5q0 4 -1 9q-13 -29 -45 -29z" />
    <glyph glyph-name="quotedblleft" unicode="&#x201c;" horiz-adv-x="329" 
d="M101 597q20 0 33 -13t13 -33q0 -19 -14 -33t-35 -14q-22 0 -37.5 17.5t-15.5 43.5q0 53 27 84.5t61 39.5l2 -7q-31 -7 -55.5 -35.5t-24.5 -69.5q0 -4 1 -9q13 29 45 29zM238 597q20 0 33 -13t13 -33q0 -19 -14 -33t-35 -14q-22 0 -37.5 17.5t-15.5 43.5q0 53 27 84.5
t61 39.5l2 -7q-31 -7 -55.5 -35.5t-24.5 -69.5q0 -4 1 -9q13 29 45 29z" />
    <glyph glyph-name="quotedblright" unicode="&#x201d;" horiz-adv-x="329" 
d="M91 596q-20 0 -33 13t-13 33q0 19 14 33t35 14q22 0 37.5 -17.5t15.5 -43.5q0 -53 -27 -84.5t-61 -39.5l-2 7q31 7 55.5 35.5t24.5 69.5q0 4 -1 9q-13 -29 -45 -29zM228 596q-20 0 -33 13t-13 33q0 19 14 33t35 14q22 0 37.5 -17.5t15.5 -43.5q0 -53 -27 -84.5t-61 -39.5
l-2 7q31 7 55.5 35.5t24.5 69.5q0 4 -1 9q-13 -29 -45 -29z" />
    <glyph glyph-name="quotedblbase" unicode="&#x201e;" horiz-adv-x="329" 
d="M91 -9q-20 0 -33 13t-13 33q0 19 14 33t35 14q22 0 37.5 -17.5t15.5 -43.5q0 -53 -27 -84.5t-61 -39.5l-2 7q31 7 55.5 35.5t24.5 69.5q0 4 -1 9q-13 -29 -45 -29zM228 -9q-20 0 -33 13t-13 33q0 19 14 33t35 14q22 0 37.5 -17.5t15.5 -43.5q0 -53 -27 -84.5t-61 -39.5
l-2 7q31 7 55.5 35.5t24.5 69.5q0 4 -1 9q-13 -29 -45 -29z" />
    <glyph glyph-name="dagger" unicode="&#x2020;" horiz-adv-x="432" 
d="M220 -10h-8q0 227 -25 407q21 55 25 99q-19 -1 -65 -13t-61 -12q-36 0 -36 30q0 33 36 33q15 0 60.5 -14.5t65.5 -15.5q-3 55 -17.5 102t-14.5 59q0 18 10.5 29t25.5 11t25.5 -11t10.5 -29q0 -12 -14.5 -59t-17.5 -102q20 1 65.5 15.5t60.5 14.5q36 0 36 -33
q0 -30 -36 -30q-15 0 -61 12t-65 13q4 -44 25 -99q-25 -180 -25 -407z" />
    <glyph glyph-name="daggerdbl" unicode="&#x2021;" horiz-adv-x="432" 
d="M220 360h-8q0 21 -2.5 37.5t-5.5 24t-6.5 16t-4.5 9.5q1 4 6 20t9 32.5t5 26.5q-19 -1 -65.5 -13t-61.5 -12q-36 0 -36 30q0 33 36 33q15 0 61 -14.5t66 -15.5q-3 55 -18 87.5t-15 43.5q0 18 10.5 29t25.5 11t25.5 -11t10.5 -29q0 -11 -15 -43.5t-18 -87.5q20 1 66 15.5
t61 14.5q36 0 36 -33q0 -30 -36 -30q-15 0 -61.5 12t-65.5 13q1 -10 5 -26.5t9 -32.5t6 -20q-1 -1 -4.5 -9.5t-6.5 -16t-5.5 -24t-2.5 -37.5zM212 337h8q0 -21 2.5 -37.5t5.5 -24t6.5 -16t4.5 -9.5q-1 -3 -5.5 -19.5t-8.5 -33t-5 -26.5q19 1 65 13t61 12q36 0 36 -30
q0 -33 -36 -33q-15 0 -60.5 14.5t-65.5 15.5q3 -55 17.5 -87.5t14.5 -43.5q0 -18 -10.5 -29t-25.5 -11t-25.5 11t-10.5 29q0 11 14.5 43.5t17.5 87.5q-20 -1 -65.5 -15.5t-60.5 -14.5q-36 0 -36 33q0 30 36 30q15 0 61 -12t65 -13q-1 10 -5 26.5t-8.5 33t-5.5 19.5
q1 1 4.5 9.5t6.5 16t5.5 24t2.5 37.5z" />
    <glyph glyph-name="bullet" unicode="&#x2022;" horiz-adv-x="338" 
d="M169 265q-36 0 -60.5 24t-24.5 61t24.5 61.5t60.5 24.5t60.5 -24.5t24.5 -61.5t-24.5 -61t-60.5 -24z" />
    <glyph glyph-name="ellipsis" unicode="&#x2026;" horiz-adv-x="642" 
d="M107 -8q-21 0 -36.5 15t-15.5 37t15.5 37t36.5 15t36.5 -15t15.5 -37t-15.5 -37t-36.5 -15zM321 -8q-21 0 -36.5 15t-15.5 37t15.5 37t36.5 15t36.5 -15t15.5 -37t-15.5 -37t-36.5 -15zM535 -8q-21 0 -36.5 15t-15.5 37t15.5 37t36.5 15t36.5 -15t15.5 -37t-15.5 -37
t-36.5 -15z" />
    <glyph glyph-name="perthousand" unicode="&#x2030;" horiz-adv-x="1047" 
d="M198 346q-64 0 -102.5 48.5t-38.5 122.5q0 73 38.5 122t102.5 49q48 0 83 -33q48 -46 103 -46q39 0 85.5 20.5t80.5 58.5l8 -5l-388 -692l-9 5l374 665q-26 -26 -67.5 -43.5t-83.5 -17.5q-43 0 -80 25q26 -46 26 -108q0 -73 -34.5 -122t-97.5 -49zM198 355q58 0 90 46
t32 116q0 69 -32 115.5t-90 46.5q-47 0 -63.5 -42.5t-16.5 -119.5t16.5 -119.5t63.5 -42.5zM518 -8q-64 0 -102.5 48.5t-38.5 122.5q0 73 38.5 122t102.5 49q63 0 97.5 -49.5t34.5 -121.5q0 -73 -34.5 -122t-97.5 -49zM870 -8q-64 0 -102.5 48.5t-38.5 122.5q0 73 38.5 122
t102.5 49q63 0 97.5 -49.5t34.5 -121.5q0 -73 -34.5 -122t-97.5 -49zM518 1q58 0 90 46t32 116q0 69 -32 115.5t-90 46.5q-47 0 -63.5 -42.5t-16.5 -119.5t16.5 -119.5t63.5 -42.5zM870 1q58 0 90 46t32 116q0 69 -32 115.5t-90 46.5q-47 0 -63.5 -42.5t-16.5 -119.5
t16.5 -119.5t63.5 -42.5z" />
    <glyph glyph-name="guilsinglleft" unicode="&#x2039;" horiz-adv-x="345" 
d="M271 69q-25 26 -79 71t-94.5 76.5t-47.5 36.5q7 5 47.5 36.5t94.5 76.5t79 71l5 -5q-48 -55 -134 -179q110 -152 134 -179z" />
    <glyph glyph-name="guilsinglright" unicode="&#x203a;" horiz-adv-x="345" 
d="M74 69l-5 5q48 55 134 179q-110 152 -134 179l5 5q25 -26 79 -71t94.5 -76.5t47.5 -36.5q-7 -5 -47.5 -36.5t-94.5 -76.5t-79 -71z" />
    <glyph glyph-name="fraction" unicode="&#x2044;" horiz-adv-x="58" 
d="M284 691l-503 -710l-8 6l503 710z" />
    <glyph glyph-name="uni2070" unicode="&#x2070;" 
d="M266 539q0 -64 -34 -107t-87 -43t-87 43t-34 107t34 107t87 43t87 -43t34 -107zM80 539q0 -143 65 -143t65 143t-65 143t-65 -143z" />
    <glyph glyph-name="uni2074" unicode="&#x2074;" 
d="M232 397h-11q-5 0 -20 1.5t-34 1.5t-34 -1.5t-20 -1.5h-22v7h11q23 0 31 9.5t8 40.5v19h-129v4l137 204q1 0 9 -0.5t12 -0.5q5 0 12 0.5t11 0.5v-200h3q32 0 65 66l5 -1l-16 -73h-57v-19q0 -31 7 -40.5t30 -9.5h2v-7zM141 481v174l-116 -174h116z" />
    <glyph glyph-name="uni2075" unicode="&#x2075;" 
d="M244 492q0 -45 -33 -74t-74 -29q-46 0 -76.5 19.5t-30.5 46.5q0 9 6 16t15 7q21 0 26 -25q7 -32 20.5 -44t39.5 -12q28 0 39.5 22t11.5 72q0 49 -10.5 67.5t-39.5 18.5q-52 0 -75 -41l-6 2q21 143 22 143h109q31 0 41 24l5 -1l-15 -67h-139l-12 -81q27 29 73 29
q44 0 73.5 -26t29.5 -67z" />
    <glyph glyph-name="uni2076" unicode="&#x2076;" 
d="M34 522q0 62 55 110t139 61l1 -7q-120 -18 -137 -126q25 33 65 33q41 0 70 -26t29 -69q0 -46 -35.5 -77.5t-72.5 -31.5q-41 0 -77.5 33t-36.5 100zM90 522q0 -71 14 -98.5t44 -27.5q52 0 52 101q0 49 -10 68.5t-35 19.5q-35 0 -64 -37q-1 -8 -1 -26z" />
    <glyph glyph-name="uni2077" unicode="&#x2077;" 
d="M123 389q-12 0 -20.5 8t-8.5 22q0 82 123 218h-132q-31 0 -43 -31l-6 1l21 98l6 -1q-1 -14 6 -18.5t24 -4.5h163v-4q-6 -8 -26 -34t-24.5 -33l-18 -28t-17 -33t-10.5 -34t-8.5 -44.5t-1.5 -51.5q0 -14 -8 -22t-19 -8z" />
    <glyph glyph-name="uni2078" unicode="&#x2078;" 
d="M149 389q-44 0 -76 21.5t-32 54.5q0 53 71 75q-21 8 -38.5 27t-17.5 47q0 32 27 53.5t68 21.5q37 0 63.5 -18.5t26.5 -47.5q0 -18 -14 -36t-41 -27q69 -28 69 -83q0 -38 -31 -63t-75 -25zM202 622q0 27 -14 43t-38 16q-29 0 -43.5 -13t-14.5 -33q0 -37 46 -55l40 -17
q24 24 24 59zM150 397q30 0 46.5 17.5t16.5 44.5q0 40 -53 61l-40 17q-33 -21 -33 -72q0 -68 63 -68z" />
    <glyph glyph-name="uni2079" unicode="&#x2079;" 
d="M256 556q0 -62 -55 -110t-139 -61l-1 7q120 18 137 126q-25 -33 -65 -33q-41 0 -70 26t-29 69q0 46 35.5 77.5t72.5 31.5q41 0 77.5 -33t36.5 -100zM200 556q0 71 -14 98.5t-44 27.5q-52 0 -52 -101q0 -49 10 -68.5t35 -19.5q35 0 64 37q1 8 1 26z" />
    <glyph glyph-name="parenleft.sups" unicode="&#x207d;" horiz-adv-x="177" 
d="M80 539q0 -51 16 -103t46 -78l-5 -6q-43 32 -72.5 81.5t-29.5 105.5t29.5 105.5t72.5 81.5l5 -6q-30 -26 -46 -78t-16 -103z" />
    <glyph glyph-name="parenright.sups" unicode="&#x207e;" horiz-adv-x="177" 
d="M97 539q0 51 -16 103t-46 78l5 6q43 -32 72.5 -81.5t29.5 -105.5t-29.5 -105.5t-72.5 -81.5l-5 6q30 26 46 78t16 103z" />
    <glyph glyph-name="uni2080" unicode="&#x2080;" 
d="M266 142q0 -64 -34 -107t-87 -43t-87 43t-34 107t34 107t87 43t87 -43t34 -107zM80 142q0 -143 65 -143t65 143t-65 143t-65 -143z" />
    <glyph glyph-name="uni2081" unicode="&#x2081;" 
d="M223 0h-7q-12 0 -29 1.5t-35 1.5t-35 -1.5t-29 -1.5h-22v7h18q26 0 34 9t8 41v141q0 22 -16 22q-6 0 -40 -17l-3 6l15 8q31 17 58.5 43t32.5 42h5v-245q0 -30 7 -40t30 -10h8v-7z" />
    <glyph glyph-name="uni2082" unicode="&#x2082;" 
d="M238 223q0 -18 -6.5 -34t-22.5 -34t-28 -29t-38 -33t-37 -32l-19 -17h156l-16 -76l-6 1q2 31 -27 31h-160v4l61 60q87 87 87 159q0 62 -36 62q-32 0 -48 -48q-9 -27 -27 -27q-21 0 -21 21t28 41t72 20q39 0 63.5 -17.5t24.5 -51.5z" />
    <glyph glyph-name="uni2083" unicode="&#x2083;" 
d="M254 84q0 -40 -33 -66t-74 -26q-50 0 -81 22.5t-31 53.5q0 9 6 16t15 7q21 0 26 -25q8 -37 22.5 -51.5t42.5 -14.5t39.5 20t11.5 62q0 73 -33 73q-9 0 -21 -6l-33 -16l-3 7l41 20q30 15 30 68q0 57 -36 57q-31 0 -47 -48q-9 -27 -27 -27q-21 0 -21 21q0 20 28 40.5
t70 20.5q39 0 63 -15.5t24 -44.5q0 -22 -20 -41.5t-48 -28.5q35 0 62 -21t27 -57z" />
    <glyph glyph-name="uni2084" unicode="&#x2084;" 
d="M232 0h-11q-5 0 -20 1.5t-34 1.5t-34 -1.5t-20 -1.5h-22v7h11q23 0 31 9.5t8 40.5v19h-129v4l137 204q1 0 9 -0.5t12 -0.5q5 0 12 0.5t11 0.5v-200h3q32 0 65 66l5 -1l-16 -73h-57v-19q0 -31 7 -40.5t30 -9.5h2v-7zM141 84v174l-116 -174h116z" />
    <glyph glyph-name="uni2085" unicode="&#x2085;" 
d="M244 95q0 -45 -33 -74t-74 -29q-46 0 -76.5 19.5t-30.5 46.5q0 9 6 16t15 7q21 0 26 -25q7 -32 20.5 -44t39.5 -12q28 0 39.5 22t11.5 72q0 49 -10.5 67.5t-39.5 18.5q-52 0 -75 -41l-6 2q21 143 22 143h109q31 0 41 24l5 -1l-15 -67h-139l-12 -81q27 29 73 29
q44 0 73.5 -26t29.5 -67z" />
    <glyph glyph-name="uni2086" unicode="&#x2086;" 
d="M34 125q0 62 55 110t139 61l1 -7q-120 -18 -137 -126q25 33 65 33q41 0 70 -26t29 -69q0 -46 -35.5 -77.5t-72.5 -31.5q-41 0 -77.5 33t-36.5 100zM90 125q0 -71 14 -98.5t44 -27.5q52 0 52 101q0 49 -10 68.5t-35 19.5q-35 0 -64 -37q-1 -8 -1 -26z" />
    <glyph glyph-name="uni2087" unicode="&#x2087;" 
d="M123 -8q-12 0 -20.5 8t-8.5 22q0 82 123 218h-132q-31 0 -43 -31l-6 1l21 98l6 -1q-1 -14 6 -18.5t24 -4.5h163v-4q-6 -8 -26 -34t-24.5 -33l-18 -28t-17 -33t-10.5 -34t-8.5 -44.5t-1.5 -51.5q0 -14 -8 -22t-19 -8z" />
    <glyph glyph-name="uni2088" unicode="&#x2088;" 
d="M149 -8q-44 0 -76 21.5t-32 54.5q0 53 71 75q-21 8 -38.5 27t-17.5 47q0 32 27 53.5t68 21.5q37 0 63.5 -18.5t26.5 -47.5q0 -18 -14 -36t-41 -27q69 -28 69 -83q0 -38 -31 -63t-75 -25zM202 225q0 27 -14 43t-38 16q-29 0 -43.5 -13t-14.5 -33q0 -37 46 -55l40 -17
q24 24 24 59zM150 0q30 0 46.5 17.5t16.5 44.5q0 40 -53 61l-40 17q-33 -21 -33 -72q0 -68 63 -68z" />
    <glyph glyph-name="uni2089" unicode="&#x2089;" 
d="M256 159q0 -62 -55 -110t-139 -61l-1 7q120 18 137 126q-25 -33 -65 -33q-41 0 -70 26t-29 69q0 46 35.5 77.5t72.5 31.5q41 0 77.5 -33t36.5 -100zM200 159q0 71 -14 98.5t-44 27.5q-52 0 -52 -101q0 -49 10 -68.5t35 -19.5q35 0 64 37q1 8 1 26z" />
    <glyph glyph-name="Euro" unicode="&#x20ac;" horiz-adv-x="630" 
d="M124 340q0 27 3 57h-102v10h103q16 124 84 204t176 80q63 0 127.5 -40.5t64.5 -92.5q0 -14 -9 -22.5t-22 -8.5q-17 0 -26 15q-7 12 -16 45q-14 50 -42 72.5t-77 22.5q-53 0 -88.5 -20.5t-54.5 -60.5t-27 -85.5t-10 -108.5h257v-10h-257v-114h257v-10h-257q2 -64 10 -109
t27 -85t54.5 -60t88.5 -20q50 0 78 22t41 72q9 33 16 45q9 15 26 15q13 0 22 -8.5t9 -22.5q0 -52 -64.5 -92t-127.5 -40q-108 0 -176 79.5t-84 203.5h-103v10h102q-3 28 -3 57z" />
    <glyph glyph-name="trademark" unicode="&#x2122;" horiz-adv-x="787" 
d="M258 394h-8q-5 0 -22 1t-26 1q-8 0 -25 -1t-22 -1h-7v7h2q21 0 26 4t5 18v250h-28q-22 0 -40 -19q-13 -14 -48 -65l-5 3l38 103l5 -1q0 -13 17 -13h48q1 0 13.5 -0.5t20.5 -0.5t21 0.5t14 0.5h48q17 0 17 13l5 1l38 -103l-5 -3q-40 56 -48 65q-18 19 -40 19h-28v-250
q0 -14 5.5 -18t26.5 -4h2v-7zM717 394h-17q-6 0 -18 1t-20 1t-20.5 -1t-18.5 -1h-16v7h1q21 0 26.5 4t5.5 18v241l-93 -226l20 -44q-6 0 -13.5 0.5t-10.5 0.5q-2 0 -10 -0.5t-13 -0.5l-111 252v-204q0 -22 9.5 -31.5t37.5 -9.5h2v-7h-11q-2 0 -18 1t-24 1q-9 0 -24 -1
t-18 -1h-7v7h2q26 0 34 9.5t8 31.5v197q0 17 -8 25.5t-32 9.5h-2v7q8 0 24 -0.5t20 -0.5q6 0 18.5 0.5t18.5 0.5l102 -234l97 234l24 -1q8 0 20 0.5t18 0.5h17v-7h-2q-21 0 -26.5 -4t-5.5 -17v-230q0 -14 5.5 -18t26.5 -4h2v-7z" />
    <glyph glyph-name="uni2126" unicode="&#x2126;" horiz-adv-x="738" 
d="M670 390q0 -89 -63 -178.5t-174 -125.5v-76h56q37 0 57.5 10t48.5 44q29 37 101 143l6 -4l-80 -233l-6 1q0 29 -33 29h-160v93q56 24 94.5 79t53.5 110.5t15 107.5q0 59 -11 109t-35 92.5t-67.5 66.5t-103.5 24t-103.5 -24t-67.5 -66.5t-35 -92.5t-11 -109
q0 -52 15 -107.5t53.5 -110.5t94.5 -79v-93h-160q-33 0 -33 -29l-6 -1l-80 233l6 4q72 -106 101 -143q28 -34 48.5 -44t57.5 -10h56v76q-111 36 -174 125.5t-63 178.5q0 123 87 212t214 89t214 -89t87 -212z" />
    <glyph glyph-name="uni2153" unicode="&#x2153;" horiz-adv-x="390" 
d="M271 397h-7q-12 0 -29 1.5t-35 1.5t-35 -1.5t-29 -1.5h-22v7h18q26 0 34 9t8 41v141q0 22 -16 22q-6 0 -40 -17l-3 6l15 8q31 17 58.5 43t32.5 42h5v-245q0 -30 7 -40t30 -10h8v-7zM44 346h302v-9h-302v9zM308 84q0 -40 -33 -66t-74 -26q-50 0 -81 22.5t-31 53.5
q0 9 6 16t15 7q21 0 26 -25q8 -37 22.5 -51.5t42.5 -14.5t39.5 20t11.5 62q0 73 -33 73q-9 0 -21 -6l-33 -16l-3 7l41 20q30 15 30 68q0 57 -36 57q-31 0 -47 -48q-9 -27 -27 -27q-21 0 -21 21q0 20 28 40.5t70 20.5q39 0 63 -15.5t24 -44.5q0 -22 -20 -41.5t-48 -28.5
q35 0 62 -21t27 -57z" />
    <glyph glyph-name="uni2154" unicode="&#x2154;" horiz-adv-x="390" 
d="M297 620q0 -18 -6.5 -34t-22.5 -34t-28 -29t-38 -33t-37 -32l-19 -17h156l-16 -76l-6 1q2 31 -27 31h-160v4l61 60q87 87 87 159q0 62 -36 62q-32 0 -48 -48q-9 -27 -27 -27q-21 0 -21 21t28 41t72 20q39 0 63.5 -17.5t24.5 -51.5zM44 346h302v-9h-302v9zM308 84
q0 -40 -33 -66t-74 -26q-50 0 -81 22.5t-31 53.5q0 9 6 16t15 7q21 0 26 -25q8 -37 22.5 -51.5t42.5 -14.5t39.5 20t11.5 62q0 73 -33 73q-9 0 -21 -6l-33 -16l-3 7l41 20q30 15 30 68q0 57 -36 57q-31 0 -47 -48q-9 -27 -27 -27q-21 0 -21 21q0 20 28 40.5t70 20.5
q39 0 63 -15.5t24 -44.5q0 -22 -20 -41.5t-48 -28.5q35 0 62 -21t27 -57z" />
    <glyph glyph-name="uni2155" unicode="&#x2155;" horiz-adv-x="390" 
d="M271 397h-7q-12 0 -29 1.5t-35 1.5t-35 -1.5t-29 -1.5h-22v7h18q26 0 34 9t8 41v141q0 22 -16 22q-6 0 -40 -17l-3 6l15 8q31 17 58.5 43t32.5 42h5v-245q0 -30 7 -40t30 -10h8v-7zM44 346h302v-9h-302v9zM288 95q0 -45 -33 -74t-74 -29q-46 0 -76.5 19.5t-30.5 46.5
q0 9 6 16t15 7q21 0 26 -25q7 -32 20.5 -44t39.5 -12q28 0 39.5 22t11.5 72q0 49 -10.5 67.5t-39.5 18.5q-52 0 -75 -41l-6 2q21 143 22 143h109q31 0 41 24l5 -1l-15 -67h-139l-12 -81q27 29 73 29q44 0 73.5 -26t29.5 -67z" />
    <glyph glyph-name="uni2156" unicode="&#x2156;" horiz-adv-x="390" 
d="M297 620q0 -18 -6.5 -34t-22.5 -34t-28 -29t-38 -33t-37 -32l-19 -17h156l-16 -76l-6 1q2 31 -27 31h-160v4l61 60q87 87 87 159q0 62 -36 62q-32 0 -48 -48q-9 -27 -27 -27q-21 0 -21 21t28 41t72 20q39 0 63.5 -17.5t24.5 -51.5zM44 346h302v-9h-302v9zM288 95
q0 -45 -33 -74t-74 -29q-46 0 -76.5 19.5t-30.5 46.5q0 9 6 16t15 7q21 0 26 -25q7 -32 20.5 -44t39.5 -12q28 0 39.5 22t11.5 72q0 49 -10.5 67.5t-39.5 18.5q-52 0 -75 -41l-6 2q21 143 22 143h109q31 0 41 24l5 -1l-15 -67h-139l-12 -81q27 29 73 29q44 0 73.5 -26
t29.5 -67z" />
    <glyph glyph-name="uni2157" unicode="&#x2157;" horiz-adv-x="390" 
d="M308 481q0 -40 -33 -66t-74 -26q-50 0 -81 22.5t-31 53.5q0 9 6 16t15 7q21 0 26 -25q8 -37 22.5 -51.5t42.5 -14.5t39.5 20t11.5 62q0 73 -33 73q-9 0 -21 -6l-33 -16l-3 7l41 20q30 15 30 68q0 57 -36 57q-31 0 -47 -48q-9 -27 -27 -27q-21 0 -21 21q0 20 28 40.5
t70 20.5q39 0 63 -15.5t24 -44.5q0 -22 -20 -41.5t-48 -28.5q35 0 62 -21t27 -57zM44 346h302v-9h-302v9zM288 95q0 -45 -33 -74t-74 -29q-46 0 -76.5 19.5t-30.5 46.5q0 9 6 16t15 7q21 0 26 -25q7 -32 20.5 -44t39.5 -12q28 0 39.5 22t11.5 72q0 49 -10.5 67.5t-39.5 18.5
q-52 0 -75 -41l-6 2q21 143 22 143h109q31 0 41 24l5 -1l-15 -67h-139l-12 -81q27 29 73 29q44 0 73.5 -26t29.5 -67z" />
    <glyph glyph-name="uni2158" unicode="&#x2158;" horiz-adv-x="390" 
d="M286 397h-11q-5 0 -20 1.5t-34 1.5t-34 -1.5t-20 -1.5h-22v7h11q23 0 31 9.5t8 40.5v19h-129v4l137 204q1 0 9 -0.5t12 -0.5q5 0 12 0.5t11 0.5v-200h3q32 0 65 66l5 -1l-16 -73h-57v-19q0 -31 7 -40.5t30 -9.5h2v-7zM195 481v174l-116 -174h116zM44 346h302v-9h-302v9z
M288 95q0 -45 -33 -74t-74 -29q-46 0 -76.5 19.5t-30.5 46.5q0 9 6 16t15 7q21 0 26 -25q7 -32 20.5 -44t39.5 -12q28 0 39.5 22t11.5 72q0 49 -10.5 67.5t-39.5 18.5q-52 0 -75 -41l-6 2q21 143 22 143h109q31 0 41 24l5 -1l-15 -67h-139l-12 -81q27 29 73 29
q44 0 73.5 -26t29.5 -67z" />
    <glyph glyph-name="uni2159" unicode="&#x2159;" horiz-adv-x="390" 
d="M271 397h-7q-12 0 -29 1.5t-35 1.5t-35 -1.5t-29 -1.5h-22v7h18q26 0 34 9t8 41v141q0 22 -16 22q-6 0 -40 -17l-3 6l15 8q31 17 58.5 43t32.5 42h5v-245q0 -30 7 -40t30 -10h8v-7zM44 346h302v-9h-302v9zM88 125q0 62 55 110t139 61l1 -7q-120 -18 -137 -126
q25 33 65 33q41 0 70 -26t29 -69q0 -46 -35.5 -77.5t-72.5 -31.5q-41 0 -77.5 33t-36.5 100zM144 125q0 -71 14 -98.5t44 -27.5q52 0 52 101q0 49 -10 68.5t-35 19.5q-35 0 -64 -37q-1 -8 -1 -26z" />
    <glyph glyph-name="uni215A" unicode="&#x215a;" horiz-adv-x="390" 
d="M308 492q0 -45 -33 -74t-74 -29q-46 0 -76.5 19.5t-30.5 46.5q0 9 6 16t15 7q21 0 26 -25q7 -32 20.5 -44t39.5 -12q28 0 39.5 22t11.5 72q0 49 -10.5 67.5t-39.5 18.5q-52 0 -75 -41l-6 2q21 143 22 143h109q31 0 41 24l5 -1l-15 -67h-139l-12 -81q27 29 73 29
q44 0 73.5 -26t29.5 -67zM44 346h302v-9h-302v9zM88 125q0 62 55 110t139 61l1 -7q-120 -18 -137 -126q25 33 65 33q41 0 70 -26t29 -69q0 -46 -35.5 -77.5t-72.5 -31.5q-41 0 -77.5 33t-36.5 100zM144 125q0 -71 14 -98.5t44 -27.5q52 0 52 101q0 49 -10 68.5t-35 19.5
q-35 0 -64 -37q-1 -8 -1 -26z" />
    <glyph glyph-name="uni215B" unicode="&#x215b;" horiz-adv-x="390" 
d="M271 397h-7q-12 0 -29 1.5t-35 1.5t-35 -1.5t-29 -1.5h-22v7h18q26 0 34 9t8 41v141q0 22 -16 22q-6 0 -40 -17l-3 6l15 8q31 17 58.5 43t32.5 42h5v-245q0 -30 7 -40t30 -10h8v-7zM44 346h302v-9h-302v9zM193 -8q-44 0 -76 21.5t-32 54.5q0 53 71 75q-21 8 -38.5 27
t-17.5 47q0 32 27 53.5t68 21.5q37 0 63.5 -18.5t26.5 -47.5q0 -18 -14 -36t-41 -27q69 -28 69 -83q0 -38 -31 -63t-75 -25zM246 225q0 27 -14 43t-38 16q-29 0 -43.5 -13t-14.5 -33q0 -37 46 -55l40 -17q24 24 24 59zM194 0q30 0 46.5 17.5t16.5 44.5q0 40 -53 61l-40 17
q-33 -21 -33 -72q0 -68 63 -68z" />
    <glyph glyph-name="uni215C" unicode="&#x215c;" horiz-adv-x="390" 
d="M308 481q0 -40 -33 -66t-74 -26q-50 0 -81 22.5t-31 53.5q0 9 6 16t15 7q21 0 26 -25q8 -37 22.5 -51.5t42.5 -14.5t39.5 20t11.5 62q0 73 -33 73q-9 0 -21 -6l-33 -16l-3 7l41 20q30 15 30 68q0 57 -36 57q-31 0 -47 -48q-9 -27 -27 -27q-21 0 -21 21q0 20 28 40.5
t70 20.5q39 0 63 -15.5t24 -44.5q0 -22 -20 -41.5t-48 -28.5q35 0 62 -21t27 -57zM44 346h302v-9h-302v9zM193 -8q-44 0 -76 21.5t-32 54.5q0 53 71 75q-21 8 -38.5 27t-17.5 47q0 32 27 53.5t68 21.5q37 0 63.5 -18.5t26.5 -47.5q0 -18 -14 -36t-41 -27q69 -28 69 -83
q0 -38 -31 -63t-75 -25zM246 225q0 27 -14 43t-38 16q-29 0 -43.5 -13t-14.5 -33q0 -37 46 -55l40 -17q24 24 24 59zM194 0q30 0 46.5 17.5t16.5 44.5q0 40 -53 61l-40 17q-33 -21 -33 -72q0 -68 63 -68z" />
    <glyph glyph-name="uni215D" unicode="&#x215d;" horiz-adv-x="390" 
d="M308 492q0 -45 -33 -74t-74 -29q-46 0 -76.5 19.5t-30.5 46.5q0 9 6 16t15 7q21 0 26 -25q7 -32 20.5 -44t39.5 -12q28 0 39.5 22t11.5 72q0 49 -10.5 67.5t-39.5 18.5q-52 0 -75 -41l-6 2q21 143 22 143h109q31 0 41 24l5 -1l-15 -67h-139l-12 -81q27 29 73 29
q44 0 73.5 -26t29.5 -67zM44 346h302v-9h-302v9zM193 -8q-44 0 -76 21.5t-32 54.5q0 53 71 75q-21 8 -38.5 27t-17.5 47q0 32 27 53.5t68 21.5q37 0 63.5 -18.5t26.5 -47.5q0 -18 -14 -36t-41 -27q69 -28 69 -83q0 -38 -31 -63t-75 -25zM246 225q0 27 -14 43t-38 16
q-29 0 -43.5 -13t-14.5 -33q0 -37 46 -55l40 -17q24 24 24 59zM194 0q30 0 46.5 17.5t16.5 44.5q0 40 -53 61l-40 17q-33 -21 -33 -72q0 -68 63 -68z" />
    <glyph glyph-name="uni215E" unicode="&#x215e;" horiz-adv-x="390" 
d="M193 389q-12 0 -20.5 8t-8.5 22q0 82 123 218h-132q-31 0 -43 -31l-6 1l21 98l6 -1q-1 -14 6 -18.5t24 -4.5h163v-4q-6 -8 -26 -34t-24.5 -33l-18 -28t-17 -33t-10.5 -34t-8.5 -44.5t-1.5 -51.5q0 -14 -8 -22t-19 -8zM44 346h302v-9h-302v9zM193 -8q-44 0 -76 21.5
t-32 54.5q0 53 71 75q-21 8 -38.5 27t-17.5 47q0 32 27 53.5t68 21.5q37 0 63.5 -18.5t26.5 -47.5q0 -18 -14 -36t-41 -27q69 -28 69 -83q0 -38 -31 -63t-75 -25zM246 225q0 27 -14 43t-38 16q-29 0 -43.5 -13t-14.5 -33q0 -37 46 -55l40 -17q24 24 24 59zM194 0
q30 0 46.5 17.5t16.5 44.5q0 40 -53 61l-40 17q-33 -21 -33 -72q0 -68 63 -68z" />
    <glyph glyph-name="partialdiff" unicode="&#x2202;" horiz-adv-x="513" 
d="M256 -8q-89 0 -151.5 73t-62.5 180t62.5 180t151.5 73q64 0 111 -41q-62 189 -263 229l2 8q156 -30 260.5 -143t104.5 -257q0 -83 -20 -144.5t-53 -94t-68.5 -48t-73.5 -15.5zM256 0q34 0 57 10.5t42.5 38.5t29 84t9.5 142q0 89 -21 165q-47 50 -117 50
q-33 0 -56.5 -10.5t-43 -36.5t-29 -75.5t-9.5 -122.5t9.5 -122.5t29 -75.5t43 -36.5t56.5 -10.5z" />
    <glyph glyph-name="uni2206" unicode="&#x2206;" horiz-adv-x="630" 
d="M593 4v-4h-556v4l233 596l-34 81q9 0 21 -0.5t18 -0.5t17 0.5t18 0.5zM276 589l-226 -579h466z" />
    <glyph glyph-name="product" unicode="&#x220f;" horiz-adv-x="691" 
d="M647 0h-16q-11 0 -32 1.5t-38 1.5t-38 -1.5t-32 -1.5h-16v8h1q32 0 41.5 8.5t9.5 40.5v614h-363v-614q0 -32 9.5 -40.5t41.5 -8.5h1v-8h-16q-10 0 -32 1.5t-38 1.5t-38 -1.5t-32 -1.5h-16v8h1q32 0 41.5 8.5t9.5 40.5v567q0 32 -9.5 40.5t-41.5 8.5h-1v8h16q10 0 32 -0.5
t38 -0.5t38 0.5t32 0.5h291q11 0 32 -0.5t38 -0.5t38 0.5t32 0.5h16v-8h-1q-32 0 -41.5 -8.5t-9.5 -40.5v-567q0 -32 9.5 -40.5t41.5 -8.5h1v-8z" />
    <glyph glyph-name="summation" unicode="&#x2211;" horiz-adv-x="604" 
d="M539 -62l-6 1q4 37 -9.5 49t-47.5 12h-432v4l255 296l-189 327q-17 28 -29 37t-43 9h-3v8h17q12 0 28 -0.5t34 -0.5q22 0 40 0.5t34 0.5h248q19 0 26 7.5t7 22.5l6 1l92 -225l-6 -3q-73 104 -113 148q-35 39 -96 39h-187l188 -324l-242 -281h454z" />
    <glyph glyph-name="minus" unicode="&#x2212;" horiz-adv-x="490" 
d="M45 317v10h400v-10h-400z" />
    <glyph glyph-name="radical" unicode="&#x221a;" horiz-adv-x="514" 
d="M471 750l-263 -750h-8l-157 444l9 3l152 -430l258 736z" />
    <glyph glyph-name="infinity" unicode="&#x221e;" horiz-adv-x="752" 
d="M45 325q0 55 37.5 98t94.5 43q19 0 38.5 -6t32.5 -12.5t34 -24t29.5 -26t33 -33.5t31.5 -33q8 9 31.5 33.5t33 33t29.5 26t33.5 24t32.5 12.5t39 6q57 0 94.5 -43t37.5 -98t-37.5 -98t-94.5 -43q-15 0 -29.5 3.5t-25.5 7t-26 13.5t-23 16t-24 21t-22.5 21.5t-24.5 25.5
t-24 25q-7 -7 -27.5 -28.5t-28.5 -29t-25 -23.5t-28 -22t-27 -15t-31 -12t-32 -3q-57 0 -94.5 43t-37.5 98zM55 325q0 -51 34.5 -91t87.5 -40q18 0 36 6t31.5 12.5t32.5 22.5t28.5 25.5l32 32l31.5 31.5q-10 10 -32 32.5t-32 32.5t-28.5 26t-31.5 23t-31.5 12.5t-36.5 5.5
q-53 0 -87.5 -40t-34.5 -91zM575 456q-19 0 -37 -6t-31 -12.5t-32 -23t-28.5 -25.5t-32 -32.5t-31.5 -32.5l32 -32l32 -32t28.5 -25.5t31.5 -22.5t31.5 -12.5t36.5 -5.5q53 0 87.5 40t34.5 91t-34.5 91t-87.5 40z" />
    <glyph glyph-name="integral" unicode="&#x222b;" horiz-adv-x="356" 
d="M383 646q-6 0 -33 2t-37 2q-59 0 -81 -32.5t-22 -115.5v-445q0 -111 -51 -183q-35 -50 -88 -79.5t-100 -29.5q-30 0 -30 26q0 27 30 27q6 0 33 -2t37 -2q59 0 81 32.5t22 115.5v445q0 111 51 183q35 50 88 79.5t100 29.5q30 0 30 -26q0 -27 -30 -27z" />
    <glyph glyph-name="approxequal" unicode="&#x2248;" horiz-adv-x="532" 
d="M379 385q60 0 98 58l9 -5q-15 -24 -43 -43.5t-64 -19.5q-41 0 -114.5 31t-112.5 31q-60 0 -98 -58l-9 5q15 24 43 43.5t64 19.5q43 0 115.5 -31t111.5 -31zM379 210q60 0 98 58l9 -5q-15 -24 -43 -43.5t-64 -19.5q-41 0 -114.5 31t-112.5 31q-60 0 -98 -58l-9 5
q15 24 43 43.5t64 19.5q43 0 115.5 -31t111.5 -31z" />
    <glyph glyph-name="notequal" unicode="&#x2260;" horiz-adv-x="490" 
d="M445 229h-246l-61 -110l-9 5l58 105h-142v10h148l94 169h-242v10h247l57 102l9 -5l-54 -97h141v-10h-146l-94 -169h240v-10z" />
    <glyph glyph-name="lessequal" unicode="&#x2264;" horiz-adv-x="530" 
d="M81 378l374 122l3 -10l-360 -117l360 -117l-3 -10l-374 122v10zM45 109v10h440v-10h-440z" />
    <glyph glyph-name="greaterequal" unicode="&#x2265;" horiz-adv-x="530" 
d="M75 500l374 -122v-10l-374 -122l-3 10l360 117l-360 117zM485 119v-10h-440v10h440z" />
    <glyph glyph-name="lozenge" unicode="&#x25ca;" horiz-adv-x="530" 
d="M487 324l-219 -405h-6l-219 405l219 405h6zM475 324l-210 391l-210 -391l210 -391z" />
    <glyph glyph-name="uniF6C3" unicode="&#xf6c3;" horiz-adv-x="0" 
d="M-106 -155q-19 0 -31 12.5t-12 30.5t12.5 31t32.5 13q21 0 35.5 -16.5t14.5 -40.5q0 -48 -25.5 -78t-56.5 -37l-1 6q28 7 50 33t22 62q0 5 -1 11q-12 -27 -40 -27z" />
    <glyph glyph-name="uniF8FF" unicode="&#xf8ff;" horiz-adv-x="1231" 
d="M655 345q-7 0 -40 1.5t-40 1.5q-55 0 -85 -24t-53 -76q-53 -121 -163 -121q-13 0 -42.5 2t-40.5 2q-59 0 -95 -31t-36 -78q0 -16 1 -22h-10q-1 7 -1 22q0 52 39.5 85.5t102.5 33.5q12 0 42.5 -2t40.5 -2q104 0 153 115q22 51 55 78t92 27q7 0 40 -1.5t40 -1.5q55 0 85 24
t53 76q53 121 163 121q13 0 42.5 -2t40.5 -2q59 0 95 31t36 78q0 16 -1 22h10q1 -7 1 -22q0 -52 -39.5 -85.5t-102.5 -33.5q-12 0 -42.5 2t-40.5 2q-104 0 -153 -115q-22 -51 -55 -78t-92 -27z" />
    <glyph glyph-name="uni00A40301" horiz-adv-x="296" 
d="M130 733l-6 4q21 37 43.5 90t35.5 73q11 15 26 15q13 0 21 -8.5t8 -19.5t-6 -20q-12 -18 -53.5 -57.5t-68.5 -76.5zM207 196q0 -151 -60 -222.5t-154 -71.5q-35 0 -35 30q0 14 8.5 22.5t22.5 8.5q11 0 44 -11t49 -11q31 0 44 27.5t13 84.5v571q0 32 -9.5 40.5t-41.5 8.5
h-1v8h16q11 0 32 -1.5t38 -1.5t38 1.5t32 1.5h16v-8h-1q-32 0 -41.5 -8.5t-9.5 -40.5v-428z" />
    <glyph glyph-name="R.ss02" horiz-adv-x="633" 
d="M216 0h-16q-10 0 -32 1.5t-38 1.5t-38 -1.5t-32 -1.5h-16v8h1q32 0 41.5 8.5t9.5 40.5v567q0 32 -9.5 40.5t-41.5 8.5h-1v8h16q10 0 32 -0.5t38 -0.5q20 0 47 0.5t42 0.5h108q95 0 159.5 -49.5t64.5 -133.5q0 -73 -48 -123.5t-130 -58.5l134 -214q36 -58 58.5 -75
t59.5 -19v-8q-24 0 -45.5 1.5t-41.5 1.5q-11 0 -26 -1.5t-22 -1.5l-191 315h-135v-258q0 -32 9.5 -40.5t41.5 -8.5h1v-8zM164 325h129l-37 62q10 0 22 -0.5t18 -0.5t15 0.5t19 0.5l37 -61q61 8 84 52.5t23 119.5q0 87 -32.5 130t-117.5 43h-160v-346z" />
    <glyph glyph-name="uni006A0301" horiz-adv-x="241" 
d="M76 542l-6 4q21 37 43.5 90t35.5 73q11 15 26 15q13 0 21 -8t8 -20q0 -11 -6 -20q-12 -18 -53.5 -57.5t-68.5 -76.5zM164 39q0 -106 -46 -184q-54 -91 -142 -91q-13 0 -22 7t-9 19q0 26 29 26q12 0 37 -5t33 -5q54 0 54 85v508q0 32 -9.5 40.5t-44.5 8.5h-1v7h6
q33 0 68 13t41 30h6v-459z" />
    <glyph glyph-name="i.trk" horiz-adv-x="254" 
d="M131 592q-20 0 -34 13.5t-14 34.5t14 35t34 14t34.5 -14t14.5 -35t-14 -34.5t-35 -13.5zM219 0h-14q-11 0 -34 1.5t-40 1.5t-40 -1.5t-34 -1.5h-14v7h1q35 0 44.5 9t9.5 41v342q0 32 -9.5 40.5t-44.5 8.5h-1v7h6q33 0 68 13t41 30h6v-441q0 -32 9.5 -41t44.5 -9h1v-7z
" />
    <glyph glyph-name="zero.osf" horiz-adv-x="530" 
d="M265 -8q-89 0 -151.5 76.5t-62.5 186.5t62.5 186.5t151.5 76.5t151.5 -76.5t62.5 -186.5t-62.5 -186.5t-151.5 -76.5zM265 0q33 0 56.5 10.5t43 37t29 78.5t9.5 129t-9.5 129t-29 78.5t-43 37t-56.5 10.5t-56.5 -10.5t-43 -37t-29 -78.5t-9.5 -129t9.5 -129t29 -78.5
t43 -37t56.5 -10.5z" />
    <glyph glyph-name="one.osf" horiz-adv-x="276" 
d="M171 453v-396q0 -32 9.5 -41t44.5 -9h1v-7h-14q-12 0 -34 1.5t-40 1.5t-40 -1.5t-34 -1.5h-14v7h1q35 0 44.5 9t9.5 41v396q0 32 -9.5 41t-44.5 9h-1v7h14q12 0 34 -1.5t40 -1.5t40 1.5t34 1.5h14v-7h-1q-35 0 -44.5 -9t-9.5 -41z" />
    <glyph glyph-name="two.osf" horiz-adv-x="465" 
d="M405 395q0 -32 -10.5 -59.5t-38 -57.5t-48 -48.5t-67 -55.5t-68.5 -56l-66 -56h303l-24 -124l-6 1q3 36 -10 48.5t-45 12.5h-295v4l135 121q88 79 127 138t39 132q0 114 -91 114q-81 0 -121 -113q-10 -31 -32 -31q-12 0 -20.5 8t-8.5 20q0 41 57.5 82.5t124.5 41.5
t116 -36.5t49 -85.5z" />
    <glyph glyph-name="three.osf" horiz-adv-x="452" 
d="M407 133q0 -64 -57.5 -128t-138 -105t-158.5 -54l-1 8q124 27 202 104.5t78 171.5q0 52 -20.5 82t-61.5 30q-22 0 -50 -15l-53 -27l-4 8l71 37q47 25 69.5 55t22.5 85q0 124 -94 124q-81 0 -119 -108q-7 -21 -15 -28.5t-21 -7.5q-12 0 -19.5 8.5t-7.5 22.5
q0 38 57.5 79.5t124.5 41.5q65 0 116.5 -37t51.5 -88q0 -25 -11.5 -47t-34.5 -39.5t-42 -28.5t-47 -25q33 2 67 -6t64.5 -37t30.5 -76z" />
    <glyph glyph-name="four.osf" horiz-adv-x="500" 
d="M349 36v-119q0 -32 9.5 -41t44.5 -9h1v-7h-14q-12 0 -34 2t-40 2t-40 -2t-34 -2h-28v7h14q35 0 45 9t10 41v118h-279v5l285 471l28 -1q3 0 13.5 0.5t18.5 0.5v-467h5q76 0 135 129l5 -1l-29 -136h-116zM283 44v440l-266 -440h266z" />
    <glyph glyph-name="five.osf" horiz-adv-x="457" 
d="M407 146q0 -101 -98 -184.5t-253 -115.5l-1 9q278 65 278 288q0 138 -96 138q-47 0 -94.5 -28.5t-74.5 -77.5l-8 2l48 334h215q34 0 51.5 7.5t27.5 33.5l6 -1l-23 -102h-278l-35 -251q29 41 74.5 66.5t90.5 25.5q77 0 123.5 -39t46.5 -105z" />
    <glyph glyph-name="six.osf" horiz-adv-x="530" 
d="M272 -10q-27 0 -54 6.5t-57 26t-53 50t-38 82t-15 118.5q0 141 105.5 250.5t266.5 138.5l1 -9q-257 -54 -292 -302q27 35 70 57t82 22q32 0 63.5 -10t62.5 -32t50.5 -66t19.5 -103q0 -55 -21.5 -100.5t-54 -72.5t-68.5 -41.5t-68 -14.5zM272 -2q66 0 100 56t34 162
q0 205 -118 205q-38 0 -81 -22.5t-72 -62.5q-4 -38 -4 -63q0 -151 35.5 -213t105.5 -62z" />
    <glyph glyph-name="seven.osf" horiz-adv-x="443" 
d="M213 -107q0 -18 -11.5 -29t-27.5 -11q-18 0 -29.5 11t-11.5 30q0 206 256 555h-265q-36 0 -54 -14.5t-32 -51.5l-6 1l36 167l6 -1q-1 -23 12 -31t40 -8h312v-4q-63 -90 -98.5 -148.5t-68 -133t-45.5 -153.5t-13 -179z" />
    <glyph glyph-name="eight.osf" horiz-adv-x="519" 
d="M265 -10q-94 0 -156 50t-62 129q0 52 40 99.5t107 77.5q-117 56 -117 154q0 65 54 113t130 48q69 0 125 -38.5t56 -102.5q0 -95 -110 -161q66 -30 103 -73t37 -111q0 -81 -61 -133t-146 -52zM385 519q0 61 -32.5 97.5t-91.5 36.5q-60 0 -99 -31t-39 -83q0 -93 102 -136
l97 -40q28 27 45.5 71t17.5 85zM265 -2q71 0 113.5 41t42.5 107q0 107 -122 157l-95 39q-41 -25 -65.5 -72.5t-24.5 -94.5q0 -72 39.5 -124.5t111.5 -52.5z" />
    <glyph glyph-name="nine.osf" horiz-adv-x="529" 
d="M257 518q27 0 54 -6.5t57 -26t53 -50t38 -82t15 -118.5q0 -141 -105.5 -250.5t-266.5 -138.5l-1 9q257 54 292 302q-27 -35 -70 -57t-82 -22q-32 0 -63.5 10t-62.5 32t-50.5 66t-19.5 103q0 55 21.5 100.5t54 72.5t68.5 41.5t68 14.5zM257 510q-66 0 -100 -56t-34 -162
q0 -205 118 -205q38 0 81 22.5t72 62.5q4 38 4 63q0 151 -35.5 213t-105.5 62z" />
    <glyph glyph-name="zero.osf_01" horiz-adv-x="596" 
d="M35 255q0 109 77 186t186 77t186 -77t77 -186t-77 -186t-186 -77t-186 77t-77 186zM46 255q0 -105 74 -179t178 -74t178 74t74 179t-74 179t-178 74t-178 -74t-74 -179z" />
    <glyph glyph-name="exclamdown.case" horiz-adv-x="254" 
d="M120 689q21 0 36.5 -15t15.5 -37t-15.5 -37t-36.5 -15t-36.5 15t-15.5 37t15.5 37t36.5 15zM115 475h10v-43q0 -63 16.5 -203.5t16.5 -187.5q0 -48 -38 -48q-17 0 -27 12.5t-10 35.5q0 46 16 187t16 204v43z" />
    <glyph glyph-name="questiondown.case" horiz-adv-x="345" 
d="M208 689q21 0 36.5 -15t15.5 -37t-15.5 -37t-36.5 -15t-36.5 15t-15.5 37t15.5 37t36.5 15zM202 475h10v-202q-68 -13 -107.5 -51.5t-39.5 -83.5q0 -35 25.5 -60t72.5 -25q23 0 53.5 7t39.5 7q15 0 23.5 -10.5t8.5 -25.5q0 -38 -57 -38q-80 0 -129 48.5t-49 121.5
q0 142 149 186v126z" />
    <glyph glyph-name="slash.case" horiz-adv-x="351" 
d="M330 773l-300 -893l-9 3l300 893z" />
    <glyph glyph-name="backslash.case" horiz-adv-x="351" 
d="M321 -120l-300 893l9 3l300 -893z" />
    <glyph glyph-name="parenleft.case" 
d="M127 328q0 -137 35.5 -260t119.5 -184l-5 -7q-97 69 -157 194.5t-60 256.5t60 257.5t157 194.5l5 -7q-84 -61 -119.5 -184.5t-35.5 -260.5z" />
    <glyph glyph-name="parenright.case" 
d="M163 328q0 137 -35.5 260.5t-119.5 184.5l5 7q97 -68 157 -194.5t60 -257.5t-60 -256.5t-157 -194.5l-5 7q84 61 119.5 184t35.5 260z" />
    <glyph glyph-name="braceleft.case" horiz-adv-x="292" 
d="M170 -10q0 -48 20.5 -68.5t81.5 -35.5l-2 -8q-87 21 -122.5 52t-35.5 105q0 33 5 94.5t5 77.5q0 57 -16 85t-66 30v10q50 2 66 30t16 85q0 16 -5 77.5t-5 94.5q0 74 35.5 105t122.5 52l2 -8q-61 -15 -81.5 -35.5t-20.5 -68.5q0 -21 5 -100.5t5 -102.5q0 -59 -25.5 -93
t-92.5 -41q67 -7 92.5 -41t25.5 -93q0 -23 -5 -102.5t-5 -100.5z" />
    <glyph glyph-name="braceright.case" horiz-adv-x="292" 
d="M122 -10q0 21 -5 100.5t-5 102.5q0 59 25.5 93t92.5 41q-67 7 -92.5 41t-25.5 93q0 23 5 102.5t5 100.5q0 48 -20.5 68.5t-81.5 35.5l2 8q87 -21 122.5 -52t35.5 -105q0 -33 -5 -94.5t-5 -77.5q0 -57 16 -85t66 -30v-10q-50 -2 -66 -30t-16 -85q0 -16 5 -77.5t5 -94.5
q0 -74 -35.5 -105t-122.5 -52l-2 8q61 15 81.5 35.5t20.5 68.5z" />
    <glyph glyph-name="bracketleft.case" horiz-adv-x="275" 
d="M85 -122v901q60 -3 165 -3v-9l-150 -3q51 -196 51 -436q0 -239 -51 -435q75 -3 150 -3v-9q-105 0 -165 -3z" />
    <glyph glyph-name="bracketright.case" horiz-adv-x="275" 
d="M190 779v-901q-60 3 -165 3v9l150 3q-51 196 -51 435q0 240 51 436q-75 3 -150 3v9q105 0 165 3z" />
    <glyph glyph-name="hyphen.case" horiz-adv-x="303" 
d="M238 317h-173v39h173v-39z" />
    <glyph glyph-name="uni00AD.case" horiz-adv-x="303" 
d="M238 317h-173v39h173v-39z" />
    <glyph glyph-name="endash.case" horiz-adv-x="512" 
d="M467 331h-422v10h422v-10z" />
    <glyph glyph-name="emdash.case" horiz-adv-x="988" 
d="M943 331h-898v10h898v-10z" />
    <glyph glyph-name="guillemotleft.case" horiz-adv-x="502" 
d="M276 139l-5 -5q-25 26 -79 71t-94.5 76.5t-47.5 36.5q7 5 47.5 36.5t94.5 76.5t79 71l5 -5q-41 -48 -134 -179q93 -131 134 -179zM433 139l-5 -5q-25 26 -79 71t-94.5 76.5t-47.5 36.5q7 5 47.5 36.5t94.5 76.5t79 71l5 -5q-18 -21 -41.5 -51.5t-39.5 -53t-34.5 -48
t-18.5 -26.5t18.5 -26.5t34.5 -48t39.5 -53t41.5 -51.5z" />
    <glyph glyph-name="guillemotright.case" horiz-adv-x="502" 
d="M74 134l-5 5q53 61 134 179q-81 118 -134 179l5 5q25 -26 79 -71t94.5 -76.5t47.5 -36.5q-7 -5 -47.5 -36.5t-94.5 -76.5t-79 -71zM231 134l-5 5q53 61 134 179q-70 106 -134 179l5 5q25 -26 79 -71t94.5 -76.5t47.5 -36.5q-7 -5 -47.5 -36.5t-94.5 -76.5t-79 -71z" />
    <glyph glyph-name="guilsinglleft.case" horiz-adv-x="345" 
d="M271 134q-25 26 -79 71t-94.5 76.5t-47.5 36.5q7 5 47.5 36.5t94.5 76.5t79 71l5 -5q-48 -55 -134 -179q110 -152 134 -179z" />
    <glyph glyph-name="guilsinglright.case" horiz-adv-x="345" 
d="M74 134l-5 5q48 55 134 179q-110 152 -134 179l5 5q25 -26 79 -71t94.5 -76.5t47.5 -36.5q-7 -5 -47.5 -36.5t-94.5 -76.5t-79 -71z" />
    <glyph glyph-name="parenleft.subs" horiz-adv-x="177" 
d="M80 142q0 -51 16 -103t46 -78l-5 -6q-43 32 -72.5 81.5t-29.5 105.5t29.5 105.5t72.5 81.5l5 -6q-30 -26 -46 -78t-16 -103z" />
    <glyph glyph-name="parenright.subs" horiz-adv-x="177" 
d="M97 142q0 51 -16 103t-46 78l5 6q43 -32 72.5 -81.5t29.5 -105.5t-29.5 -105.5t-72.5 -81.5l-5 6q30 26 46 78t16 103z" />
    <glyph glyph-name="cent.osf" horiz-adv-x="500" 
d="M265 -8q-54 0 -101 30l-55 -165l-9 3l55 167q-46 31 -73 85.5t-27 124.5q0 119 64 190t151 71q18 0 40 -5l46 138l9 -3l-46 -137q52 -14 87 -51.5t35 -72.5q0 -12 -7.5 -20t-19.5 -8q-20 0 -27 20q-1 3 -8 35q-14 68 -63 87l-134 -405q42 -62 108 -62q107 0 149 126l6 -2
q-47 -146 -180 -146zM131 276q0 -118 44 -190l132 398q-17 6 -38 6q-67 0 -102.5 -59t-35.5 -155z" />
    <glyph glyph-name="dollar.osf" horiz-adv-x="509" 
d="M266 -72h-9v68q-79 4 -143 41t-64 89q0 15 8.5 24.5t20.5 9.5q24 0 33 -23q2 -5 5.5 -18.5t6.5 -22.5q29 -88 133 -92v297l-51 16q-59 19 -95.5 61t-36.5 103q0 71 48.5 118.5t134.5 47.5v69h9v-69q60 -2 116 -39t56 -86q0 -13 -9 -21t-19 -8q-22 0 -29 20q-2 6 -6 19
t-6 19q-13 45 -36.5 66t-66.5 22v-268l54 -15q139 -40 139 -172q0 -88 -57 -138t-132 -50h-4v-68zM100 511q0 -49 31 -78t99 -51l27 -8v265q-74 0 -115.5 -37t-41.5 -91zM423 146q0 59 -33 93.5t-103 53.5l-21 6v-295h3q69 0 111.5 40.5t42.5 101.5z" />
    <glyph glyph-name="Euro.osf" horiz-adv-x="612" 
d="M120 324q0 28 3 58h-98v9h99q15 118 79 194t167 76q60 0 121 -38.5t61 -87.5q0 -13 -8.5 -21.5t-20.5 -8.5q-16 0 -25 14q-6 9 -15 43q-13 48 -39.5 69.5t-73.5 21.5q-50 0 -84 -19.5t-52 -58t-25.5 -81.5t-9.5 -103h244v-9h-244v-114h244v-9h-244q2 -61 9.5 -103.5
t25.5 -80.5t52 -57.5t84 -19.5q47 0 73.5 21t39.5 69q9 34 15 43q9 14 25 14q12 0 20.5 -8.5t8.5 -21.5q0 -49 -61 -87t-121 -38q-103 0 -167 75.5t-79 193.5h-99v9h98q-3 29 -3 56z" />
    <glyph glyph-name="sterling.osf" horiz-adv-x="566" 
d="M405 -8q-12 0 -23.5 1.5t-26 7t-22.5 8.5t-25.5 12.5t-21.5 12t-25 15t-22 13.5q-45 -72 -127 -72q-33 0 -55 18t-22 48q0 31 26.5 51.5t71.5 20.5q37 0 106 -26q3 17 3 33q0 72 -42 163h-126v9h122q-20 43 -30 68t-19 59.5t-9 65.5q0 70 55 115.5t121 45.5
q60 0 117 -37.5t57 -88.5q0 -13 -7.5 -21.5t-19.5 -8.5q-17 0 -24.5 11t-14.5 41q-11 50 -36.5 73t-71.5 23q-53 0 -80.5 -32t-27.5 -82q0 -22 2.5 -43.5t9.5 -48t11.5 -43t15 -50.5t14.5 -47h168v-9h-166q15 -55 15 -100q0 -57 -19 -103q9 -3 32 -12t35.5 -13t31.5 -10
t35.5 -8.5t32.5 -2.5q78 0 78 87q0 49 -28 87l7 5q17 -24 26 -56t9 -52q0 -59 -30.5 -93.5t-80.5 -34.5zM112 -1q36 0 68.5 17.5t48.5 52.5q-73 44 -118 44q-29 0 -48 -16t-19 -41q0 -26 19.5 -41.5t48.5 -15.5z" />
    <glyph glyph-name="yen.osf" horiz-adv-x="561" 
d="M369 0h-17q-10 0 -31 1.5t-38 1.5q-16 0 -37.5 -1.5t-32.5 -1.5h-16v8h1q33 0 42 8.5t9 38.5v95h-146v10h146v88h-146v9h146v49l-172 290q-28 47 -77 47v8h28q4 0 26 -1.5t39 -1.5t41 1.5t28 1.5h33v-8q-28 0 -38.5 -5t-10.5 -18q0 -11 10 -28l155 -260l113 208
q24 44 24 62q0 41 -60 41h-1v8h12q10 0 37.5 -1.5t39.5 -1.5q6 0 32.5 1.5t34.5 1.5h18v-8h-1q-70 -1 -130 -111l-114 -209v-66h148v-9h-148v-88h148v-10h-148v-95q0 -30 9.5 -38.5t42.5 -8.5h1v-8z" />
    <glyph glyph-name="plus.osf" horiz-adv-x="540" 
d="M275 33h-10v214h-215v10h215v216h10v-216h215v-10h-215v-214z" />
    <glyph glyph-name="minus.osf" horiz-adv-x="500" 
d="M50 247v10h400v-10h-400z" />
    <glyph glyph-name="multiply.osf" horiz-adv-x="440" 
d="M389 415l-162 -162l163 -163l-7 -7l-163 163l-163 -163l-7 7l163 163l-162 162l7 7l162 -162l162 162z" />
    <glyph glyph-name="divide.osf" horiz-adv-x="540" 
d="M264 356q-20 0 -34 13.5t-14 34.5t14 35t34 14t34.5 -14t14.5 -35t-14 -34.5t-35 -13.5zM50 247v10h440v-10h-440zM264 52q-20 0 -34 13.5t-14 34.5t14 35t34 14t34.5 -14t14.5 -35t-14 -34.5t-35 -13.5z" />
    <glyph glyph-name="equal.osf" horiz-adv-x="500" 
d="M50 338v10h400v-10h-400zM50 159v10h400v-10h-400z" />
    <glyph glyph-name="notequal.osf" horiz-adv-x="500" 
d="M450 159h-246l-61 -110l-9 5l58 105h-142v10h148l94 169h-242v10h247l57 102l9 -5l-54 -97h141v-10h-146l-94 -169h240v-10z" />
    <glyph glyph-name="greater.osf" horiz-adv-x="480" 
d="M54 432l376 -174v-10l-376 -174l-4 9l368 170l-368 170z" />
    <glyph glyph-name="less.osf" horiz-adv-x="480" 
d="M50 258l376 174l4 -9l-368 -170l368 -170l-4 -9l-376 174v10z" />
    <glyph glyph-name="greaterequal.osf" horiz-adv-x="540" 
d="M80 430l374 -122v-10l-374 -122l-3 10l360 117l-360 117zM490 49v-10h-440v10h440z" />
    <glyph glyph-name="lessequal.osf" horiz-adv-x="540" 
d="M86 308l374 122l3 -10l-360 -117l360 -117l-3 -10l-374 122v10zM50 39v10h440v-10h-440z" />
    <glyph glyph-name="plusminus.osf" horiz-adv-x="500" 
d="M50 300v10h195v165h10v-165h195v-10h-195v-169h-10v169h-195zM50 41v10h400v-10h-400z" />
    <glyph glyph-name="approxequal.osf" horiz-adv-x="541" 
d="M384 315q60 0 98 58l9 -5q-15 -24 -43 -43.5t-64 -19.5q-41 0 -114.5 31t-112.5 31q-60 0 -98 -58l-9 5q15 24 43 43.5t64 19.5q43 0 115.5 -31t111.5 -31zM384 140q60 0 98 58l9 -5q-15 -24 -43 -43.5t-64 -19.5q-41 0 -114.5 31t-112.5 31q-60 0 -98 -58l-9 5
q15 24 43 43.5t64 19.5q43 0 115.5 -31t111.5 -31z" />
    </font>
</defs>
</svg>
